<?xml version="1.0" standalone="no"?>
<!DOCTYPE svg PUBLIC "-//W3C//DTD SVG 1.1//EN" "http://www.w3.org/Graphics/SVG/1.1/DTD/svg11.dtd" >
<svg>
<metadata>
Created by FontForge 20090914 at Thu Jan 31 13:45:23 2013
 By www-data
Copyright &#194;&#169; 2009 - 2012 Linotype Corp., www.linotype.com. All rights reserved. This font software may not be reproduced, modified, disclosed or transferred without the express written approval of Linotype Corp. Neue Helvetica is a trademark of Linotype Corp. registered in the U.S. Patent and Trademark Office and may be registered in certain other jurisdictions in the name of Linotype Corp. or its licensee Linotype GmbH. This typeface is original artwork of Linotype Design Stuf. The design may be protected in certain jurisdictions.
</metadata>
<defs>
<font id="HelveticaNeueLTArabic-Light" horiz-adv-x="1139" >
  <font-face 
    font-family="HelveticaNeueLT Arabic 45 Light"
    font-weight="300"
    font-stretch="normal"
    units-per-em="2048"
    panose-1="2 11 4 3 2 2 2 2 2 4"
    ascent="1462"
    descent="-586"
    x-height="1057"
    cap-height="1462"
    bbox="-388.994 -960 2875 2890"
    underline-thickness="102"
    underline-position="-103"
    unicode-range="U+000D-U+FEFC"
  />
<missing-glyph horiz-adv-x="1049" 
d="M1049 1470v-1470h-1049v1470h1049zM946 102v1264h-844v-1264h844zM530 1247c72.667 0 133.168 -24.499 181.501 -73.499s72.5 -113.833 72.5 -194.5c0 -46.667 -9.33301 -88.334 -28 -125.001s-52.667 -77.334 -102 -122.001c-50 -45.333 -79 -80.666 -87 -105.999
s-12 -74.333 -12 -147h-94l-4 40c0 69.333 8.83301 122.666 26.5 159.999s54.167 83 109.5 137c34.667 34 57.834 62 69.501 84s17.5 45.667 17.5 71c0 48.667 -15.333 89.834 -46 123.501s-67.334 50.5 -110.001 50.5c-42 0 -78.333 -15 -109 -45s-50.334 -80 -59.001 -150
l-102 17c9.33301 96 39.333 166.667 90 212s112.667 68 186 68zM455.001 377.001h114v-137h-114v137z" />
    <glyph glyph-name="uniFEF5" unicode="&#xfedf;&#xfe82;" horiz-adv-x="1233" arabic-form="isolated" 
d="M1093 1462v-1462h-1023v129h396v1006h129v-1006h369v1333h129zM164 1349c28 23.333 55.834 39.334 83.501 48.001s53.167 13 76.5 13c12.667 0 27 -1.5 43 -4.5s32.5 -7.16699 49.5 -12.5s34.333 -11.5 52 -18.5s34.5 -14.167 50.5 -21.5
c36 -16.667 70.167 -30.5 102.5 -41.5s60.166 -16.5 83.499 -16.5c18 0 34 2.5 48 7.5s26.333 11.667 37 20s20 17.666 28 27.999s14.667 20.5 20 30.5l51 -24c-19.333 -44 -43.833 -79.667 -73.5 -107s-66.5 -41 -110.5 -41c-36 0 -70.833 6.16699 -104.5 18.5
s-66.5 26.166 -98.5 41.499c-34 15.333 -67.667 29 -101 41s-64.333 18 -93 18c-23.333 0 -43.833 -2.16699 -61.5 -6.5s-36.167 -13.166 -55.5 -26.499z" />
    <glyph glyph-name="uniFEF6" unicode="&#xfee0;&#xfe82;" horiz-adv-x="1277" arabic-form="final" 
d="M1277 0c-24 0 -46.8311 2.00293 -68.498 6.00293s-41.834 10.833 -60.501 20.5s-35.167 22.167 -49.5 37.5s-26.5 34.333 -36.5 57c-16.667 -24.667 -34.5 -44.834 -53.5 -60.501s-40.5 -28 -64.5 -37s-51 -15.167 -81 -18.5s-64 -5 -102 -5h-691v129h396v1006h129v-1006
h147c28.667 0 56.334 1 83.001 3s50.334 8.5 71.001 19.5s37.167 27.667 49.5 50s18.5 54.166 18.5 95.499v1165h129v-1071c0 -40.667 3.16699 -77.167 9.5 -109.5s16.666 -59.833 30.999 -82.5s33.166 -40 56.499 -52s52.333 -18 87 -18c23.333 0 41.166 -4 53.499 -12
s18.5 -24.333 18.5 -49c0 -14.667 -1.5 -26.334 -4.5 -35.001s-7.5 -15.5 -13.5 -20.5s-13.5 -8.33301 -22.5 -10s-19.5 -2.5 -31.5 -2.5zM164.002 1349c28 23.333 55.834 39.334 83.501 48.001s53.167 13 76.5 13c12.667 0 27 -1.5 43 -4.5s32.5 -7.16699 49.5 -12.5
s34.333 -11.5 52 -18.5s34.5 -14.167 50.5 -21.5c36 -16.667 70.167 -30.5 102.5 -41.5s60.166 -16.5 83.499 -16.5c18 0 34 2.5 48 7.5s26.333 11.667 37 20s20 17.666 28 27.999s14.667 20.5 20 30.5l51 -24c-19.333 -44 -43.833 -79.667 -73.5 -107s-66.5 -41 -110.5 -41
c-36 0 -70.833 6.16699 -104.5 18.5s-66.5 26.166 -98.5 41.499c-34 15.333 -67.667 29 -101 41s-64.333 18 -93 18c-23.333 0 -43.833 -2.16699 -61.5 -6.5s-36.167 -13.166 -55.5 -26.499z" />
    <glyph glyph-name="uniFEF7" unicode="&#xfedf;&#xfe84;" horiz-adv-x="1233" arabic-form="isolated" 
d="M1093 1462v-1462h-1023v129h396v1006h129v-1006h369v1333h129zM699 1315h-350v76h98c-32.667 36.667 -49 77.667 -49 123c0 28.667 4.83301 54.167 14.5 76.5s22.834 41 39.501 56s35.834 26.333 57.501 34s44.5 11.5 68.5 11.5c15.333 0 30.166 -0.5 44.499 -1.5
s26.166 -3.16699 35.499 -6.5v-82c-15.333 4 -28.333 6.66699 -39 8s-21.667 2 -33 2c-22.667 0 -41.5 -3 -56.5 -9s-27 -13.833 -36 -23.5s-15.333 -20.667 -19 -33s-5.5 -24.5 -5.5 -36.5c0 -37.333 13 -66.5 39 -87.5s63 -31.5 111 -31.5h80v-76z" />
    <glyph glyph-name="uniFEF8" unicode="&#xfee0;&#xfe84;" horiz-adv-x="1277" arabic-form="final" 
d="M1277 0c-24 0 -46.8311 2.00293 -68.498 6.00293s-41.834 10.833 -60.501 20.5s-35.167 22.167 -49.5 37.5s-26.5 34.333 -36.5 57c-16.667 -24.667 -34.5 -44.834 -53.5 -60.501s-40.5 -28 -64.5 -37s-51 -15.167 -81 -18.5s-64 -5 -102 -5h-691v129h396v1006h129v-1006
h147c28.667 0 56.334 1 83.001 3s50.334 8.5 71.001 19.5s37.167 27.667 49.5 50s18.5 54.166 18.5 95.499v1165h129v-1071c0 -40.667 3.16699 -77.167 9.5 -109.5s16.666 -59.833 30.999 -82.5s33.166 -40 56.499 -52s52.333 -18 87 -18c23.333 0 41.166 -4 53.499 -12
s18.5 -24.333 18.5 -49c0 -14.667 -1.5 -26.334 -4.5 -35.001s-7.5 -15.5 -13.5 -20.5s-13.5 -8.33301 -22.5 -10s-19.5 -2.5 -31.5 -2.5zM699.002 1315h-350v76h98c-32.667 36.667 -49 77.667 -49 123c0 28.667 4.83301 54.167 14.5 76.5s22.834 41 39.501 56
s35.834 26.333 57.501 34s44.5 11.5 68.5 11.5c15.333 0 30.166 -0.5 44.499 -1.5s26.166 -3.16699 35.499 -6.5v-82c-15.333 4 -28.333 6.66699 -39 8s-21.667 2 -33 2c-22.667 0 -41.5 -3 -56.5 -9s-27 -13.833 -36 -23.5s-15.333 -20.667 -19 -33s-5.5 -24.5 -5.5 -36.5
c0 -37.333 13 -66.5 39 -87.5s63 -31.5 111 -31.5h80v-76z" />
    <glyph glyph-name="uniFEF9" unicode="&#xfedf;&#xfe88;" horiz-adv-x="1233" arabic-form="isolated" 
d="M1093 1462v-1462h-1023v129h396v1006h129v-1006h369v1333h129zM702 -555h-350v76h98c-32.667 36.667 -49 77.667 -49 123c0 28.667 4.83301 54 14.5 76s22.834 40.5 39.501 55.5s35.834 26.5 57.501 34.5s44.5 12 68.5 12c15.333 0 30.166 -0.5 44.499 -1.5
s26.166 -3.16699 35.499 -6.5v-82c-15.333 4 -28.333 6.66699 -39 8s-21.667 2 -33 2c-22.667 0 -41.5 -3 -56.5 -9s-27 -13.833 -36 -23.5s-15.333 -20.667 -19 -33s-5.5 -24.5 -5.5 -36.5c0 -37.333 13 -66.5 39 -87.5s63 -31.5 111 -31.5h80v-76z" />
    <glyph glyph-name="uniFEFA" unicode="&#xfee0;&#xfe88;" horiz-adv-x="1277" arabic-form="final" 
d="M1277 0c-24 0 -46.8311 2.00293 -68.498 6.00293s-41.834 10.833 -60.501 20.5s-35.167 22.167 -49.5 37.5s-26.5 34.333 -36.5 57c-16.667 -24.667 -34.5 -44.834 -53.5 -60.501s-40.5 -28 -64.5 -37s-51 -15.167 -81 -18.5s-64 -5 -102 -5h-691v129h396v1006h129v-1006
h147c28.667 0 56.334 1 83.001 3s50.334 8.5 71.001 19.5s37.167 27.667 49.5 50s18.5 54.166 18.5 95.499v1165h129v-1071c0 -40.667 3.16699 -77.167 9.5 -109.5s16.666 -59.833 30.999 -82.5s33.166 -40 56.499 -52s52.333 -18 87 -18c23.333 0 41.166 -4 53.499 -12
s18.5 -24.333 18.5 -49c0 -14.667 -1.5 -26.334 -4.5 -35.001s-7.5 -15.5 -13.5 -20.5s-13.5 -8.33301 -22.5 -10s-19.5 -2.5 -31.5 -2.5zM702.002 -554.997h-350v76h98c-32.667 36.667 -49 77.667 -49 123c0 28.667 4.83301 54 14.5 76s22.834 40.5 39.501 55.5
s35.834 26.5 57.501 34.5s44.5 12 68.5 12c15.333 0 30.166 -0.5 44.499 -1.5s26.166 -3.16699 35.499 -6.5v-82c-15.333 4 -28.333 6.66699 -39 8s-21.667 2 -33 2c-22.667 0 -41.5 -3 -56.5 -9s-27 -13.833 -36 -23.5s-15.333 -20.667 -19 -33s-5.5 -24.5 -5.5 -36.5
c0 -37.333 13 -66.5 39 -87.5s63 -31.5 111 -31.5h80v-76z" />
    <glyph glyph-name="uniFEFB" unicode="&#xfedf;&#xfe8e;" horiz-adv-x="1233" arabic-form="isolated" 
d="M1093 1462v-1462h-1023v129h396v1006h129v-1006h369v1333h129z" />
    <glyph glyph-name="uniFEFC" unicode="&#xfee0;&#xfe8e;" horiz-adv-x="1277" arabic-form="final" 
d="M1277 0c-24 0 -46.8311 2.00293 -68.498 6.00293s-41.834 10.833 -60.501 20.5s-35.167 22.167 -49.5 37.5s-26.5 34.333 -36.5 57c-16.667 -24.667 -34.5 -44.834 -53.5 -60.501s-40.5 -28 -64.5 -37s-51 -15.167 -81 -18.5s-64 -5 -102 -5h-691v129h396v1006h129v-1006
h147c28.667 0 56.334 1 83.001 3s50.334 8.5 71.001 19.5s37.167 27.667 49.5 50s18.5 54.166 18.5 95.499v1165h129v-1071c0 -40.667 3.16699 -77.167 9.5 -109.5s16.666 -59.833 30.999 -82.5s33.166 -40 56.499 -52s52.333 -18 87 -18c23.333 0 41.166 -4 53.499 -12
s18.5 -24.333 18.5 -49c0 -14.667 -1.5 -26.334 -4.5 -35.001s-7.5 -15.5 -13.5 -20.5s-13.5 -8.33301 -22.5 -10s-19.5 -2.5 -31.5 -2.5z" />
    <glyph glyph-name="uni06440671" unicode="&#xfedf;&#xfb51;" horiz-adv-x="1233" 
d="M1093 1462v-1462h-1023v129h396v1006h129v-1006h369v1333h129zM659 1365v31c0 12 -1 23.333 -3 34s-6 20.167 -12 28.5s-14 15 -24 20s-23 7.5 -39 7.5c-14 0 -27.833 -3.33301 -41.5 -10s-26.5 -15.5 -38.5 -26.5s-23.167 -23.833 -33.5 -38.5s-18.833 -30 -25.5 -46
h217zM440 1461c44 58.667 94.667 87.999 152 87.999c40 0 70.667 -12.167 92 -36.5s32 -59.166 32 -104.499v-106h-411v63h74v164h61v-68z" />
    <glyph glyph-name="uni06440671.fina" unicode="&#xfee0;&#xfb51;" horiz-adv-x="1277" 
d="M1277 0c-24 0 -46.8311 2.00293 -68.498 6.00293s-41.834 10.833 -60.501 20.5s-35.167 22.167 -49.5 37.5s-26.5 34.333 -36.5 57c-16.667 -24.667 -34.5 -44.834 -53.5 -60.501s-40.5 -28 -64.5 -37s-51 -15.167 -81 -18.5s-64 -5 -102 -5h-691v129h396v1006h129v-1006
h147c28.667 0 56.334 1 83.001 3s50.334 8.5 71.001 19.5s37.167 27.667 49.5 50s18.5 54.166 18.5 95.499v1165h129v-1071c0 -40.667 3.16699 -77.167 9.5 -109.5s16.666 -59.833 30.999 -82.5s33.166 -40 56.499 -52s52.333 -18 87 -18c23.333 0 41.166 -4 53.499 -12
s18.5 -24.333 18.5 -49c0 -14.667 -1.5 -26.334 -4.5 -35.001s-7.5 -15.5 -13.5 -20.5s-13.5 -8.33301 -22.5 -10s-19.5 -2.5 -31.5 -2.5zM659.002 1365v31c0 12 -1 23.333 -3 34s-6 20.167 -12 28.5s-14 15 -24 20s-23 7.5 -39 7.5c-14 0 -27.833 -3.33301 -41.5 -10
s-26.5 -15.5 -38.5 -26.5s-23.167 -23.833 -33.5 -38.5s-18.833 -30 -25.5 -46h217zM440.002 1461c44 58.667 94.667 87.999 152 87.999c40 0 70.667 -12.167 92 -36.5s32 -59.166 32 -104.499v-106h-411v63h74v164h61v-68z" />
    <glyph glyph-name="uni0621" unicode="&#x621;" horiz-adv-x="733" arabic-form="isolated" 
d="M668 0h-587.995v113h182c-64 64 -96 135.667 -96 215c0 49.333 8.16699 92.666 24.5 129.999s38.166 68.5 65.499 93.5s59.166 43.833 95.499 56.5s74.166 19 113.499 19c23.333 0 46.833 -1.66699 70.5 -5s43.167 -6.66602 58.5 -9.99902v-118
c-18.667 5.33301 -37.334 9 -56.001 11s-37.667 3 -57 3c-40.667 0 -74.334 -5.66699 -101.001 -17s-48 -26 -64 -44s-27.333 -38 -34 -60s-10 -43.667 -10 -65c0 -70 23.667 -122.333 71 -157s112 -52 194 -52h131v-113z" />
    <glyph glyph-name="uni0622" unicode="&#x622;" horiz-adv-x="409" arabic-form="isolated" 
d="M269 1462v-1462h-129v1462h129zM-155 1694c28 23.333 55.834 39.334 83.501 48.001s53.167 13 76.5 13c12.667 0 27 -1.5 43 -4.5s32.5 -7.16699 49.5 -12.5s34.333 -11.5 52 -18.5s34.5 -14.167 50.5 -21.5c36 -16.667 70.167 -30.5 102.5 -41.5
s60.166 -16.5 83.499 -16.5c18 0 34 2.5 48 7.5s26.333 11.667 37 20s20 17.666 28 27.999s14.667 20.5 20 30.5l51 -24c-19.333 -44 -43.833 -79.667 -73.5 -107s-66.5 -41 -110.5 -41c-36 0 -70.833 6.16699 -104.5 18.5s-66.5 26.166 -98.5 41.499
c-34 15.333 -67.667 29 -101 41s-64.333 18 -93 18c-23.333 0 -43.833 -2.16699 -61.5 -6.5s-36.167 -13.166 -55.5 -26.499z" />
    <glyph glyph-name="uni0623" unicode="&#x623;" horiz-adv-x="409" arabic-form="isolated" 
d="M269 1462v-1462h-129v1462h129zM376 1564h-350v76h98c-32.667 36.667 -49 77.667 -49 123c0 28.667 4.83301 54.167 14.5 76.5s22.834 41 39.501 56s35.834 26.333 57.501 34s44.5 11.5 68.5 11.5c15.333 0 30.166 -0.5 44.499 -1.5s26.166 -3.16699 35.499 -6.5v-82
c-15.333 4 -28.333 6.66699 -39 8s-21.667 2 -33 2c-22.667 0 -41.5 -3 -56.5 -9s-27 -13.833 -36 -23.5s-15.333 -20.667 -19 -33s-5.5 -24.5 -5.5 -36.5c0 -37.333 13 -66.5 39 -87.5s63 -31.5 111 -31.5h80v-76z" />
    <glyph glyph-name="uni0624" unicode="&#x624;" horiz-adv-x="1023" arabic-form="isolated" 
d="M489 0c-44.667 0 -88.999 6.16504 -132.999 18.498s-83.5 33 -118.5 62s-63.333 67.333 -85 115s-32.5 106.834 -32.5 177.501c0 56 8.83301 110.167 26.5 162.5s43.5 98.833 77.5 139.5s75.833 73.167 125.5 97.5s106.834 36.5 171.501 36.5
c71.333 0 131.166 -14.167 179.499 -42.5s87.333 -66.333 117 -114s50.834 -103 63.501 -166s19 -128.833 19 -197.5v-236c0 -98 -13.333 -181 -40 -249s-64.5 -123.167 -113.5 -165.5s-108.167 -73.166 -177.5 -92.499s-146.666 -29 -231.999 -29h-96v132h83
c61.333 0 119.166 5.66699 173.499 17s101.666 30.5 141.999 57.5s72.333 62.833 96 107.5s35.5 100.334 35.5 167.001v80c-38 -24.667 -79.333 -43.834 -124 -57.501s-97.334 -20.5 -158.001 -20.5zM245.001 390.998c0 -49.333 7.00195 -90.666 21.002 -123.999
s32.833 -60.166 56.5 -80.499s51.334 -35 83.001 -44s65.5 -13.5 101.5 -13.5c58.667 0 110.167 9 154.5 27s80.833 38.667 109.5 62v79c0 53.333 -4.5 103.666 -13.5 150.999s-23.833 88.666 -44.5 123.999s-47.334 63.333 -80.001 84s-73 31 -121 31
s-88.833 -9 -122.5 -27s-61.334 -41.333 -83.001 -70s-37.334 -60.5 -47.001 -95.5s-14.5 -69.5 -14.5 -103.5zM655.003 1021h-350v76h98c-32.667 36.667 -49 77.667 -49 123c0 28.667 4.83301 54.167 14.5 76.5s22.834 41 39.501 56s35.834 26.333 57.501 34
s44.5 11.5 68.5 11.5c15.333 0 30.166 -0.5 44.499 -1.5s26.166 -3.16699 35.499 -6.5v-82c-15.333 4 -28.333 6.66699 -39 8s-21.667 2 -33 2c-22.667 0 -41.5 -3 -56.5 -9s-27 -13.833 -36 -23.5s-15.333 -20.667 -19 -33s-5.5 -24.5 -5.5 -36.5
c0 -37.333 13 -66.5 39 -87.5s63 -31.5 111 -31.5h80v-76z" />
    <glyph glyph-name="uni0625" unicode="&#x625;" horiz-adv-x="409" arabic-form="isolated" 
d="M269 1462v-1462h-129v1462h129zM372 -555h-350v76h98c-32.667 36.667 -49 77.667 -49 123c0 28.667 4.83301 54 14.5 76s22.834 40.5 39.501 55.5s35.834 26.5 57.501 34.5s44.5 12 68.5 12c15.333 0 30.166 -0.5 44.499 -1.5s26.166 -3.16699 35.499 -6.5v-82
c-15.333 4 -28.333 6.66699 -39 8s-21.667 2 -33 2c-22.667 0 -41.5 -3 -56.5 -9s-27 -13.833 -36 -23.5s-15.333 -20.667 -19 -33s-5.5 -24.5 -5.5 -36.5c0 -37.333 13 -66.5 39 -87.5s63 -31.5 111 -31.5h80v-76z" />
    <glyph glyph-name="uni0626" unicode="&#x626;" horiz-adv-x="1589" arabic-form="isolated" 
d="M179 56c0 -59.333 9.16602 -113.667 27.499 -163s49.333 -91.833 93 -127.5s101.667 -63.5 174 -83.5s162.5 -30 270.5 -30c76.667 0 150.334 4.33301 221.001 13s133 22.167 187 40.5s97.167 42.166 129.5 71.499s48.5 65 48.5 107
c0 14.667 -2.83301 28.334 -8.5 41.001s-15 25.334 -28 38.001s-30.5 25.834 -52.5 39.501s-49 28.5 -81 44.5c-39.333 19.333 -76.166 40 -110.499 62s-64.5 46.5 -90.5 73.5s-46.5 57.167 -61.5 90.5s-22.5 71.333 -22.5 114c0 51.333 9.33301 102.166 28 152.499
s46.667 95.5 84 135.5s84 72.333 140 97s121.667 37 197 37c41.333 0 77 -3.33301 107 -10s52.667 -12.667 68 -18v-136c-15.333 3.33301 -31.166 6.5 -47.499 9.5s-32.5 5.5 -48.5 7.5s-31.167 3.5 -45.5 4.5s-26.833 1.5 -37.5 1.5c-52 0 -97.5 -7.16699 -136.5 -21.5
s-71.5 -33.166 -97.5 -56.499s-45.5 -50.333 -58.5 -81s-19.5 -62 -19.5 -94c0 -30.667 5.66699 -57.5 17 -80.5s27 -44 47 -63s43.167 -36.5 69.5 -52.5l84.5 -49l103 -60.5c30 -18.333 55.333 -36.833 76 -55.5s36.167 -38.334 46.5 -59.001s15.5 -44 15.5 -70
c0 -60 -13.167 -115 -39.5 -165s-68.333 -93 -126 -129s-132.334 -64 -224.001 -84s-202.834 -30 -333.501 -30c-130 0 -239.333 12.667 -328 38s-160 60.166 -214 104.499s-92.833 97 -116.5 158s-35.5 127.5 -35.5 199.5v297h129v-258zM381.999 512.999h-350v76h98
c-32.667 36.667 -49 77.667 -49 123c0 28.667 4.83301 54.167 14.5 76.5s22.834 41 39.501 56s35.834 26.333 57.501 34s44.5 11.5 68.5 11.5c15.333 0 30.166 -0.5 44.499 -1.5s26.166 -3.16699 35.499 -6.5v-82c-15.333 4 -28.333 6.66699 -39 8s-21.667 2 -33 2
c-22.667 0 -41.5 -3 -56.5 -9s-27 -13.833 -36 -23.5s-15.333 -20.667 -19 -33s-5.5 -24.5 -5.5 -36.5c0 -37.333 13 -66.5 39 -87.5s63 -31.5 111 -31.5h80v-76z" />
    <glyph glyph-name="uni0627" unicode="&#x627;" horiz-adv-x="409" arabic-form="isolated" 
d="M269 1462v-1462h-129v1462h129z" />
    <glyph glyph-name="uni0628" unicode="&#x628;" horiz-adv-x="1873" arabic-form="isolated" 
d="M460 0c-62.667 0 -119.167 4.50195 -169.5 13.502s-93.333 24.667 -129 47s-63.167 52.166 -82.5 89.499s-29 84.333 -29 141v307h129v-244c0 -49.333 5.66699 -88.833 17 -118.5s31 -52.334 59 -68.001s65.833 -26 113.5 -31s107.5 -7.5 179.5 -7.5h1056v649h129v-778
h-1273zM814 -278.998c0 25.333 8.83301 46.833 26.5 64.5s38.834 26.5 63.501 26.5s45.834 -8.83301 63.501 -26.5s26.5 -39.167 26.5 -64.5c0 -24.667 -8.83301 -45.834 -26.5 -63.501s-38.834 -26.5 -63.501 -26.5s-45.834 8.83301 -63.501 26.5
s-26.5 38.834 -26.5 63.501z" />
    <glyph glyph-name="uni0629" unicode="&#x629;" horiz-adv-x="902" arabic-form="isolated" 
d="M411 680c-39.333 0 -74.668 -8.66797 -106.001 -26.001s-57.833 -40.5 -79.5 -69.5s-38.334 -63 -50.001 -102s-17.5 -79.833 -17.5 -122.5c0 -43.333 6.5 -80.5 19.5 -111.5s30.667 -56.167 53 -75.5s48.833 -33.5 79.5 -42.5s63.667 -13.5 99 -13.5
c32.667 0 64.334 3.66699 95.001 11s57.834 19.833 81.501 37.5s42.667 41.667 57 72s21.5 68.5 21.5 114.5c0 53.333 -6.5 100.333 -19.5 141s-31 74.834 -54 102.501s-49.833 48.667 -80.5 63s-63.667 21.5 -99 21.5zM29.998 343.999c0 60.667 8.82812 119 26.4951 175
s43.334 105.5 77.001 148.5s74.334 77.333 122.001 103s101.5 38.5 161.5 38.5c54 0 103.833 -10.667 149.5 -32s85.334 -52 119.001 -92s59.834 -88.833 78.501 -146.5s28 -122.5 28 -194.5c0 -47.333 -7.16699 -92.333 -21.5 -135s-37.166 -80.5 -68.499 -113.5
s-71.5 -59.167 -120.5 -78.5s-107.833 -29 -176.5 -29c-55.333 0 -106 7.33301 -152 22s-85.5 36.667 -118.5 66s-58.667 66.333 -77 111s-27.5 97 -27.5 157zM167.993 1161c0 24.667 8.66699 45.5 26 62.5s38.666 25.5 63.999 25.5c24.667 0 45.834 -8.5 63.501 -25.5
s26.5 -37.833 26.5 -62.5s-8.83301 -45.834 -26.5 -63.501s-38.834 -26.5 -63.501 -26.5c-25.333 0 -46.666 8.83301 -63.999 26.5s-26 38.834 -26 63.501zM445.993 1161c0 24.667 8.83301 45.5 26.5 62.5s38.834 25.5 63.501 25.5s45.834 -8.5 63.501 -25.5
s26.5 -37.833 26.5 -62.5s-8.83301 -45.834 -26.5 -63.501s-38.834 -26.5 -63.501 -26.5s-45.834 8.83301 -63.501 26.5s-26.5 38.834 -26.5 63.501z" />
    <glyph glyph-name="uni062A" unicode="&#x62a;" horiz-adv-x="1873" arabic-form="isolated" 
d="M460 0c-62.667 0 -119.167 4.50195 -169.5 13.502s-93.333 24.667 -129 47s-63.167 52.166 -82.5 89.499s-29 84.333 -29 141v307h129v-244c0 -49.333 5.66699 -88.833 17 -118.5s31 -52.334 59 -68.001s65.833 -26 113.5 -31s107.5 -7.5 179.5 -7.5h1056v649h129v-778
h-1273zM671 1039c0 24.667 8.66699 45.5 26 62.5s38.666 25.5 63.999 25.5c24.667 0 45.834 -8.5 63.501 -25.5s26.5 -37.833 26.5 -62.5s-8.83301 -45.834 -26.5 -63.501s-38.834 -26.5 -63.501 -26.5c-25.333 0 -46.666 8.83301 -63.999 26.5s-26 38.834 -26 63.501z
M949 1039c0 24.667 8.83301 45.5 26.5 62.5s38.834 25.5 63.501 25.5s45.834 -8.5 63.501 -25.5s26.5 -37.833 26.5 -62.5s-8.83301 -45.834 -26.5 -63.501s-38.834 -26.5 -63.501 -26.5s-45.834 8.83301 -63.501 26.5s-26.5 38.834 -26.5 63.501z" />
    <glyph glyph-name="uni062B" unicode="&#x62b;" horiz-adv-x="1873" arabic-form="isolated" 
d="M460 0c-62.667 0 -119.167 4.50195 -169.5 13.502s-93.333 24.667 -129 47s-63.167 52.166 -82.5 89.499s-29 84.333 -29 141v307h129v-244c0 -49.333 5.66699 -88.833 17 -118.5s31 -52.334 59 -68.001s65.833 -26 113.5 -31s107.5 -7.5 179.5 -7.5h1056v649h129v-778
h-1273zM657 1039c0 24.667 8.66699 45.5 26 62.5s38.666 25.5 63.999 25.5c24.667 0 45.834 -8.5 63.501 -25.5s26.5 -37.833 26.5 -62.5s-8.83301 -45.834 -26.5 -63.501s-38.834 -26.5 -63.501 -26.5c-25.333 0 -46.666 8.83301 -63.999 26.5s-26 38.834 -26 63.501z
M935 1039c0 24.667 8.83301 45.5 26.5 62.5s38.834 25.5 63.501 25.5s45.834 -8.5 63.501 -25.5s26.5 -37.833 26.5 -62.5s-8.83301 -45.834 -26.5 -63.501s-38.834 -26.5 -63.501 -26.5s-45.834 8.83301 -63.501 26.5s-26.5 38.834 -26.5 63.501zM800 1297
c0 24.667 8.83301 45.499 26.5 62.499s38.834 25.5 63.501 25.5c12 0 23.667 -2.33301 35 -7s21.166 -11 29.499 -19s15 -17.333 20 -28s7.5 -22 7.5 -34s-2.5 -23.5 -7.5 -34.5s-11.667 -20.667 -20 -29s-18.166 -14.833 -29.499 -19.5s-23 -7 -35 -7
c-24.667 0 -45.834 8.83301 -63.501 26.5s-26.5 38.834 -26.5 63.501z" />
    <glyph glyph-name="uni062C" unicode="&#x62c;" horiz-adv-x="1316" arabic-form="isolated" 
d="M1206 0h-611.002c-31.333 0 -63.833 -1.33301 -97.5 -4s-66.667 -8 -99 -16s-63 -19.667 -92 -35s-54.5 -35.333 -76.5 -60s-39.333 -55.167 -52 -91.5s-19 -79.833 -19 -130.5c0 -61.333 12.667 -114.166 38 -158.499s59.5 -81 102.5 -110s92.833 -50.5 149.5 -64.5
s116.667 -21 180 -21c50 0 105.833 6.16699 167.5 18.5s129.167 35.5 202.5 69.5l50 -107c-38 -22.667 -78 -41.167 -120 -55.5s-82.167 -25.5 -120.5 -33.5s-73 -13.5 -104 -16.5s-54.833 -4.5 -71.5 -4.5c-88.667 0 -169.834 10 -243.501 30s-137.167 50 -190.5 90
s-94.833 89.667 -124.5 149s-44.5 128.666 -44.5 207.999c0 66.667 7.83301 124.5 23.5 173.5s37 91 64 126s58.833 63.667 95.5 86s76 39.833 118 52.5s85.667 21.5 131 26.5s90.333 7.5 135 7.5h480c0 100 -11.667 185 -35 255s-56 127 -98 171s-92.333 76 -151 96
s-123.667 30 -195 30c-37.333 0 -75.5 -2.66699 -114.5 -8s-74.5 -11.666 -106.5 -18.999v116c28.667 8 64.334 16.5 107.001 25.5s88.334 13.5 137.001 13.5c104.667 0 194.167 -18 268.5 -54s134.833 -84.833 181.5 -146.5s80.834 -133.334 102.501 -215.001
s32.5 -168.5 32.5 -260.5v-133zM553.998 -368c0 25.333 8.83301 46.833 26.5 64.5s38.834 26.5 63.501 26.5s45.834 -8.83301 63.501 -26.5s26.5 -39.167 26.5 -64.5c0 -24.667 -8.83301 -45.834 -26.5 -63.501s-38.834 -26.5 -63.501 -26.5s-45.834 8.83301 -63.501 26.5
s-26.5 38.834 -26.5 63.501z" />
    <glyph glyph-name="uni062D" unicode="&#x62d;" horiz-adv-x="1316" arabic-form="isolated" 
d="M1206 0h-611.002c-31.333 0 -63.833 -1.33301 -97.5 -4s-66.667 -8 -99 -16s-63 -19.667 -92 -35s-54.5 -35.333 -76.5 -60s-39.333 -55.167 -52 -91.5s-19 -79.833 -19 -130.5c0 -61.333 12.667 -114.166 38 -158.499s59.5 -81 102.5 -110s92.833 -50.5 149.5 -64.5
s116.667 -21 180 -21c50 0 105.833 6.16699 167.5 18.5s129.167 35.5 202.5 69.5l50 -107c-38 -22.667 -78 -41.167 -120 -55.5s-82.167 -25.5 -120.5 -33.5s-73 -13.5 -104 -16.5s-54.833 -4.5 -71.5 -4.5c-88.667 0 -169.834 10 -243.501 30s-137.167 50 -190.5 90
s-94.833 89.667 -124.5 149s-44.5 128.666 -44.5 207.999c0 66.667 7.83301 124.5 23.5 173.5s37 91 64 126s58.833 63.667 95.5 86s76 39.833 118 52.5s85.667 21.5 131 26.5s90.333 7.5 135 7.5h480c0 100 -11.667 185 -35 255s-56 127 -98 171s-92.333 76 -151 96
s-123.667 30 -195 30c-37.333 0 -75.5 -2.66699 -114.5 -8s-74.5 -11.666 -106.5 -18.999v116c28.667 8 64.334 16.5 107.001 25.5s88.334 13.5 137.001 13.5c104.667 0 194.167 -18 268.5 -54s134.833 -84.833 181.5 -146.5s80.834 -133.334 102.501 -215.001
s32.5 -168.5 32.5 -260.5v-133z" />
    <glyph glyph-name="uni062E" unicode="&#x62e;" horiz-adv-x="1316" arabic-form="isolated" 
d="M1206 0h-611.002c-31.333 0 -63.833 -1.33301 -97.5 -4s-66.667 -8 -99 -16s-63 -19.667 -92 -35s-54.5 -35.333 -76.5 -60s-39.333 -55.167 -52 -91.5s-19 -79.833 -19 -130.5c0 -61.333 12.667 -114.166 38 -158.499s59.5 -81 102.5 -110s92.833 -50.5 149.5 -64.5
s116.667 -21 180 -21c50 0 105.833 6.16699 167.5 18.5s129.167 35.5 202.5 69.5l50 -107c-38 -22.667 -78 -41.167 -120 -55.5s-82.167 -25.5 -120.5 -33.5s-73 -13.5 -104 -16.5s-54.833 -4.5 -71.5 -4.5c-88.667 0 -169.834 10 -243.501 30s-137.167 50 -190.5 90
s-94.833 89.667 -124.5 149s-44.5 128.666 -44.5 207.999c0 66.667 7.83301 124.5 23.5 173.5s37 91 64 126s58.833 63.667 95.5 86s76 39.833 118 52.5s85.667 21.5 131 26.5s90.333 7.5 135 7.5h480c0 100 -11.667 185 -35 255s-56 127 -98 171s-92.333 76 -151 96
s-123.667 30 -195 30c-37.333 0 -75.5 -2.66699 -114.5 -8s-74.5 -11.666 -106.5 -18.999v116c28.667 8 64.334 16.5 107.001 25.5s88.334 13.5 137.001 13.5c104.667 0 194.167 -18 268.5 -54s134.833 -84.833 181.5 -146.5s80.834 -133.334 102.501 -215.001
s32.5 -168.5 32.5 -260.5v-133zM539.998 1161c0 24.667 8.5 45.499 25.5 62.499s37.833 25.5 62.5 25.5c12 0 23.667 -2.33301 35 -7s21.166 -11 29.499 -19s15 -17.333 20 -28s7.5 -22 7.5 -34s-2.5 -23.5 -7.5 -34.5s-11.667 -20.667 -20 -29
s-18.166 -14.833 -29.499 -19.5s-23 -7 -35 -7c-24.667 0 -45.5 8.83301 -62.5 26.5s-25.5 38.834 -25.5 63.501z" />
    <glyph glyph-name="uni062F" unicode="&#x62f;" horiz-adv-x="911" arabic-form="isolated" 
d="M801 211c0 -30 -5.5 -57.9971 -16.5 -83.9971s-27.333 -48.333 -49 -67s-48.834 -33.334 -81.501 -44.001s-70.334 -16 -113.001 -16h-480v129h474c28.667 0 51.834 2.83301 69.501 8.5s31.334 12.667 41.001 21s16.167 17.5 19.5 27.5s5 19.333 5 28
c0 17.333 -2.83301 34.666 -8.5 51.999s-17 40.666 -34 69.999s-41.167 67.5 -72.5 114.5l-125 184.5l-70 104l117 76l123 -194l58.5 -91.5c23 -35 45 -71.167 66 -108.5s39 -74.333 54 -111s22.5 -69.667 22.5 -99z" />
    <glyph glyph-name="uni0630" unicode="&#x630;" horiz-adv-x="911" arabic-form="isolated" 
d="M801 211c0 -30 -5.5 -57.9971 -16.5 -83.9971s-27.333 -48.333 -49 -67s-48.834 -33.334 -81.501 -44.001s-70.334 -16 -113.001 -16h-480v129h474c28.667 0 51.834 2.83301 69.501 8.5s31.334 12.667 41.001 21s16.167 17.5 19.5 27.5s5 19.333 5 28
c0 17.333 -2.83301 34.666 -8.5 51.999s-17 40.666 -34 69.999s-41.167 67.5 -72.5 114.5l-125 184.5l-70 104l117 76l123 -194l58.5 -91.5c23 -35 45 -71.167 66 -108.5s39 -74.333 54 -111s22.5 -69.667 22.5 -99zM330 1161c0 24.667 8.5 45.499 25.5 62.499
s37.833 25.5 62.5 25.5c12 0 23.667 -2.33301 35 -7s21.166 -11 29.499 -19s15 -17.333 20 -28s7.5 -22 7.5 -34s-2.5 -23.5 -7.5 -34.5s-11.667 -20.667 -20 -29s-18.166 -14.833 -29.499 -19.5s-23 -7 -35 -7c-24.667 0 -45.5 8.83301 -62.5 26.5
s-25.5 38.834 -25.5 63.501z" />
    <glyph glyph-name="uni0631" unicode="&#x631;" horiz-adv-x="600" arabic-form="isolated" 
d="M331 778h129.001v-716c0 -95.333 -5.5 -177.333 -16.5 -246s-30.333 -125.167 -58 -169.5s-64.834 -77 -111.501 -98s-105.667 -31.5 -177 -31.5h-57v132h57c53.333 0 95.5 9.16699 126.5 27.5s54.5 45.833 70.5 82.5s26.167 82.167 30.5 136.5s6.5 117.5 6.5 189.5v693z
" />
    <glyph glyph-name="uni0632" unicode="&#x632;" horiz-adv-x="600" arabic-form="isolated" 
d="M331 778h129.001v-716c0 -95.333 -5.5 -177.333 -16.5 -246s-30.333 -125.167 -58 -169.5s-64.834 -77 -111.501 -98s-105.667 -31.5 -177 -31.5h-57v132h57c53.333 0 95.5 9.16699 126.5 27.5s54.5 45.833 70.5 82.5s26.167 82.167 30.5 136.5s6.5 117.5 6.5 189.5v693z
M302.001 1161c0 24.667 8.5 45.499 25.5 62.499s37.833 25.5 62.5 25.5c12 0 23.667 -2.33301 35 -7s21.166 -11 29.499 -19s15 -17.333 20 -28s7.5 -22 7.5 -34s-2.5 -23.5 -7.5 -34.5s-11.667 -20.667 -20 -29s-18.166 -14.833 -29.499 -19.5s-23 -7 -35 -7
c-24.667 0 -45.5 8.83301 -62.5 26.5s-25.5 38.834 -25.5 63.501z" />
    <glyph glyph-name="uni0633" unicode="&#x633;" horiz-adv-x="2447" arabic-form="isolated" 
d="M1183 1c0 -89.333 -11.502 -164.832 -34.502 -226.499s-57.833 -111.5 -104.5 -149.5s-105.667 -65.5 -177 -82.5s-155.333 -25.5 -252 -25.5c-185.333 0 -325.833 38 -421.5 114s-143.5 194 -143.5 354v307h129v-273c0 -68.667 9.33301 -126.667 28 -174
s46.5 -85.833 83.5 -115.5s82.833 -51 137.5 -64s118.334 -19.5 191.001 -19.5c76 0 141.5 5.66699 196.5 17s100.167 30.666 135.5 57.999s61.333 63.833 78 109.5s25 103.167 25 172.5v668h129v-282c0 -39.333 2.33301 -75 7 -107s15.334 -59.333 32.001 -82
s41 -40.167 73 -52.5s75 -18.5 129 -18.5c36.667 0 68.334 1.66699 95.001 5s48.667 11.166 66 23.499s30.333 30.333 39 54s13 56.167 13 97.5v361h129v-281c0 -39.333 2.83301 -75 8.5 -107s16.167 -59.333 31.5 -82s36.5 -40.167 63.5 -52.5s62.167 -18.5 105.5 -18.5
h203v649h129v-778h-332c-50 0 -95.333 8.83301 -136 26.5s-75 49.167 -103 94.5c-20 -28.667 -40.667 -51.167 -62 -67.5s-44 -28.5 -68 -36.5s-49.833 -12.833 -77.5 -14.5s-57.5 -2.5 -89.5 -2.5c-30.667 0 -58.334 1.33301 -83.001 4s-47.167 7.33398 -67.5 14.001
s-39 16 -56 28s-33.5 27 -49.5 45v-90z" />
    <glyph glyph-name="uni0634" unicode="&#x634;" horiz-adv-x="2447" arabic-form="isolated" 
d="M1183 1c0 -89.333 -11.502 -164.832 -34.502 -226.499s-57.833 -111.5 -104.5 -149.5s-105.667 -65.5 -177 -82.5s-155.333 -25.5 -252 -25.5c-185.333 0 -325.833 38 -421.5 114s-143.5 194 -143.5 354v307h129v-273c0 -68.667 9.33301 -126.667 28 -174
s46.5 -85.833 83.5 -115.5s82.833 -51 137.5 -64s118.334 -19.5 191.001 -19.5c76 0 141.5 5.66699 196.5 17s100.167 30.666 135.5 57.999s61.333 63.833 78 109.5s25 103.167 25 172.5v668h129v-282c0 -39.333 2.33301 -75 7 -107s15.334 -59.333 32.001 -82
s41 -40.167 73 -52.5s75 -18.5 129 -18.5c36.667 0 68.334 1.66699 95.001 5s48.667 11.166 66 23.499s30.333 30.333 39 54s13 56.167 13 97.5v361h129v-281c0 -39.333 2.83301 -75 8.5 -107s16.167 -59.333 31.5 -82s36.5 -40.167 63.5 -52.5s62.167 -18.5 105.5 -18.5
h203v649h129v-778h-332c-50 0 -95.333 8.83301 -136 26.5s-75 49.167 -103 94.5c-20 -28.667 -40.667 -51.167 -62 -67.5s-44 -28.5 -68 -36.5s-49.833 -12.833 -77.5 -14.5s-57.5 -2.5 -89.5 -2.5c-30.667 0 -58.334 1.33301 -83.001 4s-47.167 7.33398 -67.5 14.001
s-39 16 -56 28s-33.5 27 -49.5 45v-90zM1470 1161c0 24.667 8.66699 45.5 26 62.5s38.666 25.5 63.999 25.5c24.667 0 45.834 -8.5 63.501 -25.5s26.5 -37.833 26.5 -62.5s-8.83301 -45.834 -26.5 -63.501s-38.834 -26.5 -63.501 -26.5
c-25.333 0 -46.666 8.83301 -63.999 26.5s-26 38.834 -26 63.501zM1748 1161c0 24.667 8.83301 45.5 26.5 62.5s38.834 25.5 63.501 25.5s45.834 -8.5 63.501 -25.5s26.5 -37.833 26.5 -62.5s-8.83301 -45.834 -26.5 -63.501s-38.834 -26.5 -63.501 -26.5
s-45.834 8.83301 -63.501 26.5s-26.5 38.834 -26.5 63.501zM1613 1419c0 24.667 8.83301 45.499 26.5 62.499s38.834 25.5 63.501 25.5c12 0 23.667 -2.33301 35 -7s21.166 -11 29.499 -19s15 -17.333 20 -28s7.5 -22 7.5 -34s-2.5 -23.5 -7.5 -34.5
s-11.667 -20.667 -20 -29s-18.166 -14.833 -29.499 -19.5s-23 -7 -35 -7c-24.667 0 -45.834 8.83301 -63.501 26.5s-26.5 38.834 -26.5 63.501z" />
    <glyph glyph-name="uni0635" unicode="&#x635;" horiz-adv-x="2782" arabic-form="isolated" 
d="M2531 129l0.000976562 170c0 55.333 -6 106.5 -18 153.5s-31.167 87.5 -57.5 121.5s-60.5 60.667 -102.5 80s-93.333 29 -154 29c-47.333 0 -92.833 -7.66699 -136.5 -23s-85.334 -36.333 -125.001 -63s-76.667 -57.834 -111 -93.501s-65.833 -74 -94.5 -115
s-54.167 -83.667 -76.5 -128s-40.5 -88.166 -54.5 -131.499h930zM1183 1c0 -89.333 -11.502 -164.832 -34.502 -226.499s-57.833 -111.5 -104.5 -149.5s-105.667 -65.5 -177 -82.5s-155.333 -25.5 -252 -25.5c-185.333 0 -325.833 38 -421.5 114s-143.5 194 -143.5 354v307
h129v-273c0 -68.667 9.33301 -126.667 28 -174s46.5 -85.833 83.5 -115.5s82.833 -51 137.5 -64s118.334 -19.5 191.001 -19.5c76 0 141.5 5.66699 196.5 17s100.167 30.666 135.5 57.999s61.333 63.833 78 109.5s25 103.167 25 172.5v668h129v-280
c0 -39.333 2.66699 -75.166 8 -107.499s17.333 -60 36 -83s45.667 -40.667 81 -53s82.666 -18.5 141.999 -18.5c20.667 54 45.334 108.5 74.001 163.5s61 107.667 97 158s75.833 97.333 119.5 141s90.834 81.667 141.501 114s104.834 57.666 162.501 75.999
s118.834 27.5 183.5 27.5c68 0 128.667 -10.5 182 -31.5s98.5 -51.5 135.5 -91.5s65.333 -89.167 85 -147.5s29.5 -124.5 29.5 -198.5v-340h-1175c-41.333 0 -77.833 1 -109.5 3s-59.667 6.5 -84 13.5s-45.333 17.167 -63 30.5s-32.834 31 -45.501 53v-99z" />
    <glyph glyph-name="uni0636" unicode="&#x636;" horiz-adv-x="2782" arabic-form="isolated" 
d="M2531 129l0.000976562 170c0 55.333 -6 106.5 -18 153.5s-31.167 87.5 -57.5 121.5s-60.5 60.667 -102.5 80s-93.333 29 -154 29c-47.333 0 -92.833 -7.66699 -136.5 -23s-85.334 -36.333 -125.001 -63s-76.667 -57.834 -111 -93.501s-65.833 -74 -94.5 -115
s-54.167 -83.667 -76.5 -128s-40.5 -88.166 -54.5 -131.499h930zM1183 1c0 -89.333 -11.502 -164.832 -34.502 -226.499s-57.833 -111.5 -104.5 -149.5s-105.667 -65.5 -177 -82.5s-155.333 -25.5 -252 -25.5c-185.333 0 -325.833 38 -421.5 114s-143.5 194 -143.5 354v307
h129v-273c0 -68.667 9.33301 -126.667 28 -174s46.5 -85.833 83.5 -115.5s82.833 -51 137.5 -64s118.334 -19.5 191.001 -19.5c76 0 141.5 5.66699 196.5 17s100.167 30.666 135.5 57.999s61.333 63.833 78 109.5s25 103.167 25 172.5v668h129v-280
c0 -39.333 2.66699 -75.166 8 -107.499s17.333 -60 36 -83s45.667 -40.667 81 -53s82.666 -18.5 141.999 -18.5c20.667 54 45.334 108.5 74.001 163.5s61 107.667 97 158s75.833 97.333 119.5 141s90.834 81.667 141.501 114s104.834 57.666 162.501 75.999
s118.834 27.5 183.5 27.5c68 0 128.667 -10.5 182 -31.5s98.5 -51.5 135.5 -91.5s65.333 -89.167 85 -147.5s29.5 -124.5 29.5 -198.5v-340h-1175c-41.333 0 -77.833 1 -109.5 3s-59.667 6.5 -84 13.5s-45.333 17.167 -63 30.5s-32.834 31 -45.501 53v-99zM2056 1161
c0 24.667 8.49902 45.499 25.499 62.499s37.833 25.5 62.5 25.5c12 0 23.667 -2.33301 35 -7s21.166 -11 29.5 -19c8.33301 -8 15 -17.333 20 -28s7.5 -22 7.5 -34s-2.5 -23.5 -7.5 -34.5s-11.667 -20.667 -20 -29s-18.166 -14.833 -29.499 -19.5s-23 -7 -35 -7
c-24.667 0 -45.5 8.83301 -62.5 26.5s-25.5 38.834 -25.5 63.501z" />
    <glyph glyph-name="uni0637" unicode="&#x637;" horiz-adv-x="1592" arabic-form="isolated" 
d="M1341 129l0.000976562 169.999c0 52.667 -5.5 102.334 -16.5 149.001s-29.333 87.334 -55 122.001s-59.5 62.167 -101.5 82.5s-94.333 30.5 -157 30.5c-46.667 0 -91.667 -8 -135 -24s-84.5 -37.833 -123.5 -65.5s-75.333 -59.834 -109 -96.501s-64.667 -75.5 -93 -116.5
s-53.333 -83.167 -75 -126.5s-39.834 -85 -54.501 -125h920zM429.001 386.999c38.667 66.667 81.333 126.168 128 178.501s96.167 96.5 148.5 132.5s107.5 63.5 165.5 82.5s117.667 28.5 179 28.5c66 0 125 -10.833 177 -32.5s96 -52.834 132 -93.501s63.5 -90 82.5 -148
s28.5 -123 28.5 -195v-340h-1440v129h270v1333h129v-1075z" />
    <glyph glyph-name="uni0638" unicode="&#x638;" horiz-adv-x="1592" arabic-form="isolated" 
d="M1341 129l0.000976562 169.999c0 52.667 -5.5 102.334 -16.5 149.001s-29.333 87.334 -55 122.001s-59.5 62.167 -101.5 82.5s-94.333 30.5 -157 30.5c-46.667 0 -91.667 -8 -135 -24s-84.5 -37.833 -123.5 -65.5s-75.333 -59.834 -109 -96.501s-64.667 -75.5 -93 -116.5
s-53.333 -83.167 -75 -126.5s-39.834 -85 -54.501 -125h920zM429.001 386.999c38.667 66.667 81.333 126.168 128 178.501s96.167 96.5 148.5 132.5s107.5 63.5 165.5 82.5s117.667 28.5 179 28.5c66 0 125 -10.833 177 -32.5s96 -52.834 132 -93.501s63.5 -90 82.5 -148
s28.5 -123 28.5 -195v-340h-1440v129h270v1333h129v-1075zM952 1161c0 24.667 8.5 45.499 25.5 62.499s37.833 25.5 62.5 25.5c12 0 23.667 -2.33301 35 -7s21.166 -11 29.499 -19s15 -17.333 20 -28s7.5 -22 7.5 -34s-2.5 -23.5 -7.5 -34.5s-11.667 -20.667 -20 -29
s-18.166 -14.833 -29.499 -19.5s-23 -7 -35 -7c-24.667 0 -45.5 8.83301 -62.5 26.5s-25.5 38.834 -25.5 63.501z" />
    <glyph glyph-name="uni0639" unicode="&#x639;" horiz-adv-x="1122" arabic-form="isolated" 
d="M429 117c-17.333 16 -33.6709 34.501 -49.0039 55.501s-28.666 44 -39.999 69s-20.166 51.5 -26.499 79.5s-9.5 56.333 -9.5 85c0 71.333 13.5 132.5 40.5 183.5s61.833 92.667 104.5 125s90.334 56.166 143.001 71.499s105 23 157 23c38.667 0 75 -2.16699 109 -6.5
s59.667 -9.5 77 -15.5v-131c-25.333 6.66699 -51.5 12.167 -78.5 16.5s-60.833 6.5 -101.5 6.5c-48.667 0 -92.667 -6.66699 -132 -20s-72.833 -32 -100.5 -56s-49 -53 -64 -87s-22.5 -71.667 -22.5 -113c0 -36.667 6.16699 -71.667 18.5 -105s31 -62.5 56 -87.5
s56.333 -44.833 94 -59.5s81.834 -22 132.501 -22h315v-129h-457c-31.333 0 -63.833 -1.33301 -97.5 -4s-66.667 -8 -99 -16s-63 -19.667 -92 -35s-54.5 -35.333 -76.5 -60s-39.333 -55.167 -52 -91.5s-19 -79.833 -19 -130.5c0 -61.333 12.667 -114.166 38 -158.499
s59.5 -81 102.5 -110s92.833 -50.5 149.5 -64.5s116.667 -21 180 -21c50 0 105.833 6.16699 167.5 18.5s129.167 35.5 202.5 69.5l50 -107c-38 -22.667 -78 -41.167 -120 -55.5s-82.167 -25.5 -120.5 -33.5s-73 -13.5 -104 -16.5s-54.833 -4.5 -71.5 -4.5
c-88.667 0 -169.834 10 -243.501 30s-137.167 50 -190.5 90s-94.833 89.667 -124.5 149s-44.5 128.666 -44.5 207.999c0 78.667 10.833 145.5 32.5 200.5s50.834 100.333 87.501 136s79.167 63.167 127.5 82.5s98.833 33 151.5 41z" />
    <glyph glyph-name="uni063A" unicode="&#x63a;" horiz-adv-x="1122" arabic-form="isolated" 
d="M429 117c-17.333 16 -33.6709 34.501 -49.0039 55.501s-28.666 44 -39.999 69s-20.166 51.5 -26.499 79.5s-9.5 56.333 -9.5 85c0 71.333 13.5 132.5 40.5 183.5s61.833 92.667 104.5 125s90.334 56.166 143.001 71.499s105 23 157 23c38.667 0 75 -2.16699 109 -6.5
s59.667 -9.5 77 -15.5v-131c-25.333 6.66699 -51.5 12.167 -78.5 16.5s-60.833 6.5 -101.5 6.5c-48.667 0 -92.667 -6.66699 -132 -20s-72.833 -32 -100.5 -56s-49 -53 -64 -87s-22.5 -71.667 -22.5 -113c0 -36.667 6.16699 -71.667 18.5 -105s31 -62.5 56 -87.5
s56.333 -44.833 94 -59.5s81.834 -22 132.501 -22h315v-129h-457c-31.333 0 -63.833 -1.33301 -97.5 -4s-66.667 -8 -99 -16s-63 -19.667 -92 -35s-54.5 -35.333 -76.5 -60s-39.333 -55.167 -52 -91.5s-19 -79.833 -19 -130.5c0 -61.333 12.667 -114.166 38 -158.499
s59.5 -81 102.5 -110s92.833 -50.5 149.5 -64.5s116.667 -21 180 -21c50 0 105.833 6.16699 167.5 18.5s129.167 35.5 202.5 69.5l50 -107c-38 -22.667 -78 -41.167 -120 -55.5s-82.167 -25.5 -120.5 -33.5s-73 -13.5 -104 -16.5s-54.833 -4.5 -71.5 -4.5
c-88.667 0 -169.834 10 -243.501 30s-137.167 50 -190.5 90s-94.833 89.667 -124.5 149s-44.5 128.666 -44.5 207.999c0 78.667 10.833 145.5 32.5 200.5s50.834 100.333 87.501 136s79.167 63.167 127.5 82.5s98.833 33 151.5 41zM599.995 1158
c0 24.667 8.5 45.499 25.5 62.499s37.833 25.5 62.5 25.5c12 0 23.667 -2.33301 35 -7s21.166 -11 29.499 -19s15 -17.333 20 -28s7.5 -22 7.5 -34s-2.5 -23.5 -7.5 -34.5s-11.667 -20.667 -20 -29s-18.166 -14.833 -29.499 -19.5s-23 -7 -35 -7
c-24.667 0 -45.5 8.83301 -62.5 26.5s-25.5 38.834 -25.5 63.501z" />
    <glyph glyph-name="uni0641" unicode="&#x641;" horiz-adv-x="2142" arabic-form="isolated" 
d="M1372 398c0 -45.333 7.33301 -84.833 22 -118.5s35 -61.667 61 -84s56.5 -39 91.5 -50s73.167 -16.5 114.5 -16.5h230v240c0 36.667 -3.66699 73.5 -11 110.5s-20.5 70.333 -39.5 100s-44.667 53.834 -77 72.501s-73.833 28 -124.5 28c-41.333 0 -78.5 -7 -111.5 -21
s-61 -33.5 -84 -58.5s-40.667 -54.833 -53 -89.5s-18.5 -72.334 -18.5 -113.001zM460 0c-62.667 0 -119.167 4.5 -169.5 13.5s-93.333 24.667 -129 47s-63.167 52.166 -82.5 89.499s-29 84.333 -29 141v307h129v-244c0 -49.333 5.66699 -88.833 17 -118.5
s31 -52.334 59 -68.001s65.833 -26 113.5 -31s107.5 -7.5 179.5 -7.5h790c-14.667 14.667 -27.834 32 -39.501 52s-21.5 41.333 -29.5 64s-14.167 46.167 -18.5 70.5s-6.5 48.833 -6.5 73.5c0 54.667 9 107.334 27 158.001s44 95.5 78 134.5s75.5 70 124.5 93
s104.5 34.5 166.5 34.5c50.667 0 95.334 -6.16699 134.001 -18.5s72.167 -29.166 100.5 -50.499s51.833 -46.333 70.5 -75s33.5 -59 44.5 -91s18.833 -65.167 23.5 -99.5s7 -67.5 7 -99.5v-375h-1560zM1535 1161c0 24.667 8.5 45.499 25.5 62.499s37.833 25.5 62.5 25.5
c12 0 23.667 -2.33301 35 -7s21.166 -11 29.499 -19s15 -17.333 20 -28s7.5 -22 7.5 -34s-2.5 -23.5 -7.5 -34.5s-11.667 -20.667 -20 -29s-18.166 -14.833 -29.499 -19.5s-23 -7 -35 -7c-24.667 0 -45.5 8.83301 -62.5 26.5s-25.5 38.834 -25.5 63.501z" />
    <glyph glyph-name="uni0642" unicode="&#x642;" horiz-adv-x="1552" arabic-form="isolated" 
d="M1430 174c0 -100.667 -15.834 -186.337 -47.501 -257.004s-77 -128.167 -136 -172.5s-130.833 -76.666 -215.5 -96.999s-180.334 -30.5 -287.001 -30.5c-129.333 0 -238.166 11.833 -326.499 35.5s-159.666 57.834 -213.999 102.501s-93.5 99.334 -117.5 164.001
s-36 138 -36 220v254h129v-232c0 -74 11.167 -137.167 33.5 -189.5s56.833 -95 103.5 -128s105.334 -57.167 176.001 -72.5s154.667 -23 252 -23c67.333 0 134.166 5.33301 200.499 16s126 29.334 179 56.001s95.833 63 128.5 109s49 104.333 49 175v74
c-38 -24.667 -79.333 -43.834 -124 -57.501s-97.334 -20.5 -158.001 -20.5c-44.667 0 -89 6.16699 -133 18.5s-83.5 33 -118.5 62s-63.333 67.333 -85 115s-32.5 106.834 -32.5 177.501c0 56 8.83301 110.167 26.5 162.5s43.5 98.833 77.5 139.5s75.833 73.167 125.5 97.5
s106.834 36.5 171.501 36.5c71.333 0 131.166 -14.167 179.499 -42.5s87.333 -66.333 117 -114s50.834 -103 63.501 -166s19 -128.833 19 -197.5v-215zM774.999 490.997c0 -49.333 7.00195 -90.666 21.002 -123.999s32.833 -60.166 56.5 -80.499s51.334 -35 83.001 -44
s65.5 -13.5 101.5 -13.5c58.667 0 110.167 9 154.5 27s80.833 38.667 109.5 62v79c0 53.333 -4.5 103.666 -13.5 150.999s-23.833 88.666 -44.5 123.999s-47.334 63.333 -80.001 84s-73 31 -121 31s-88.833 -9 -122.5 -27s-61.334 -41.333 -83.001 -70
s-37.334 -60.5 -47.001 -95.5s-14.5 -69.5 -14.5 -103.5zM821.001 1263c0 24.667 8.66699 45.5 26 62.5s38.666 25.5 63.999 25.5c24.667 0 45.834 -8.5 63.501 -25.5s26.5 -37.833 26.5 -62.5s-8.83301 -45.834 -26.5 -63.501s-38.834 -26.5 -63.501 -26.5
c-25.333 0 -46.666 8.83301 -63.999 26.5s-26 38.834 -26 63.501zM1099 1263c0 24.667 8.83301 45.5 26.5 62.5s38.834 25.5 63.501 25.5s45.834 -8.5 63.501 -25.5s26.5 -37.833 26.5 -62.5s-8.83301 -45.834 -26.5 -63.501s-38.834 -26.5 -63.501 -26.5
s-45.834 8.83301 -63.501 26.5s-26.5 38.834 -26.5 63.501z" />
    <glyph glyph-name="uni0643" unicode="&#x643;" horiz-adv-x="1900" arabic-form="isolated" 
d="M1760 0l-1300 0.00195312c-62.667 0 -119.167 4.5 -169.5 13.5s-93.333 24.667 -129 47s-63.167 52.166 -82.5 89.499s-29 84.333 -29 141v307h129v-244c0 -49.333 5.66699 -88.833 17 -118.5s31 -52.334 59 -68.001s65.833 -26 113.5 -31s107.5 -7.5 179.5 -7.5h1083
v1333h129v-1462zM1115 621.002h-349.999v75h98c-32.667 36.667 -49 77.667 -49 123c0 28.667 4.83301 54.167 14.5 76.5s22.834 41 39.501 56s35.834 26.333 57.501 34s44.5 11.5 68.5 11.5c15.333 0 30.166 -0.5 44.499 -1.5s26.166 -3.16699 35.499 -6.5v-82
c-15.333 4 -28.333 6.83301 -39 8.5s-21.667 2.5 -33 2.5c-22.667 0 -41.334 -3 -56.001 -9s-26.5 -13.833 -35.5 -23.5s-15.333 -20.167 -19 -31.5s-5.5 -22.333 -5.5 -33c0 -17.333 3.33301 -33.5 10 -48.5s16.167 -28.167 28.5 -39.5s27.833 -20.333 46.5 -27
s40 -10 64 -10h80v-75z" />
    <glyph glyph-name="uni0644" unicode="&#x644;" horiz-adv-x="1323" arabic-form="isolated" 
d="M1183 0c0 -89.333 -11.501 -164.832 -34.501 -226.499s-57.833 -111.5 -104.5 -149.5s-105.667 -65.333 -177 -82s-155.333 -25 -252 -25c-185.333 0 -325.833 38 -421.5 114s-143.5 194 -143.5 354v307h129v-273c0 -68.667 9.33301 -126.667 28 -174
s46.5 -85.833 83.5 -115.5s82.833 -51 137.5 -64s118.334 -19.5 191.001 -19.5c76 0 141.5 5.66699 196.5 17s100.167 30.666 135.5 57.999s61.333 63.833 78 109.5s25 103.167 25 172.5v1459h129v-1462z" />
    <glyph glyph-name="uni0645" unicode="&#x645;" horiz-adv-x="1241" arabic-form="isolated" 
d="M327 259c9.33301 65.333 23.4971 122.831 42.4971 172.498s41.167 92.834 66.5 129.501s52.833 67.334 82.5 92.001s59.667 44.5 90 59.5s60 25.667 89 32s55.5 9.5 79.5 9.5c50 0 96.667 -9.83301 140 -29.5s80.833 -47.334 112.5 -83.001s56.5 -78.334 74.5 -128.001
s27 -104.167 27 -163.5c0 -55.333 -7 -105.833 -21 -151.5s-35 -84.667 -63 -117s-63.333 -57.5 -106 -75.5s-92.667 -27 -150 -27c-62 0 -127.167 10.333 -195.5 31s-139.5 58.334 -213.5 113.001c-45.333 -10 -81.166 -23 -107.499 -39s-46.166 -37.5 -59.499 -64.5
s-21.666 -60.5 -24.999 -100.5s-5 -88.667 -5 -146v-593h-135v597c0 68.667 3.33301 128.334 10 179.001s19.834 94.834 39.501 132.501s47.667 70.167 84 97.5s84.166 51.666 143.499 72.999zM997.997 355.998c0 34.667 -4.99902 68.332 -14.999 100.999
s-24.833 61.334 -44.5 86.001s-43.834 44.5 -72.501 59.5s-61.667 22.5 -99 22.5c-33.333 0 -66.333 -6.83301 -99 -20.5s-63.167 -36 -91.5 -67s-53.5 -71.5 -75.5 -121.5s-39.333 -111.667 -52 -185c48.667 -36.667 101 -66.667 157 -90s113 -35 171 -35
c34 0 64.667 4.5 92 13.5s50.5 23.5 69.5 43.5s33.667 45.833 44 77.5s15.5 70.167 15.5 115.5z" />
    <glyph glyph-name="uni0646" unicode="&#x646;" horiz-adv-x="1323" arabic-form="isolated" 
d="M1183 778l-0.000976562 -529.999c0 -89.333 -11.5 -164.833 -34.5 -226.5s-57.833 -111.667 -104.5 -150s-105.667 -66 -177 -83s-155.333 -25.5 -252 -25.5c-185.333 0 -325.833 38.167 -421.5 114.5s-143.5 194.5 -143.5 354.5v307h129v-273
c0 -68.667 9.33301 -126.834 28 -174.501s46.5 -86.167 83.5 -115.5s82.833 -50.666 137.5 -63.999s118.334 -20 191.001 -20c76 0 141.5 5.66699 196.5 17s100.167 30.666 135.5 57.999s61.333 64 78 110s25 103.667 25 173v528h129zM526.999 892.001
c0 24.667 8.5 45.499 25.5 62.499s37.833 25.5 62.5 25.5c12 0 23.667 -2.33301 35 -7s21.166 -11 29.499 -19s15 -17.333 20 -28s7.5 -22 7.5 -34s-2.5 -23.5 -7.5 -34.5s-11.667 -20.667 -20 -29s-18.166 -14.833 -29.499 -19.5s-23 -7 -35 -7
c-24.667 0 -45.5 8.83301 -62.5 26.5s-25.5 38.834 -25.5 63.501z" />
    <glyph glyph-name="uni0648" unicode="&#x648;" horiz-adv-x="1023" arabic-form="isolated" 
d="M489 0c-44.667 0 -88.999 6.16504 -132.999 18.498s-83.5 33 -118.5 62s-63.333 67.333 -85 115s-32.5 106.834 -32.5 177.501c0 56 8.83301 110.167 26.5 162.5s43.5 98.833 77.5 139.5s75.833 73.167 125.5 97.5s106.834 36.5 171.501 36.5
c71.333 0 131.166 -14.167 179.499 -42.5s87.333 -66.333 117 -114s50.834 -103 63.501 -166s19 -128.833 19 -197.5v-236c0 -98 -13.333 -181 -40 -249s-64.5 -123.167 -113.5 -165.5s-108.167 -73.166 -177.5 -92.499s-146.666 -29 -231.999 -29h-96v132h83
c61.333 0 119.166 5.66699 173.499 17s101.666 30.5 141.999 57.5s72.333 62.833 96 107.5s35.5 100.334 35.5 167.001v80c-38 -24.667 -79.333 -43.834 -124 -57.501s-97.334 -20.5 -158.001 -20.5zM245.001 390.998c0 -49.333 7.00195 -90.666 21.002 -123.999
s32.833 -60.166 56.5 -80.499s51.334 -35 83.001 -44s65.5 -13.5 101.5 -13.5c58.667 0 110.167 9 154.5 27s80.833 38.667 109.5 62v79c0 53.333 -4.5 103.666 -13.5 150.999s-23.833 88.666 -44.5 123.999s-47.334 63.333 -80.001 84s-73 31 -121 31
s-88.833 -9 -122.5 -27s-61.334 -41.333 -83.001 -70s-37.334 -60.5 -47.001 -95.5s-14.5 -69.5 -14.5 -103.5z" />
    <glyph glyph-name="uni0649" unicode="&#x649;" horiz-adv-x="1589" arabic-form="isolated" 
d="M179 56c0 -59.333 9.16602 -113.667 27.499 -163s49.333 -91.833 93 -127.5s101.667 -63.5 174 -83.5s162.5 -30 270.5 -30c76.667 0 150.334 4.33301 221.001 13s133 22.167 187 40.5s97.167 42.166 129.5 71.499s48.5 65 48.5 107
c0 14.667 -2.83301 28.334 -8.5 41.001s-15 25.334 -28 38.001s-30.5 25.834 -52.5 39.501s-49 28.5 -81 44.5c-39.333 19.333 -76.166 40 -110.499 62s-64.5 46.5 -90.5 73.5s-46.5 57.167 -61.5 90.5s-22.5 71.333 -22.5 114c0 51.333 9.33301 102.166 28 152.499
s46.667 95.5 84 135.5s84 72.333 140 97s121.667 37 197 37c41.333 0 77 -3.33301 107 -10s52.667 -12.667 68 -18v-136c-15.333 3.33301 -31.166 6.5 -47.499 9.5s-32.5 5.5 -48.5 7.5s-31.167 3.5 -45.5 4.5s-26.833 1.5 -37.5 1.5c-52 0 -97.5 -7.16699 -136.5 -21.5
s-71.5 -33.166 -97.5 -56.499s-45.5 -50.333 -58.5 -81s-19.5 -62 -19.5 -94c0 -30.667 5.66699 -57.5 17 -80.5s27 -44 47 -63s43.167 -36.5 69.5 -52.5l84.5 -49l103 -60.5c30 -18.333 55.333 -36.833 76 -55.5s36.167 -38.334 46.5 -59.001s15.5 -44 15.5 -70
c0 -60 -13.167 -115 -39.5 -165s-68.333 -93 -126 -129s-132.334 -64 -224.001 -84s-202.834 -30 -333.501 -30c-130 0 -239.333 12.667 -328 38s-160 60.166 -214 104.499s-92.833 97 -116.5 158s-35.5 127.5 -35.5 199.5v297h129v-258z" />
    <glyph glyph-name="uni064A" unicode="&#x64a;" horiz-adv-x="1589" arabic-form="isolated" 
d="M179 210c0 -59.333 9.16602 -113.667 27.499 -163s49.333 -91.833 93 -127.5s101.667 -63.5 174 -83.5s162.5 -30 270.5 -30c76.667 0 150.334 4.33301 221.001 13s133 22.167 187 40.5s97.167 42.166 129.5 71.499s48.5 65 48.5 107
c0 14.667 -2.83301 28.334 -8.5 41.001s-15 25.334 -28 38.001s-30.5 25.834 -52.5 39.501s-49 28.5 -81 44.5c-39.333 19.333 -76.166 40 -110.499 62s-64.5 46.5 -90.5 73.5s-46.5 57.167 -61.5 90.5s-22.5 71.333 -22.5 114c0 51.333 9.33301 102.166 28 152.499
s46.667 95.5 84 135.5s84 72.333 140 97s121.667 37 197 37c41.333 0 77 -3.33301 107 -10s52.667 -12.667 68 -18v-136c-15.333 3.33301 -31.166 6.5 -47.499 9.5s-32.5 5.5 -48.5 7.5s-31.167 3.5 -45.5 4.5s-26.833 1.5 -37.5 1.5c-52 0 -97.5 -7.16699 -136.5 -21.5
s-71.5 -33.166 -97.5 -56.499s-45.5 -50.333 -58.5 -81s-19.5 -62 -19.5 -94c0 -30.667 5.66699 -57.5 17 -80.5s27 -44 47 -63s43.167 -36.5 69.5 -52.5l84.5 -49l103 -60.5c30 -18.333 55.333 -36.833 76 -55.5s36.167 -38.334 46.5 -59.001s15.5 -44 15.5 -70
c0 -60 -13.167 -115 -39.5 -165s-68.333 -93 -126 -129s-132.334 -64 -224.001 -84s-202.834 -30 -333.501 -30c-130 0 -239.333 12.667 -328 38s-160 60.166 -214 104.499s-92.833 97 -116.5 158s-35.5 127.5 -35.5 199.5v297h129v-258zM527.999 -611.001
c0 24.667 8.66699 45.834 26 63.501s38.666 26.5 63.999 26.5c24.667 0 45.834 -8.83301 63.501 -26.5s26.5 -38.834 26.5 -63.501c0 -25.333 -8.83301 -46.833 -26.5 -64.5s-38.834 -26.5 -63.501 -26.5c-25.333 0 -46.666 8.83301 -63.999 26.5s-26 39.167 -26 64.5z
M805.999 -611.001c0 24.667 8.83301 45.834 26.5 63.501s38.834 26.5 63.501 26.5s45.834 -8.83301 63.501 -26.5s26.5 -38.834 26.5 -63.501c0 -25.333 -8.83301 -46.833 -26.5 -64.5s-38.834 -26.5 -63.501 -26.5s-45.834 8.83301 -63.501 26.5s-26.5 39.167 -26.5 64.5z
" />
    <glyph glyph-name="uni0671" unicode="&#x671;" horiz-adv-x="409" arabic-form="isolated" 
d="M269 1462v-1462h-129v1462h129zM339 1667v31c0 12 -1 23.333 -3 34s-6 20.167 -12 28.5s-14 15 -24 20s-23 7.5 -39 7.5c-14 0 -27.833 -3.33301 -41.5 -10s-26.5 -15.5 -38.5 -26.5s-23.167 -23.833 -33.5 -38.5s-18.833 -30 -25.5 -46h217zM120 1763
c44 58.667 94.667 87.999 152 87.999c40 0 70.667 -12.167 92 -36.5s32 -59.166 32 -104.499v-106h-411v63h74v164h61v-68z" />
    <glyph glyph-name="uni0679" unicode="&#x679;" horiz-adv-x="1873" arabic-form="isolated" 
d="M1036 915v46.0029c0 16 -1.5 31 -4.5 45s-8.5 26.167 -16.5 36.5s-18.5 18.666 -31.5 24.999s-29.5 9.5 -49.5 9.5c-19.333 0 -38.5 -4.33301 -57.5 -13s-36.667 -20.334 -53 -35.001s-31 -31.834 -44 -51.501s-23.5 -40.5 -31.5 -62.5h288zM745 1032
c60.667 80.667 127.667 121 201 121c49.333 0 88 -15.167 116 -45.5s42 -74.5 42 -132.5v-133h-526v73h98v431h69v-314zM460 0.00292969c-62.667 0 -119.167 4.50195 -169.5 13.502s-93.333 24.667 -129 47s-63.167 52.166 -82.5 89.499s-29 84.333 -29 141v307h129v-244
c0 -49.333 5.66699 -88.833 17 -118.5s31 -52.334 59 -68.001s65.833 -26 113.5 -31s107.5 -7.5 179.5 -7.5h1056v649h129v-778h-1273z" />
    <glyph glyph-name="uni067E" unicode="&#x67e;" horiz-adv-x="1873" arabic-form="isolated" 
d="M460 0c-62.667 0 -119.167 4.50195 -169.5 13.502s-93.333 24.667 -129 47s-63.167 52.166 -82.5 89.499s-29 84.333 -29 141v307h129v-244c0 -49.333 5.66699 -88.833 17 -118.5s31 -52.334 59 -68.001s65.833 -26 113.5 -31s107.5 -7.5 179.5 -7.5h1056v649h129v-778
h-1273zM1112 -275.998c0 -12.667 -2.33301 -24.334 -7 -35.001s-11.167 -20 -19.5 -28s-18.166 -14.333 -29.499 -19s-23.333 -7 -36 -7c-24.667 0 -45.834 8.5 -63.501 25.5s-26.5 38.167 -26.5 63.5c0 24.667 8.83301 45.834 26.5 63.501s38.834 26.5 63.501 26.5
c12.667 0 24.667 -2.33301 36 -7s21.166 -11.167 29.499 -19.5s14.833 -18 19.5 -29s7 -22.5 7 -34.5zM832 -275.998c0 -25.333 -8.83301 -46.5 -26.5 -63.5s-38.834 -25.5 -63.501 -25.5s-45.5 8.5 -62.5 25.5s-25.5 38.167 -25.5 63.5c0 24.667 8.5 45.834 25.5 63.501
s37.833 26.5 62.5 26.5s45.834 -8.83301 63.501 -26.5s26.5 -38.834 26.5 -63.501zM967 -534.998c0 -24.667 -8.83301 -45.5 -26.5 -62.5s-38.834 -25.5 -63.501 -25.5s-45.834 8.5 -63.501 25.5s-26.5 37.833 -26.5 62.5c0 25.333 8.83301 46.833 26.5 64.5
s38.834 26.5 63.501 26.5s45.834 -8.83301 63.501 -26.5s26.5 -39.167 26.5 -64.5z" />
    <glyph glyph-name="uni0686" unicode="&#x686;" horiz-adv-x="1316" arabic-form="isolated" 
d="M1206 0h-611.002c-31.333 0 -63.833 -1.33301 -97.5 -4s-66.667 -8 -99 -16s-63 -19.667 -92 -35s-54.5 -35.333 -76.5 -60s-39.333 -55.167 -52 -91.5s-19 -79.833 -19 -130.5c0 -61.333 12.667 -114.166 38 -158.499s59.5 -81 102.5 -110s92.833 -50.5 149.5 -64.5
s116.667 -21 180 -21c50 0 105.833 6.16699 167.5 18.5s129.167 35.5 202.5 69.5l50 -107c-38 -22.667 -78 -41.167 -120 -55.5s-82.167 -25.5 -120.5 -33.5s-73 -13.5 -104 -16.5s-54.833 -4.5 -71.5 -4.5c-88.667 0 -169.834 10 -243.501 30s-137.167 50 -190.5 90
s-94.833 89.667 -124.5 149s-44.5 128.666 -44.5 207.999c0 66.667 7.83301 124.5 23.5 173.5s37 91 64 126s58.833 63.667 95.5 86s76 39.833 118 52.5s85.667 21.5 131 26.5s90.333 7.5 135 7.5h480c0 100 -11.667 185 -35 255s-56 127 -98 171s-92.333 76 -151 96
s-123.667 30 -195 30c-37.333 0 -75.5 -2.66699 -114.5 -8s-74.5 -11.666 -106.5 -18.999v116c28.667 8 64.334 16.5 107.001 25.5s88.334 13.5 137.001 13.5c104.667 0 194.167 -18 268.5 -54s134.833 -84.833 181.5 -146.5s80.834 -133.334 102.501 -215.001
s32.5 -168.5 32.5 -260.5v-133zM944.998 -235c0 -12.667 -2.33301 -24.334 -7 -35.001s-11.167 -20 -19.5 -28s-18.166 -14.333 -29.499 -19s-23.333 -7 -36 -7c-24.667 0 -45.834 8.5 -63.501 25.5s-26.5 38.167 -26.5 63.5c0 24.667 8.83301 45.834 26.5 63.501
s38.834 26.5 63.501 26.5c12.667 0 24.667 -2.33301 36 -7s21.166 -11.167 29.499 -19.5s14.833 -18 19.5 -29s7 -22.5 7 -34.5zM664.998 -235c0 -25.333 -8.83301 -46.5 -26.5 -63.5s-38.834 -25.5 -63.501 -25.5s-45.5 8.5 -62.5 25.5s-25.5 38.167 -25.5 63.5
c0 24.667 8.5 45.834 25.5 63.501s37.833 26.5 62.5 26.5s45.834 -8.83301 63.501 -26.5s26.5 -38.834 26.5 -63.501zM799.998 -494c0 -24.667 -8.83301 -45.5 -26.5 -62.5s-38.834 -25.5 -63.501 -25.5s-45.834 8.5 -63.501 25.5s-26.5 37.833 -26.5 62.5
c0 25.333 8.83301 46.833 26.5 64.5s38.834 26.5 63.501 26.5s45.834 -8.83301 63.501 -26.5s26.5 -39.167 26.5 -64.5z" />
    <glyph glyph-name="uni0688" unicode="&#x688;" horiz-adv-x="911" arabic-form="isolated" 
d="M684 1106l-0.000976562 45.002c0 16 -1.5 31 -4.5 45s-8.5 26.333 -16.5 37s-18.5 19.167 -31.5 25.5s-29.5 9.5 -49.5 9.5c-19.333 0 -38.5 -4.33301 -57.5 -13s-36.667 -20.334 -53 -35.001s-31.166 -31.834 -44.499 -51.501s-24 -40.5 -32 -62.5h289zM392.999 1223
c60 80 127 120 201 120c49.333 0 88 -15.167 116 -45.5s42 -74.5 42 -132.5v-133h-527v74h99v430h69v-313zM800.999 211.002c0 -30 -5.5 -57.9971 -16.5 -83.9971s-27.333 -48.333 -49 -67s-48.834 -33.334 -81.501 -44.001s-70.334 -16 -113.001 -16h-480v129h474
c28.667 0 51.834 2.83301 69.501 8.5s31.334 12.667 41.001 21s16.167 17.5 19.5 27.5s5 19.333 5 28c0 17.333 -2.83301 34.666 -8.5 51.999s-17 40.666 -34 69.999s-41.167 67.5 -72.5 114.5l-125 184.5l-70 104l117 76l123 -194l58.5 -91.5c23 -35 45 -71.167 66 -108.5
s39 -74.333 54 -111s22.5 -69.667 22.5 -99z" />
    <glyph glyph-name="uni0691" unicode="&#x691;" horiz-adv-x="600" arabic-form="isolated" 
d="M510 1038l-0.000976562 45.0039c0 16 -1.66699 31.167 -5 45.5s-8.83301 26.666 -16.5 36.999s-18 18.666 -31 24.999s-29.5 9.5 -49.5 9.5c-19.333 0 -38.5 -4.33301 -57.5 -13s-36.667 -20.334 -53 -35.001s-31.166 -31.834 -44.499 -51.501s-24 -40.5 -32 -62.5h289z
M218.999 1155c60.667 80.667 127.667 121 201 121c49.333 0 88 -15.333 116 -46s42 -74.667 42 -132v-133h-527v73h99v430h69v-313zM330.999 778.004h129.001v-716c0 -95.333 -5.5 -177.333 -16.5 -246s-30.333 -125.167 -58 -169.5s-64.834 -77 -111.501 -98
s-105.667 -31.5 -177 -31.5h-57v132h57c53.333 0 95.5 9.16699 126.5 27.5s54.5 45.833 70.5 82.5s26.167 82.167 30.5 136.5s6.5 117.5 6.5 189.5v693z" />
    <glyph glyph-name="uni0698" unicode="&#x698;" horiz-adv-x="600" arabic-form="isolated" 
d="M331 778h129.001v-716c0 -95.333 -5.5 -177.333 -16.5 -246s-30.333 -125.167 -58 -169.5s-64.834 -77 -111.501 -98s-105.667 -31.5 -177 -31.5h-57v132h57c53.333 0 95.5 9.16699 126.5 27.5s54.5 45.833 70.5 82.5s26.167 82.167 30.5 136.5s6.5 117.5 6.5 189.5v693z
M161.001 1039c0 24.667 8.66699 45.5 26 62.5s38.666 25.5 63.999 25.5c24.667 0 45.834 -8.5 63.501 -25.5s26.5 -37.833 26.5 -62.5s-8.83301 -45.834 -26.5 -63.501s-38.834 -26.5 -63.501 -26.5c-25.333 0 -46.666 8.83301 -63.999 26.5s-26 38.834 -26 63.501z
M439.001 1039c0 24.667 8.83301 45.5 26.5 62.5s38.834 25.5 63.501 25.5s45.834 -8.5 63.501 -25.5s26.5 -37.833 26.5 -62.5s-8.83301 -45.834 -26.5 -63.501s-38.834 -26.5 -63.501 -26.5s-45.834 8.83301 -63.501 26.5s-26.5 38.834 -26.5 63.501zM304.001 1297
c0 24.667 8.83301 45.499 26.5 62.499s38.834 25.5 63.501 25.5c12 0 23.667 -2.33301 35 -7s21.166 -11 29.499 -19s15 -17.333 20 -28s7.5 -22 7.5 -34s-2.5 -23.5 -7.5 -34.5s-11.667 -20.667 -20 -29s-18.166 -14.833 -29.499 -19.5s-23 -7 -35 -7
c-24.667 0 -45.834 8.83301 -63.501 26.5s-26.5 38.834 -26.5 63.501z" />
    <glyph glyph-name="uni06A4" unicode="&#x6a4;" horiz-adv-x="2142" arabic-form="isolated" 
d="M1372 398c0 -45.333 7.33301 -84.833 22 -118.5s35 -61.667 61 -84s56.5 -39 91.5 -50s73.167 -16.5 114.5 -16.5h230v240c0 36.667 -3.66699 73.5 -11 110.5s-20.5 70.333 -39.5 100s-44.667 53.834 -77 72.501s-73.833 28 -124.5 28c-41.333 0 -78.5 -7 -111.5 -21
s-61 -33.5 -84 -58.5s-40.667 -54.833 -53 -89.5s-18.5 -72.334 -18.5 -113.001zM460 0c-62.667 0 -119.167 4.5 -169.5 13.5s-93.333 24.667 -129 47s-63.167 52.166 -82.5 89.499s-29 84.333 -29 141v307h129v-244c0 -49.333 5.66699 -88.833 17 -118.5
s31 -52.334 59 -68.001s65.833 -26 113.5 -31s107.5 -7.5 179.5 -7.5h790c-14.667 14.667 -27.834 32 -39.501 52s-21.5 41.333 -29.5 64s-14.167 46.167 -18.5 70.5s-6.5 48.833 -6.5 73.5c0 54.667 9 107.334 27 158.001s44 95.5 78 134.5s75.5 70 124.5 93
s104.5 34.5 166.5 34.5c50.667 0 95.334 -6.16699 134.001 -18.5s72.167 -29.166 100.5 -50.499s51.833 -46.333 70.5 -75s33.5 -59 44.5 -91s18.833 -65.167 23.5 -99.5s7 -67.5 7 -99.5v-375h-1560zM1351 1161c0 24.667 8.66699 45.5 26 62.5s38.666 25.5 63.999 25.5
c24.667 0 45.834 -8.5 63.501 -25.5s26.5 -37.833 26.5 -62.5s-8.83301 -45.834 -26.5 -63.501s-38.834 -26.5 -63.501 -26.5c-25.333 0 -46.666 8.83301 -63.999 26.5s-26 38.834 -26 63.501zM1629 1161c0 24.667 8.83301 45.5 26.5 62.5s38.834 25.5 63.501 25.5
s45.834 -8.5 63.501 -25.5s26.5 -37.833 26.5 -62.5s-8.83301 -45.834 -26.5 -63.501s-38.834 -26.5 -63.501 -26.5s-45.834 8.83301 -63.501 26.5s-26.5 38.834 -26.5 63.501zM1494 1419c0 24.667 8.83301 45.499 26.5 62.499s38.834 25.5 63.501 25.5
c12 0 23.667 -2.33301 35 -7s21.166 -11 29.499 -19s15 -17.333 20 -28s7.5 -22 7.5 -34s-2.5 -23.5 -7.5 -34.5s-11.667 -20.667 -20 -29s-18.166 -14.833 -29.499 -19.5s-23 -7 -35 -7c-24.667 0 -45.834 8.83301 -63.501 26.5s-26.5 38.834 -26.5 63.501z" />
    <glyph glyph-name="uni06A9" unicode="&#x6a9;" horiz-adv-x="1839" arabic-form="isolated" 
d="M1402 129c30 0 57.499 2.49902 82.499 7.49902s46.5 13.833 64.5 26.5s31.833 29.334 41.5 50.001s14.5 46.667 14.5 78c0 42.667 -12.833 87 -38.5 133s-62.834 91.333 -111.501 136s-107.834 87.834 -177.501 129.501s-148.5 80.167 -236.5 115.5v152l665 432v-145
l-539 -350c114.667 -51.333 208.334 -104.333 281.001 -159s129.834 -108.5 171.501 -161.5s70.334 -103.833 86.001 -152.5s23.5 -92.667 23.5 -132c0 -28 -3.33301 -58.667 -10 -92s-21.5 -64.666 -44.5 -93.999s-56.333 -53.833 -100 -73.5s-102.5 -29.5 -176.5 -29.5
h-938c-62.667 0 -119.167 4.5 -169.5 13.5s-93.333 24.667 -129 47s-63.167 52.166 -82.5 89.499s-29 84.333 -29 141v307h129v-244c0 -49.333 5.66699 -88.833 17 -118.5s31 -52.334 59 -68.001s65.833 -26 113.5 -31s107.5 -7.5 179.5 -7.5h854z" />
    <glyph glyph-name="uni06AF" unicode="&#x6af;" horiz-adv-x="1839" arabic-form="isolated" 
d="M1402 129c30 0 57.499 2.49902 82.499 7.49902s46.5 13.833 64.5 26.5s31.833 29.334 41.5 50.001s14.5 46.667 14.5 78c0 42.667 -12.833 87 -38.5 133s-62.834 91.333 -111.501 136s-107.834 87.834 -177.501 129.501s-148.5 80.167 -236.5 115.5v152l665 432v-145
l-539 -350c114.667 -51.333 208.334 -104.333 281.001 -159s129.834 -108.5 171.501 -161.5s70.334 -103.833 86.001 -152.5s23.5 -92.667 23.5 -132c0 -28 -3.33301 -58.667 -10 -92s-21.5 -64.666 -44.5 -93.999s-56.333 -53.833 -100 -73.5s-102.5 -29.5 -176.5 -29.5
h-938c-62.667 0 -119.167 4.5 -169.5 13.5s-93.333 24.667 -129 47s-63.167 52.166 -82.5 89.499s-29 84.333 -29 141v307h129v-244c0 -49.333 5.66699 -88.833 17 -118.5s31 -52.334 59 -68.001s65.833 -26 113.5 -31s107.5 -7.5 179.5 -7.5h854zM1040 1067v125l667 422
v-122z" />
    <glyph glyph-name="uni06BA" unicode="&#x6ba;" horiz-adv-x="1323" arabic-form="isolated" 
d="M1183 778l-0.000976562 -529.999c0 -89.333 -11.5 -164.833 -34.5 -226.5s-57.833 -111.667 -104.5 -150s-105.667 -66 -177 -83s-155.333 -25.5 -252 -25.5c-185.333 0 -325.833 38.167 -421.5 114.5s-143.5 194.5 -143.5 354.5v307h129v-273
c0 -68.667 9.33301 -126.834 28 -174.501s46.5 -86.167 83.5 -115.5s82.833 -50.666 137.5 -63.999s118.334 -20 191.001 -20c76 0 141.5 5.66699 196.5 17s100.167 30.666 135.5 57.999s61.333 64 78 110s25 103.667 25 173v528h129z" />
    <glyph glyph-name="uni06C0" unicode="&#x6c0;" horiz-adv-x="902" arabic-form="isolated" 
d="M411 680c-39.333 0 -74.668 -8.66797 -106.001 -26.001s-57.833 -40.5 -79.5 -69.5s-38.334 -63 -50.001 -102s-17.5 -79.833 -17.5 -122.5c0 -43.333 6.5 -80.5 19.5 -111.5s30.667 -56.167 53 -75.5s48.833 -33.5 79.5 -42.5s63.667 -13.5 99 -13.5
c32.667 0 64.334 3.66699 95.001 11s57.834 19.833 81.501 37.5s42.667 41.667 57 72s21.5 68.5 21.5 114.5c0 53.333 -6.5 100.333 -19.5 141s-31 74.834 -54 102.501s-49.833 48.667 -80.5 63s-63.667 21.5 -99 21.5zM29.998 343.999c0 60.667 8.82812 119 26.4951 175
s43.334 105.5 77.001 148.5s74.334 77.333 122.001 103s101.5 38.5 161.5 38.5c54 0 103.833 -10.667 149.5 -32s85.334 -52 119.001 -92s59.834 -88.833 78.501 -146.5s28 -122.5 28 -194.5c0 -47.333 -7.16699 -92.333 -21.5 -135s-37.166 -80.5 -68.499 -113.5
s-71.5 -59.167 -120.5 -78.5s-107.833 -29 -176.5 -29c-55.333 0 -106 7.33301 -152 22s-85.5 36.667 -118.5 66s-58.667 66.333 -77 111s-27.5 97 -27.5 157zM566.993 1025h-350v76h98c-32.667 36.667 -49 77.667 -49 123c0 28.667 4.83301 54.167 14.5 76.5
s22.834 41 39.501 56s35.834 26.333 57.501 34s44.5 11.5 68.5 11.5c15.333 0 30.166 -0.5 44.499 -1.5s26.166 -3.16699 35.499 -6.5v-82c-15.333 4 -28.333 6.66699 -39 8s-21.667 2 -33 2c-22.667 0 -41.5 -3 -56.5 -9s-27 -13.833 -36 -23.5s-15.333 -20.667 -19 -33
s-5.5 -24.5 -5.5 -36.5c0 -37.333 13 -66.5 39 -87.5s63 -31.5 111 -31.5h80v-76z" />
    <glyph glyph-name="uni06C1" unicode="&#x6c1;" horiz-adv-x="902" arabic-form="isolated" 
d="M411 680c-39.333 0 -74.668 -8.66797 -106.001 -26.001s-57.833 -40.5 -79.5 -69.5s-38.334 -63 -50.001 -102s-17.5 -79.833 -17.5 -122.5c0 -43.333 6.5 -80.5 19.5 -111.5s30.667 -56.167 53 -75.5s48.833 -33.5 79.5 -42.5s63.667 -13.5 99 -13.5
c32.667 0 64.334 3.66699 95.001 11s57.834 19.833 81.501 37.5s42.667 41.667 57 72s21.5 68.5 21.5 114.5c0 53.333 -6.5 100.333 -19.5 141s-31 74.834 -54 102.501s-49.833 48.667 -80.5 63s-63.667 21.5 -99 21.5zM29.998 343.999c0 60.667 8.82812 119 26.4951 175
s43.334 105.5 77.001 148.5s74.334 77.333 122.001 103s101.5 38.5 161.5 38.5c54 0 103.833 -10.667 149.5 -32s85.334 -52 119.001 -92s59.834 -88.833 78.501 -146.5s28 -122.5 28 -194.5c0 -47.333 -7.16699 -92.333 -21.5 -135s-37.166 -80.5 -68.499 -113.5
s-71.5 -59.167 -120.5 -78.5s-107.833 -29 -176.5 -29c-55.333 0 -106 7.33301 -152 22s-85.5 36.667 -118.5 66s-58.667 66.333 -77 111s-27.5 97 -27.5 157z" />
    <glyph glyph-name="uni06C2.fina" unicode="&#x6c2;" horiz-adv-x="654" 
d="M613 0c-27.333 0 -51.165 3.83203 -71.498 11.499s-38.333 17.334 -54 29.001s-29.334 24.834 -41.001 39.501s-22.167 29 -31.5 43c-13.333 20 -25.5 37.5 -36.5 52.5s-21.667 27.167 -32 36.5s-21 16.333 -32 21s-23.5 7 -37.5 7c-40 0 -70.833 -20 -92.5 -60
s-32.5 -95.333 -32.5 -166v-32.5c0 -10.333 0.666992 -21.166 2 -32.499h-100c-1.33301 11.333 -2.33301 22.666 -3 33.999s-1 23.666 -1 36.999c0 50.667 5.5 97.167 16.5 139.5s26.5 78.666 46.5 108.999s44.167 54 72.5 71s59.5 25.5 93.5 25.5
c36 0 69.833 -9.16699 101.5 -27.5s58.167 -45.5 79.5 -81.5c11.333 -19.333 22.5 -36.666 33.5 -51.999s22.833 -28.666 35.5 -39.999s26.5 -20 41.5 -26s32.5 -9 52.5 -9h31c23.333 0 41.166 -4 53.499 -12s18.5 -24.333 18.5 -49c0 -14.667 -1.5 -26.334 -4.5 -35.001
s-7.5 -15.5 -13.5 -20.5s-13.5 -8.33301 -22.5 -10s-19.5 -2.5 -31.5 -2.5h-41zM376.001 659.999h-350v76h98c-32.667 36.667 -49 77.667 -49 123c0 28.667 4.83301 54.167 14.5 76.5s22.834 41 39.501 56s35.834 26.333 57.501 34s44.5 11.5 68.5 11.5
c15.333 0 30.166 -0.5 44.499 -1.5s26.166 -3.16699 35.499 -6.5v-82c-15.333 4 -28.333 6.66699 -39 8s-21.667 2 -33 2c-22.667 0 -41.5 -3 -56.5 -9s-27 -13.833 -36 -23.5s-15.333 -20.667 -19 -33s-5.5 -24.5 -5.5 -36.5c0 -37.333 13 -66.5 39 -87.5
s63 -31.5 111 -31.5h80v-76z" />
    <glyph glyph-name="uni06C3.fina" unicode="&#x6c3;" horiz-adv-x="925" 
d="M159 535c0 -74.667 22.501 -132.333 67.501 -173s111.167 -61 198.5 -61c31.333 0 63.333 3.33301 96 10s63 15.667 91 27v448h-166c-40.667 0 -78.5 -5 -113.5 -15s-65.333 -25.167 -91 -45.5s-45.834 -46.333 -60.501 -78s-22 -69.167 -22 -112.5zM401.001 168.001
c-24 0 -49.8359 1.83594 -77.5029 5.50293s-55.167 10.5 -82.5 20.5s-53.666 23.333 -78.999 40s-47.833 38.167 -67.5 64.5s-35.334 57.666 -47.001 93.999s-17.5 78.833 -17.5 127.5c0 73.333 12 135.166 36 185.499s55.833 91 95.5 122s85 53.333 136 67
s103.167 20.5 156.5 20.5h287v-587c0 -28.667 1.83301 -55.167 5.5 -79.5s10.834 -45.333 21.501 -63s25.667 -31.5 45 -41.5s44.333 -15 75 -15h37c28 0 47 -3.83301 57 -11.5s15 -24.167 15 -49.5s-4.66699 -43 -14 -53s-28.666 -15 -57.999 -15h-59
c-35.333 0 -67.666 4.66699 -96.999 14s-55 22.666 -77 39.999s-39.5 38.833 -52.5 64.5s-20.167 54.5 -21.5 86.5c-30 -11.333 -63.833 -20.333 -101.5 -27s-76.167 -10 -115.5 -10zM220.998 1317c0 24.667 8.66699 45.5 26 62.5s38.666 25.5 63.999 25.5
c24.667 0 45.834 -8.5 63.501 -25.5s26.5 -37.833 26.5 -62.5s-8.83301 -45.834 -26.5 -63.501s-38.834 -26.5 -63.501 -26.5c-25.333 0 -46.666 8.83301 -63.999 26.5s-26 38.834 -26 63.501zM498.998 1317c0 24.667 8.83301 45.5 26.5 62.5s38.834 25.5 63.501 25.5
s45.834 -8.5 63.501 -25.5s26.5 -37.833 26.5 -62.5s-8.83301 -45.834 -26.5 -63.501s-38.834 -26.5 -63.501 -26.5s-45.834 8.83301 -63.501 26.5s-26.5 38.834 -26.5 63.501z" />
    <glyph glyph-name="uni06CC" unicode="&#x6cc;" horiz-adv-x="1589" arabic-form="isolated" 
d="M179 56c0 -59.333 9.16602 -113.667 27.499 -163s49.333 -91.833 93 -127.5s101.667 -63.5 174 -83.5s162.5 -30 270.5 -30c76.667 0 150.334 4.33301 221.001 13s133 22.167 187 40.5s97.167 42.166 129.5 71.499s48.5 65 48.5 107
c0 14.667 -2.83301 28.334 -8.5 41.001s-15 25.334 -28 38.001s-30.5 25.834 -52.5 39.501s-49 28.5 -81 44.5c-39.333 19.333 -76.166 40 -110.499 62s-64.5 46.5 -90.5 73.5s-46.5 57.167 -61.5 90.5s-22.5 71.333 -22.5 114c0 51.333 9.33301 102.166 28 152.499
s46.667 95.5 84 135.5s84 72.333 140 97s121.667 37 197 37c41.333 0 77 -3.33301 107 -10s52.667 -12.667 68 -18v-136c-15.333 3.33301 -31.166 6.5 -47.499 9.5s-32.5 5.5 -48.5 7.5s-31.167 3.5 -45.5 4.5s-26.833 1.5 -37.5 1.5c-52 0 -97.5 -7.16699 -136.5 -21.5
s-71.5 -33.166 -97.5 -56.499s-45.5 -50.333 -58.5 -81s-19.5 -62 -19.5 -94c0 -30.667 5.66699 -57.5 17 -80.5s27 -44 47 -63s43.167 -36.5 69.5 -52.5l84.5 -49l103 -60.5c30 -18.333 55.333 -36.833 76 -55.5s36.167 -38.334 46.5 -59.001s15.5 -44 15.5 -70
c0 -60 -13.167 -115 -39.5 -165s-68.333 -93 -126 -129s-132.334 -64 -224.001 -84s-202.834 -30 -333.501 -30c-130 0 -239.333 12.667 -328 38s-160 60.166 -214 104.499s-92.833 97 -116.5 158s-35.5 127.5 -35.5 199.5v297h129v-258z" />
    <glyph glyph-name="uni06D2" unicode="&#x6d2;" horiz-adv-x="1706" arabic-form="isolated" 
d="M747 778c-4 -56 -13.666 -102.836 -28.999 -140.503s-36.5 -69.167 -63.5 -94.5s-59.833 -46 -98.5 -62s-83 -30.333 -133 -43c-93.333 -23.333 -160.833 -50.666 -202.5 -81.999s-62.5 -67 -62.5 -107c0 -33.333 12.167 -60.333 36.5 -81s61.666 -36.5 111.999 -47.5
s113.666 -18.333 189.999 -22s166.5 -5.5 270.5 -5.5c72.667 0 150.667 2.33301 234 7s165.333 10.834 246 18.501s156.5 16.167 227.5 25.5s130.833 19 179.5 29v-129c-69.333 -14 -144.166 -26 -224.499 -36s-161 -18.333 -242 -25s-159.333 -11.5 -235 -14.5
s-142.834 -4.5 -201.501 -4.5c-119.333 0 -224 3.33301 -314 10s-165.167 19.834 -225.5 39.501s-105.666 47.5 -135.999 83.5s-45.5 83.667 -45.5 143c0 76.667 29 139.5 87 188.5s145.333 90.5 262 124.5c38.667 11.333 72.167 22.333 100.5 33s52 24 71 40
s34 35.833 45 59.5s18.5 54.5 22.5 92.5h129z" />
    <glyph glyph-name="uni06D3" unicode="&#x6d3;" horiz-adv-x="1706" arabic-form="isolated" 
d="M747 778c-4 -56 -13.666 -102.836 -28.999 -140.503s-36.5 -69.167 -63.5 -94.5s-59.833 -46 -98.5 -62s-83 -30.333 -133 -43c-93.333 -23.333 -160.833 -50.666 -202.5 -81.999s-62.5 -67 -62.5 -107c0 -33.333 12.167 -60.333 36.5 -81s61.666 -36.5 111.999 -47.5
s113.666 -18.333 189.999 -22s166.5 -5.5 270.5 -5.5c72.667 0 150.667 2.33301 234 7s165.333 10.834 246 18.501s156.5 16.167 227.5 25.5s130.833 19 179.5 29v-129c-69.333 -14 -144.166 -26 -224.499 -36s-161 -18.333 -242 -25s-159.333 -11.5 -235 -14.5
s-142.834 -4.5 -201.501 -4.5c-119.333 0 -224 3.33301 -314 10s-165.167 19.834 -225.5 39.501s-105.666 47.5 -135.999 83.5s-45.5 83.667 -45.5 143c0 76.667 29 139.5 87 188.5s145.333 90.5 262 124.5c38.667 11.333 72.167 22.333 100.5 33s52 24 71 40
s34 35.833 45 59.5s18.5 54.5 22.5 92.5h129zM481.001 794.997h-350v76h98c-32.667 36.667 -49 77.667 -49 123c0 28.667 4.83301 54.167 14.5 76.5s22.834 41 39.501 56s35.834 26.333 57.501 34s44.5 11.5 68.5 11.5c15.333 0 30.166 -0.5 44.499 -1.5
s26.166 -3.16699 35.499 -6.5v-82c-15.333 4 -28.333 6.66699 -39 8s-21.667 2 -33 2c-22.667 0 -41.5 -3 -56.5 -9s-27 -13.833 -36 -23.5s-15.333 -20.667 -19 -33s-5.5 -24.5 -5.5 -36.5c0 -37.333 13 -66.5 39 -87.5s63 -31.5 111 -31.5h80v-76z" />
    <glyph glyph-name="uni06D5.fina" unicode="&#x6d5;" horiz-adv-x="925" 
d="M159 535c0 -74.667 22.501 -132.333 67.501 -173s111.167 -61 198.5 -61c31.333 0 63.333 3.33301 96 10s63 15.667 91 27v448h-166c-40.667 0 -78.5 -5 -113.5 -15s-65.333 -25.167 -91 -45.5s-45.834 -46.333 -60.501 -78s-22 -69.167 -22 -112.5zM401.001 168.001
c-24 0 -49.8359 1.83594 -77.5029 5.50293s-55.167 10.5 -82.5 20.5s-53.666 23.333 -78.999 40s-47.833 38.167 -67.5 64.5s-35.334 57.666 -47.001 93.999s-17.5 78.833 -17.5 127.5c0 73.333 12 135.166 36 185.499s55.833 91 95.5 122s85 53.333 136 67
s103.167 20.5 156.5 20.5h287v-587c0 -28.667 1.83301 -55.167 5.5 -79.5s10.834 -45.333 21.501 -63s25.667 -31.5 45 -41.5s44.333 -15 75 -15h37c28 0 47 -3.83301 57 -11.5s15 -24.167 15 -49.5s-4.66699 -43 -14 -53s-28.666 -15 -57.999 -15h-59
c-35.333 0 -67.666 4.66699 -96.999 14s-55 22.666 -77 39.999s-39.5 38.833 -52.5 64.5s-20.167 54.5 -21.5 86.5c-30 -11.333 -63.833 -20.333 -101.5 -27s-76.167 -10 -115.5 -10z" />
    <glyph glyph-name="uniFB51" unicode="&#x671;" horiz-adv-x="464" arabic-form="final" 
d="M536 68c0 -14.667 -1.49609 -26.333 -4.49609 -35s-7.5 -15.5 -13.5 -20.5s-13.5 -8.33301 -22.5 -10s-19.5 -2.5 -31.5 -2.5h-41c-42.667 0 -81.334 4.5 -116.001 13.5s-64.334 24 -89.001 45s-43.834 49 -57.501 84s-20.5 78.167 -20.5 129.5v1190h129v-1143
c0 -34 2.33301 -63.167 7 -87.5s13.667 -44 27 -59s31.5 -26 54.5 -33s53.167 -10.5 90.5 -10.5h16c23.333 0 41.166 -4 53.499 -12s18.5 -24.333 18.5 -49zM366.004 1667v31c0 12 -1 23.333 -3 34s-6 20.167 -12 28.5s-14 15 -24 20s-23 7.5 -39 7.5
c-14 0 -27.833 -3.33301 -41.5 -10s-26.5 -15.5 -38.5 -26.5s-23.167 -23.833 -33.5 -38.5s-18.833 -30 -25.5 -46h217zM147.004 1763c44 58.667 94.667 87.999 152 87.999c40 0 70.667 -12.167 92 -36.5s32 -59.166 32 -104.499v-106h-411v63h74v164h61v-68z" />
    <glyph glyph-name="uniFB57" unicode="&#x67e;" horiz-adv-x="1864" arabic-form="final" 
d="M460 0c-62.667 0 -119.163 4.50684 -169.496 13.5068s-93.333 24.667 -129 47s-63.167 52.166 -82.5 89.499s-29 84.333 -29 141v307h129v-244c0 -49.333 5.66699 -88.833 17 -118.5s31 -52.334 59 -68.001s65.833 -26 113.5 -31s107.5 -7.5 179.5 -7.5h784
c28.667 0 56.334 1 83.001 3s50.167 8.16699 70.5 18.5s36.666 26.666 48.999 48.999s18.5 54.166 18.5 95.499v483h127v-387c0 -39.333 3 -75 9 -107s16.333 -59.333 31 -82s34.167 -40.167 58.5 -52.5s55.166 -18.5 92.499 -18.5c23.333 0 41 -4.33301 53 -13
s18 -25.334 18 -50.001c0 -14.667 -1.5 -26.334 -4.5 -35.001s-7.5 -15.5 -13.5 -20.5s-13.333 -8.33301 -22 -10s-19 -2.5 -31 -2.5c-24.667 0 -48.334 2 -71.001 6s-43.5 10.833 -62.5 20.5s-36 22.167 -51 37.5s-27.5 34.333 -37.5 57
c-16 -24.667 -33.5 -44.834 -52.5 -60.501s-40.333 -28 -64 -37s-50.334 -15.167 -80.001 -18.5s-63.834 -5 -102.501 -5h-890zM1112 -275.993c0 -12.667 -2.33301 -24.334 -7 -35.001s-11.167 -20 -19.5 -28s-18.166 -14.333 -29.499 -19s-23.333 -7 -36 -7
c-24.667 0 -45.834 8.5 -63.501 25.5s-26.5 38.167 -26.5 63.5c0 24.667 8.83301 45.834 26.5 63.501s38.834 26.5 63.501 26.5c12.667 0 24.667 -2.33301 36 -7s21.166 -11.167 29.499 -19.5s14.833 -18 19.5 -29s7 -22.5 7 -34.5zM832.004 -275.993
c0 -25.333 -8.83301 -46.5 -26.5 -63.5s-38.834 -25.5 -63.501 -25.5s-45.5 8.5 -62.5 25.5s-25.5 38.167 -25.5 63.5c0 24.667 8.5 45.834 25.5 63.501s37.833 26.5 62.5 26.5s45.834 -8.83301 63.501 -26.5s26.5 -38.834 26.5 -63.501zM967.004 -534.993
c0 -24.667 -8.83301 -45.5 -26.5 -62.5s-38.834 -25.5 -63.501 -25.5s-45.834 8.5 -63.501 25.5s-26.5 37.833 -26.5 62.5c0 25.333 8.83301 46.833 26.5 64.5s38.834 26.5 63.501 26.5s45.834 -8.83301 63.501 -26.5s26.5 -39.167 26.5 -64.5z" />
    <glyph glyph-name="uniFB58" unicode="&#x67e;" horiz-adv-x="621" arabic-form="initial" 
d="M0 0c-23.333 0 -41.167 4.33008 -53.5 12.9971s-18.5 25.334 -18.5 50.001c0 14.667 1.5 26.334 4.5 35.001s7.5 15.334 13.5 20.001s13.5 7.66699 22.5 9s19.5 2 31.5 2h352v649h129v-778h-481zM484.999 -276.003c0 -12.667 -2.33301 -24.334 -7 -35.001
s-11.167 -20 -19.5 -28s-18.166 -14.333 -29.499 -19s-23.333 -7 -36 -7c-24.667 0 -45.834 8.5 -63.501 25.5s-26.5 38.167 -26.5 63.5c0 24.667 8.83301 45.834 26.5 63.501s38.834 26.5 63.501 26.5c12.667 0 24.667 -2.33301 36 -7s21.166 -11.167 29.499 -19.5
s14.833 -18 19.5 -29s7 -22.5 7 -34.5zM204.999 -276.003c0 -25.333 -8.83301 -46.5 -26.5 -63.5s-38.834 -25.5 -63.501 -25.5s-45.5 8.5 -62.5 25.5s-25.5 38.167 -25.5 63.5c0 24.667 8.5 45.834 25.5 63.501s37.833 26.5 62.5 26.5s45.834 -8.83301 63.501 -26.5
s26.5 -38.834 26.5 -63.501zM339.999 -535.003c0 -24.667 -8.83301 -45.5 -26.5 -62.5s-38.834 -25.5 -63.501 -25.5s-45.834 8.5 -63.501 25.5s-26.5 37.833 -26.5 62.5c0 25.333 8.83301 46.833 26.5 64.5s38.834 26.5 63.501 26.5s45.834 -8.83301 63.501 -26.5
s26.5 -39.167 26.5 -64.5z" />
    <glyph glyph-name="uniFB59" unicode="&#x67e;" horiz-adv-x="669" arabic-form="medial" 
d="M0 0c-23.333 0 -41.166 4.33398 -53.499 13.001s-18.5 25.334 -18.5 50.001c0 14.667 1.5 26.334 4.5 35.001s7.5 15.334 13.5 20.001s13.5 7.66699 22.5 9s19.5 2 31.5 2h135c28.667 0 56.334 1 83.001 3s50.167 8.16699 70.5 18.5s36.666 26.666 48.999 48.999
s18.5 54.166 18.5 95.499v483h129v-389c0 -40.667 3.16699 -77 9.5 -109s16.666 -59.167 30.999 -81.5s33.166 -39.5 56.499 -51.5s52.333 -18 87 -18c23.333 0 41 -4 53 -12s18 -24.333 18 -49c0 -14.667 -1.5 -26.334 -4.5 -35.001s-7.5 -15.5 -13.5 -20.5
s-13.333 -8.33301 -22 -10s-19 -2.5 -31 -2.5c-24 0 -46.833 2 -68.5 6s-41.667 10.833 -60 20.5s-34.666 22.167 -48.999 37.5s-26.5 34.333 -36.5 57c-16.667 -24.667 -34.5 -44.834 -53.5 -60.501s-40.5 -28 -64.5 -37s-51 -15.167 -81 -18.5s-64 -5 -102 -5h-154z
M596 -275.999c0 -12.667 -2.33301 -24.334 -7 -35.001s-11.167 -20 -19.5 -28s-18.166 -14.333 -29.499 -19s-23.333 -7 -36 -7c-24.667 0 -45.834 8.5 -63.501 25.5s-26.5 38.167 -26.5 63.5c0 24.667 8.83301 45.834 26.5 63.501s38.834 26.5 63.501 26.5
c12.667 0 24.667 -2.33301 36 -7s21.166 -11.167 29.499 -19.5s14.833 -18 19.5 -29s7 -22.5 7 -34.5zM316 -275.999c0 -25.333 -8.83301 -46.5 -26.5 -63.5s-38.834 -25.5 -63.501 -25.5s-45.5 8.5 -62.5 25.5s-25.5 38.167 -25.5 63.5c0 24.667 8.5 45.834 25.5 63.501
s37.833 26.5 62.5 26.5s45.834 -8.83301 63.501 -26.5s26.5 -38.834 26.5 -63.501zM451 -534.999c0 -24.667 -8.83301 -45.5 -26.5 -62.5s-38.834 -25.5 -63.501 -25.5s-45.834 8.5 -63.501 25.5s-26.5 37.833 -26.5 62.5c0 25.333 8.83301 46.833 26.5 64.5
s38.834 26.5 63.501 26.5s45.834 -8.83301 63.501 -26.5s26.5 -39.167 26.5 -64.5z" />
    <glyph glyph-name="uniFB67" unicode="&#x679;" horiz-adv-x="1864" arabic-form="final" 
d="M1040 915v46.0029c0 16 -1.5 31 -4.5 45s-8.5 26.167 -16.5 36.5s-18.5 18.666 -31.5 24.999s-29.5 9.5 -49.5 9.5c-19.333 0 -38.5 -4.33301 -57.5 -13s-36.667 -20.334 -53 -35.001s-31 -31.834 -44 -51.501s-23.5 -40.5 -31.5 -62.5h288zM750 1032
c59.333 80.667 126 121 200 121c50 0 88.833 -15.167 116.5 -45.5s41.5 -74.5 41.5 -132.5v-133h-526v73h98v431h70v-314zM460 0.00292969c-62.667 0 -119.163 4.50684 -169.496 13.5068s-93.333 24.667 -129 47s-63.167 52.166 -82.5 89.499s-29 84.333 -29 141v307h129
v-244c0 -49.333 5.66699 -88.833 17 -118.5s31 -52.334 59 -68.001s65.833 -26 113.5 -31s107.5 -7.5 179.5 -7.5h784c28.667 0 56.334 1 83.001 3s50.167 8.16699 70.5 18.5s36.666 26.666 48.999 48.999s18.5 54.166 18.5 95.499v483h127v-387c0 -39.333 3 -75 9 -107
s16.333 -59.333 31 -82s34.167 -40.167 58.5 -52.5s55.166 -18.5 92.499 -18.5c23.333 0 41 -4.33301 53 -13s18 -25.334 18 -50.001c0 -14.667 -1.5 -26.334 -4.5 -35.001s-7.5 -15.5 -13.5 -20.5s-13.333 -8.33301 -22 -10s-19 -2.5 -31 -2.5
c-24.667 0 -48.334 2 -71.001 6s-43.5 10.833 -62.5 20.5s-36 22.167 -51 37.5s-27.5 34.333 -37.5 57c-16 -24.667 -33.5 -44.834 -52.5 -60.501s-40.333 -28 -64 -37s-50.334 -15.167 -80.001 -18.5s-63.834 -5 -102.501 -5h-890z" />
    <glyph glyph-name="uniFB68" unicode="&#x679;" horiz-adv-x="621" arabic-form="initial" 
d="M502 1038l-0.000976562 45.0039c0 16 -1.66699 31.167 -5 45.5s-8.83301 26.666 -16.5 36.999s-18.167 18.666 -31.5 24.999s-30 9.5 -50 9.5c-19.333 0 -38.333 -4.33301 -57 -13s-36.167 -20.334 -52.5 -35.001s-31.166 -31.834 -44.499 -51.501s-24 -40.5 -32 -62.5
h289zM210.999 1155c59.333 80.667 126.333 121 201 121c49.333 0 87.833 -15.333 115.5 -46s41.5 -74.667 41.5 -132v-133h-526v73h98v430h70v-313zM-0.000976562 0.00390625c-23.333 0 -41.167 4.33008 -53.5 12.9971s-18.5 25.334 -18.5 50.001
c0 14.667 1.5 26.334 4.5 35.001s7.5 15.334 13.5 20.001s13.5 7.66699 22.5 9s19.5 2 31.5 2h352v649h129v-778h-481z" />
    <glyph glyph-name="uniFB69" unicode="&#x679;" horiz-adv-x="669" arabic-form="medial" 
d="M543 1038l-0.000976562 45.0039c0 16 -1.66699 31.167 -5 45.5s-8.83301 26.666 -16.5 36.999s-18.167 18.666 -31.5 24.999s-30 9.5 -50 9.5c-19.333 0 -38.333 -4.33301 -57 -13s-36.167 -20.334 -52.5 -35.001s-31.166 -31.834 -44.499 -51.501s-24 -40.5 -32 -62.5
h289zM251.999 1155c59.333 80.667 126.333 121 201 121c49.333 0 87.833 -15.333 115.5 -46s41.5 -74.667 41.5 -132v-133h-526v73h98v430h70v-313zM-0.000976562 0.00390625c-23.333 0 -41.166 4.33398 -53.499 13.001s-18.5 25.334 -18.5 50.001
c0 14.667 1.5 26.334 4.5 35.001s7.5 15.334 13.5 20.001s13.5 7.66699 22.5 9s19.5 2 31.5 2h135c28.667 0 56.334 1 83.001 3s50.167 8.16699 70.5 18.5s36.666 26.666 48.999 48.999s18.5 54.166 18.5 95.499v483h129v-389c0 -40.667 3.16699 -77 9.5 -109
s16.666 -59.167 30.999 -81.5s33.166 -39.5 56.499 -51.5s52.333 -18 87 -18c23.333 0 41 -4 53 -12s18 -24.333 18 -49c0 -14.667 -1.5 -26.334 -4.5 -35.001s-7.5 -15.5 -13.5 -20.5s-13.333 -8.33301 -22 -10s-19 -2.5 -31 -2.5c-24 0 -46.833 2 -68.5 6
s-41.667 10.833 -60 20.5s-34.666 22.167 -48.999 37.5s-26.5 34.333 -36.5 57c-16.667 -24.667 -34.5 -44.834 -53.5 -60.501s-40.5 -28 -64.5 -37s-51 -15.167 -81 -18.5s-64 -5 -102 -5h-154z" />
    <glyph glyph-name="uniFB6B" unicode="&#x6a4;" horiz-adv-x="2168" arabic-form="final" 
d="M1376 398c0 -45.333 7.33301 -84.834 22 -118.501s35 -61.667 61 -84s56.5 -39 91.5 -50s73.167 -16.5 114.5 -16.5h230v240c0 36.667 -3.66699 73.5 -11 110.5s-20.5 70.333 -39.5 100s-44.667 53.834 -77 72.501s-73.833 28 -124.5 28c-44 0 -82.5 -7.5 -115.5 -22.5
s-60.833 -35.333 -83.5 -61s-39.667 -55.667 -51 -90s-17 -70.5 -17 -108.5zM460 -0.000976562c-62.667 0 -119.168 4.50195 -169.501 13.502s-93.333 24.667 -129 47s-63.167 52.166 -82.5 89.499s-29 84.333 -29 141v307h129v-244c0 -49.333 5.66699 -88.833 17 -118.5
s31 -52.334 59 -68.001s65.833 -26 113.5 -31s107.5 -7.5 179.5 -7.5h794c-16 16 -30 34.5 -42 55.5s-21.833 42.833 -29.5 65.5s-13.334 45 -17.001 67s-5.5 42.667 -5.5 62c0 53.333 8.33301 105.666 25 156.999s41.667 97.333 75 138s75 73.334 125 98.001
s108.667 37 176 37c49.333 0 92.833 -6.16699 130.5 -18.5s70.334 -29.166 98.001 -50.499s50.834 -46.333 69.501 -75s33.667 -59 45 -91s19.5 -65.167 24.5 -99.5s7.5 -67.5 7.5 -99.5v-246h144c23.333 0 41 -4 53 -12s18 -24.333 18 -49
c0 -14.667 -1.5 -26.334 -4.5 -35.001s-7.5 -15.5 -13.5 -20.5s-13.333 -8.33301 -22 -10s-19 -2.5 -31 -2.5h-1708zM1384 1161c0 24.667 8.66699 45.5 26 62.5s38.666 25.5 63.999 25.5c24.667 0 45.834 -8.5 63.501 -25.5s26.5 -37.833 26.5 -62.5
s-8.83301 -45.834 -26.5 -63.501s-38.834 -26.5 -63.501 -26.5c-25.333 0 -46.666 8.83301 -63.999 26.5s-26 38.834 -26 63.501zM1662 1161c0 24.667 8.83301 45.5 26.5 62.5s38.834 25.5 63.501 25.5s45.834 -8.5 63.501 -25.5s26.5 -37.833 26.5 -62.5
s-8.83301 -45.834 -26.5 -63.501s-38.834 -26.5 -63.501 -26.5s-45.834 8.83301 -63.501 26.5s-26.5 38.834 -26.5 63.501zM1527 1419c0 24.667 8.83301 45.499 26.5 62.499s38.834 25.5 63.501 25.5c12 0 23.667 -2.33301 35 -7s21.166 -11 29.499 -19s15 -17.333 20 -28
s7.5 -22 7.5 -34s-2.5 -23.5 -7.5 -34.5s-11.667 -20.667 -20 -29s-18.166 -14.833 -29.499 -19.5s-23 -7 -35 -7c-24.667 0 -45.834 8.83301 -63.501 26.5s-26.5 38.834 -26.5 63.501z" />
    <glyph glyph-name="uniFB6C" unicode="&#x6a4;" horiz-adv-x="1089" arabic-form="initial" 
d="M319 398c0 -45.333 7.33301 -84.833 22 -118.5s35 -61.667 61 -84s56.5 -39 91.5 -50s73.167 -16.5 114.5 -16.5h230v240c0 36.667 -3.66699 73.5 -11 110.5s-20.5 70.333 -39.5 100s-44.667 53.834 -77 72.501s-73.833 28 -124.5 28c-41.333 0 -78.5 -7 -111.5 -21
s-61 -33.5 -84 -58.5s-40.667 -54.833 -53 -89.5s-18.5 -72.334 -18.5 -113.001zM0 0c-23.333 0 -41.167 4.32812 -53.5 12.9951s-18.5 25.334 -18.5 50.001c0 14.667 1.5 26.334 4.5 35.001s7.5 15.334 13.5 20.001s13.5 7.66699 22.5 9s19.5 2 31.5 2h285
c-14.667 14.667 -27.834 32 -39.501 52s-21.5 41.333 -29.5 64s-14.167 46.167 -18.5 70.5s-6.5 48.833 -6.5 73.5c0 54.667 9 107.334 27 158.001s44 95.5 78 134.5s75.5 70 124.5 93s104.5 34.5 166.5 34.5c50.667 0 95.334 -6.16699 134.001 -18.5
s72.167 -29.166 100.5 -50.499s51.833 -46.333 70.5 -75s33.5 -59 44.5 -91s18.833 -65.167 23.5 -99.5s7 -67.5 7 -99.5v-375h-967zM354.999 1161c0 24.667 8.66699 45.5 26 62.5s38.666 25.5 63.999 25.5c24.667 0 45.834 -8.5 63.501 -25.5s26.5 -37.833 26.5 -62.5
s-8.83301 -45.834 -26.5 -63.501s-38.834 -26.5 -63.501 -26.5c-25.333 0 -46.666 8.83301 -63.999 26.5s-26 38.834 -26 63.501zM632.999 1161c0 24.667 8.83301 45.5 26.5 62.5s38.834 25.5 63.501 25.5s45.834 -8.5 63.501 -25.5s26.5 -37.833 26.5 -62.5
s-8.83301 -45.834 -26.5 -63.501s-38.834 -26.5 -63.501 -26.5s-45.834 8.83301 -63.501 26.5s-26.5 38.834 -26.5 63.501zM497.999 1419c0 24.667 8.83301 45.499 26.5 62.499s38.834 25.5 63.501 25.5c12 0 23.667 -2.33301 35 -7s21.166 -11 29.499 -19
s15 -17.333 20 -28s7.5 -22 7.5 -34s-2.5 -23.5 -7.5 -34.5s-11.667 -20.667 -20 -29s-18.166 -14.833 -29.499 -19.5s-23 -7 -35 -7c-24.667 0 -45.834 8.83301 -63.501 26.5s-26.5 38.834 -26.5 63.501z" />
    <glyph glyph-name="uniFB6D" unicode="&#x6a4;" horiz-adv-x="1094" arabic-form="medial" 
d="M347 1161c0 24.667 8.66699 45.5 26 62.5s38.666 25.5 63.999 25.5c24.667 0 45.834 -8.5 63.501 -25.5s26.5 -37.833 26.5 -62.5s-8.83301 -45.834 -26.5 -63.501s-38.834 -26.5 -63.501 -26.5c-25.333 0 -46.666 8.83301 -63.999 26.5s-26 38.834 -26 63.501zM625 1161
c0 24.667 8.83301 45.5 26.5 62.5s38.834 25.5 63.501 25.5s45.834 -8.5 63.501 -25.5s26.5 -37.833 26.5 -62.5s-8.83301 -45.834 -26.5 -63.501s-38.834 -26.5 -63.501 -26.5s-45.834 8.83301 -63.501 26.5s-26.5 38.834 -26.5 63.501zM490 1419
c0 24.667 8.83301 45.499 26.5 62.499s38.834 25.5 63.501 25.5c12 0 23.667 -2.33301 35 -7s21.166 -11 29.499 -19s15 -17.333 20 -28s7.5 -22 7.5 -34s-2.5 -23.5 -7.5 -34.5s-11.667 -20.667 -20 -29s-18.166 -14.833 -29.499 -19.5s-23 -7 -35 -7
c-24.667 0 -45.834 8.83301 -63.501 26.5s-26.5 38.834 -26.5 63.501zM0 -0.000976562c-23.333 0 -41.168 4.33008 -53.501 12.9971s-18.5 25.334 -18.5 50.001c0 14.667 1.5 26.334 4.5 35.001s7.5 15.334 13.5 20.001s13.5 7.66699 22.5 9s19.5 2 31.5 2h285
c-16 16 -30 34.5 -42 55.5s-21.833 42.833 -29.5 65.5s-13.334 45 -17.001 67s-5.5 42.667 -5.5 62c0 53.333 8.33301 105.666 25 156.999s41.667 97.333 75 138s75 73.334 125 98.001s108.667 37 176 37c49.333 0 92.833 -6.16699 130.5 -18.5
s70.334 -29.166 98.001 -50.499s50.834 -46.333 69.501 -75s33.667 -59 45 -91s19.5 -65.167 24.5 -99.5s7.5 -67.5 7.5 -99.5v-246h145c23.333 0 41 -4 53 -12s18 -24.333 18 -49c0 -14.667 -1.5 -26.334 -4.5 -35.001s-7.5 -15.5 -13.5 -20.5s-13.333 -8.33301 -22 -10
s-19 -2.5 -31 -2.5h-1112zM318.998 397.996c0 -45.333 7.33301 -84.834 22 -118.501s35 -61.667 61 -84s56.5 -39 91.5 -50s73.167 -16.5 114.5 -16.5h230v240c0 36.667 -3.66699 73.5 -11 110.5s-20.5 70.333 -39.5 100s-44.667 53.834 -77 72.501s-73.833 28 -124.5 28
c-44 0 -82.5 -7.5 -115.5 -22.5s-60.833 -35.333 -83.5 -61s-39.667 -55.667 -51 -90s-17 -70.5 -17 -108.5z" />
    <glyph glyph-name="uniFB7B" unicode="&#x686;" horiz-adv-x="1315" arabic-form="final" 
d="M1318 0h-722.998c-31.333 0 -63.833 -1.33301 -97.5 -4s-66.667 -8 -99 -16s-63 -19.667 -92 -35s-54.5 -35.333 -76.5 -60s-39.333 -55.167 -52 -91.5s-19 -79.833 -19 -130.5c0 -61.333 12.667 -114.166 38 -158.499s59.5 -81 102.5 -110s92.833 -50.5 149.5 -64.5
s116.667 -21 180 -21c50 0 105.833 6.16699 167.5 18.5s129.167 35.5 202.5 69.5l50 -107c-38 -22.667 -78 -41.167 -120 -55.5s-82.167 -25.5 -120.5 -33.5s-73 -13.5 -104 -16.5s-54.833 -4.5 -71.5 -4.5c-88.667 0 -169.834 10 -243.501 30s-137.167 50 -190.5 90
s-94.833 89.667 -124.5 149s-44.5 128.666 -44.5 207.999c0 66.667 7.83301 124.5 23.5 173.5s37 91 64 126s58.833 63.667 95.5 86s76 39.833 118 52.5s85.667 21.5 131 26.5s90.333 7.5 135 7.5h480c0 100 -11.667 185 -35 255s-56.166 127 -98.499 171s-93 76 -152 96
s-124.167 30 -195.5 30c-37.333 0 -75.333 -2.66699 -114 -8s-74 -11.666 -106 -18.999v116c28.667 8 64.167 16.5 106.5 25.5s87.833 13.5 136.5 13.5c70.667 0 134.167 -8.16699 190.5 -24.5s106.333 -39.5 150 -69.5s81 -65.833 112 -107.5s56.5 -87.667 76.5 -138
s34.667 -104.333 44 -162s14 -117.167 14 -178.5h109c23.333 0 41 -4 53 -12s18 -24.333 18 -49c0 -14.667 -1.5 -26.334 -4.5 -35.001s-7.33301 -15.5 -13 -20.5s-12.834 -8.33301 -21.501 -10s-18.334 -2.5 -29.001 -2.5zM945.002 -235
c0 -12.667 -2.33301 -24.334 -7 -35.001s-11.167 -20 -19.5 -28s-18.166 -14.333 -29.499 -19s-23.333 -7 -36 -7c-24.667 0 -45.834 8.5 -63.501 25.5s-26.5 38.167 -26.5 63.5c0 24.667 8.83301 45.834 26.5 63.501s38.834 26.5 63.501 26.5
c12.667 0 24.667 -2.33301 36 -7s21.166 -11.167 29.499 -19.5s14.833 -18 19.5 -29s7 -22.5 7 -34.5zM665.002 -235c0 -25.333 -8.83301 -46.5 -26.5 -63.5s-38.834 -25.5 -63.501 -25.5s-45.5 8.5 -62.5 25.5s-25.5 38.167 -25.5 63.5c0 24.667 8.5 45.834 25.5 63.501
s37.833 26.5 62.5 26.5s45.834 -8.83301 63.501 -26.5s26.5 -38.834 26.5 -63.501zM800.002 -494c0 -24.667 -8.83301 -45.5 -26.5 -62.5s-38.834 -25.5 -63.501 -25.5s-45.834 8.5 -63.501 25.5s-26.5 37.833 -26.5 62.5c0 25.333 8.83301 46.833 26.5 64.5
s38.834 26.5 63.501 26.5s45.834 -8.83301 63.501 -26.5s26.5 -39.167 26.5 -64.5z" />
    <glyph glyph-name="uniFB7C" unicode="&#x686;" horiz-adv-x="1109" arabic-form="initial" 
d="M0 0c-23.333 0 -41.1699 4.33008 -53.5029 12.9971s-18.5 25.334 -18.5 50.001c0 14.667 1.5 26.334 4.5 35.001s7.5 15.334 13.5 20.001s13.5 7.66699 22.5 9s19.5 2 31.5 2h870c0 100 -11.667 185 -35 255s-56 127 -98 171s-92.333 76 -151 96s-123.667 30 -195 30
c-37.333 0 -75.5 -2.66699 -114.5 -8s-74.5 -11.666 -106.5 -18.999v116c28.667 8 64.334 16.5 107.001 25.5s88.334 13.5 137.001 13.5c104.667 0 194.167 -18 268.5 -54s134.833 -84.833 181.5 -146.5s80.834 -133.334 102.501 -215.001s32.5 -168.5 32.5 -260.5v-133
h-999zM709.996 -276.003c0 -12.667 -2.33301 -24.334 -7 -35.001s-11.167 -20 -19.5 -28s-18.166 -14.333 -29.499 -19s-23.333 -7 -36 -7c-24.667 0 -45.834 8.5 -63.501 25.5s-26.5 38.167 -26.5 63.5c0 24.667 8.83301 45.834 26.5 63.501s38.834 26.5 63.501 26.5
c12.667 0 24.667 -2.33301 36 -7s21.166 -11.167 29.499 -19.5s14.833 -18 19.5 -29s7 -22.5 7 -34.5zM429.996 -276.003c0 -25.333 -8.83301 -46.5 -26.5 -63.5s-38.834 -25.5 -63.501 -25.5s-45.5 8.5 -62.5 25.5s-25.5 38.167 -25.5 63.5
c0 24.667 8.5 45.834 25.5 63.501s37.833 26.5 62.5 26.5s45.834 -8.83301 63.501 -26.5s26.5 -38.834 26.5 -63.501zM564.996 -535.003c0 -24.667 -8.83301 -45.5 -26.5 -62.5s-38.834 -25.5 -63.501 -25.5s-45.834 8.5 -63.501 25.5s-26.5 37.833 -26.5 62.5
c0 25.333 8.83301 46.833 26.5 64.5s38.834 26.5 63.501 26.5s45.834 -8.83301 63.501 -26.5s26.5 -39.167 26.5 -64.5z" />
    <glyph glyph-name="uniFB7D" unicode="&#x686;" horiz-adv-x="1110" arabic-form="medial" 
d="M0 0c-23.333 0 -41.168 4.33008 -53.501 12.9971s-18.5 25.334 -18.5 50.001c0 14.667 1.5 26.334 4.5 35.001s7.5 15.334 13.5 20.001s13.5 7.66699 22.5 9s19.5 2 31.5 2h870c0 100 -11.667 185 -35 255s-56.166 127 -98.499 171s-93 76 -152 96s-124.167 30 -195.5 30
c-37.333 0 -75.333 -2.66699 -114 -8s-74 -11.666 -106 -18.999v116c28.667 8 64.167 16.5 106.5 25.5s87.833 13.5 136.5 13.5c70.667 0 134.167 -8.16699 190.5 -24.5s106.333 -39.5 150 -69.5s81 -65.833 112 -107.5s56.5 -87.667 76.5 -138s34.667 -104.333 44 -162
s14 -117.167 14 -178.5h111c23.333 0 41 -4 53 -12s18 -24.333 18 -49c0 -14.667 -1.5 -26.334 -4.5 -35.001s-7.5 -15.5 -13.5 -20.5s-13.333 -8.33301 -22 -10s-19 -2.5 -31 -2.5h-1110zM709.998 -276.003c0 -12.667 -2.33301 -24.334 -7 -35.001s-11.167 -20 -19.5 -28
s-18.166 -14.333 -29.499 -19s-23.333 -7 -36 -7c-24.667 0 -45.834 8.5 -63.501 25.5s-26.5 38.167 -26.5 63.5c0 24.667 8.83301 45.834 26.5 63.501s38.834 26.5 63.501 26.5c12.667 0 24.667 -2.33301 36 -7s21.166 -11.167 29.499 -19.5s14.833 -18 19.5 -29
s7 -22.5 7 -34.5zM429.998 -276.003c0 -25.333 -8.83301 -46.5 -26.5 -63.5s-38.834 -25.5 -63.501 -25.5s-45.5 8.5 -62.5 25.5s-25.5 38.167 -25.5 63.5c0 24.667 8.5 45.834 25.5 63.501s37.833 26.5 62.5 26.5s45.834 -8.83301 63.501 -26.5s26.5 -38.834 26.5 -63.501z
M564.998 -535.003c0 -24.667 -8.83301 -45.5 -26.5 -62.5s-38.834 -25.5 -63.501 -25.5s-45.834 8.5 -63.501 25.5s-26.5 37.833 -26.5 62.5c0 25.333 8.83301 46.833 26.5 64.5s38.834 26.5 63.501 26.5s45.834 -8.83301 63.501 -26.5s26.5 -39.167 26.5 -64.5z" />
    <glyph glyph-name="uniFB89" unicode="&#x688;" horiz-adv-x="973" arabic-form="final" 
d="M666 1106l-0.000976562 45.002c0 16 -1.66699 31 -5 45s-8.83301 26.333 -16.5 37s-18.167 19.167 -31.5 25.5s-30 9.5 -50 9.5c-19.333 0 -38.333 -4.33301 -57 -13s-36.167 -20.334 -52.5 -35.001s-31.166 -31.834 -44.499 -51.501s-24 -40.5 -32 -62.5h289z
M374.999 1223c58.667 80 125.333 120 200 120c50 0 88.833 -15.167 116.5 -45.5s41.5 -74.5 41.5 -132.5v-133h-526v74h98v430h70v-313zM964.998 0.00195312c-22 0 -42.668 4.16699 -62.001 12.5s-36.833 18.5 -52.5 30.5s-29.334 24.833 -41.001 38.5
s-21.167 25.834 -28.5 36.501c-15.333 -28 -34 -49.833 -56 -65.5s-44.833 -27.5 -68.5 -35.5s-47.167 -12.833 -70.5 -14.5s-44 -2.5 -62 -2.5h-463v129h464c14 0 29.333 0.666992 46 2s32.334 4.83301 47.001 10.5s27 14.167 37 25.5s15 27 15 47
c0 17.333 -3.66699 36 -11 56s-17.5 41.5 -30.5 64.5s-28.167 47.667 -45.5 74l-56 83.5l-167 247l117 76l171 -268l54 -87.5l56 -93l56 -89.5c18.667 -28.667 36.834 -54 54.501 -76s34.667 -39.5 51 -52.5s31.5 -19.5 45.5 -19.5h8c23.333 0 41 -4 53 -12
s18 -24.333 18 -49c0 -14.667 -1.5 -26.334 -4.5 -35.001s-7.5 -15.5 -13.5 -20.5s-13.333 -8.33301 -22 -10s-19 -2.5 -31 -2.5h-8z" />
    <glyph glyph-name="uniFB8B" unicode="&#x698;" horiz-adv-x="642" arabic-form="final" 
d="M458 53c0 -94 -5.49707 -174.665 -16.4971 -241.998s-30.167 -122.833 -57.5 -166.5s-64.333 -75.834 -111 -96.501s-105.334 -31 -176.001 -31h-57v132h57c53.333 0 95.5 9.16699 126.5 27.5s54.5 45.833 70.5 82.5s26.167 82.167 30.5 136.5s6.5 117.5 6.5 189.5v693
h129v-387c0 -40.667 2.5 -77.167 7.5 -109.5s14.333 -59.833 28 -82.5s32.167 -40 55.5 -52s53.666 -18 90.999 -18c23.333 0 41.166 -4 53.499 -12s18.5 -24.333 18.5 -49c0 -14.667 -1.5 -26.334 -4.5 -35.001s-7.5 -15.5 -13.5 -20.5s-13.5 -8.33301 -22.5 -10
s-19.5 -2.5 -31.5 -2.5c-48 0 -86.833 7.16699 -116.5 21.5s-52.167 36.833 -67.5 67.5v-36zM161.003 1039c0 24.667 8.66699 45.5 26 62.5s38.666 25.5 63.999 25.5c24.667 0 45.834 -8.5 63.501 -25.5s26.5 -37.833 26.5 -62.5s-8.83301 -45.834 -26.5 -63.501
s-38.834 -26.5 -63.501 -26.5c-25.333 0 -46.666 8.83301 -63.999 26.5s-26 38.834 -26 63.501zM439.003 1039c0 24.667 8.83301 45.5 26.5 62.5s38.834 25.5 63.501 25.5s45.834 -8.5 63.501 -25.5s26.5 -37.833 26.5 -62.5s-8.83301 -45.834 -26.5 -63.501
s-38.834 -26.5 -63.501 -26.5s-45.834 8.83301 -63.501 26.5s-26.5 38.834 -26.5 63.501zM304.003 1297c0 24.667 8.83301 45.499 26.5 62.499s38.834 25.5 63.501 25.5c12 0 23.667 -2.33301 35 -7s21.166 -11 29.499 -19s15 -17.333 20 -28s7.5 -22 7.5 -34
s-2.5 -23.5 -7.5 -34.5s-11.667 -20.667 -20 -29s-18.166 -14.833 -29.499 -19.5s-23 -7 -35 -7c-24.667 0 -45.834 8.83301 -63.501 26.5s-26.5 38.834 -26.5 63.501z" />
    <glyph glyph-name="uniFB8D" unicode="&#x691;" horiz-adv-x="642" arabic-form="final" 
d="M510 1038l-0.000976562 45.0039c0 16 -1.66699 31.167 -5 45.5s-8.83301 26.666 -16.5 36.999s-18 18.666 -31 24.999s-29.5 9.5 -49.5 9.5c-19.333 0 -38.5 -4.33301 -57.5 -13s-36.667 -20.334 -53 -35.001s-31.166 -31.834 -44.499 -51.501s-24 -40.5 -32 -62.5h289z
M218.999 1155c60.667 80.667 127.667 121 201 121c49.333 0 88 -15.333 116 -46s42 -74.667 42 -132v-133h-527v73h99v430h69v-313zM457.999 53.0039c0 -94 -5.49707 -174.665 -16.4971 -241.998s-30.167 -122.833 -57.5 -166.5s-64.333 -75.834 -111 -96.501
s-105.334 -31 -176.001 -31h-57v132h57c53.333 0 95.5 9.16699 126.5 27.5s54.5 45.833 70.5 82.5s26.167 82.167 30.5 136.5s6.5 117.5 6.5 189.5v693h129v-387c0 -40.667 2.5 -77.167 7.5 -109.5s14.333 -59.833 28 -82.5s32.167 -40 55.5 -52s53.666 -18 90.999 -18
c23.333 0 41.166 -4 53.499 -12s18.5 -24.333 18.5 -49c0 -14.667 -1.5 -26.334 -4.5 -35.001s-7.5 -15.5 -13.5 -20.5s-13.5 -8.33301 -22.5 -10s-19.5 -2.5 -31.5 -2.5c-48 0 -86.833 7.16699 -116.5 21.5s-52.167 36.833 -67.5 67.5v-36z" />
    <glyph glyph-name="uniFB8F" unicode="&#x6a9;" horiz-adv-x="1923" arabic-form="final" 
d="M1363 129c62 0 109.003 13.335 141.003 40.002s48 67.334 48 122.001c0 41.333 -12.333 84.666 -37 129.999s-60.834 90.333 -108.501 135s-106.5 88.334 -176.5 131.001s-150.667 82 -242 118v152l665 432v-145l-539 -350c152 -70 274.833 -147.5 368.5 -232.5
s156.167 -181.833 187.5 -290.5c22.667 -78.667 53.167 -138.334 91.5 -179.001s81.833 -61 130.5 -61h32c23.333 0 41.166 -4.33301 53.499 -13s18.5 -25.334 18.5 -50.001c0 -14.667 -1.5 -26.334 -4.5 -35.001s-7.5 -15.5 -13.5 -20.5s-13.5 -8.33301 -22.5 -10
s-19.5 -2.5 -31.5 -2.5h-32c-33.333 -0 -62.5 4.33301 -87.5 13s-46.833 20.334 -65.5 35.001s-34.834 31.834 -48.501 51.501s-25.5 40.5 -35.5 62.5c-14 -34 -32.333 -61.667 -55 -83s-48.167 -37.833 -76.5 -49.5s-58.5 -19.5 -90.5 -23.5s-64 -6 -96 -6h-877
c-62.667 0 -119.167 4.5 -169.5 13.5s-93.333 24.667 -129 47s-63.167 52.166 -82.5 89.499s-29 84.333 -29 141v307h129v-244c0 -49.333 5.66699 -88.833 17 -118.5s31 -52.334 59 -68.001s65.833 -26 113.5 -31s107.5 -7.5 179.5 -7.5h815z" />
    <glyph glyph-name="uniFB90" unicode="&#x6a9;" horiz-adv-x="941" arabic-form="initial" 
d="M0 0c-23.333 0 -41.168 4.32715 -53.501 12.9941s-18.5 25.334 -18.5 50.001c0 14.667 1.5 26.334 4.5 35.001s7.5 15.334 13.5 20.001s13.5 7.66699 22.5 9s19.5 2 31.5 2h504c30 0 57.5 2.5 82.5 7.5s46.5 13.833 64.5 26.5s31.833 29.334 41.5 50.001
s14.5 46.667 14.5 78c0 42.667 -12.833 87 -38.5 133s-62.834 91.333 -111.501 136s-107.834 87.834 -177.501 129.501s-148.5 80.167 -236.5 115.5v152l665 432v-145l-539 -350c114.667 -51.333 208.334 -104.333 281.001 -159s129.834 -108.5 171.501 -161.5
s70.334 -103.833 86.001 -152.5s23.5 -92.667 23.5 -132c0 -28 -3.33301 -58.667 -10 -92s-21.5 -64.666 -44.5 -93.999s-56.333 -53.833 -100 -73.5s-102.5 -29.5 -176.5 -29.5h-500z" />
    <glyph glyph-name="uniFB91" unicode="&#x6a9;" horiz-adv-x="1079" arabic-form="medial" 
d="M0 0c-23.333 0 -41.1641 4.32812 -53.4971 12.9951s-18.5 25.334 -18.5 50.001c0 14.667 1.5 26.334 4.5 35.001s7.5 15.334 13.5 20.001s13.5 7.66699 22.5 9s19.5 2 31.5 2h518c62 0 109 13.333 141 40s48 67.334 48 122.001c0 41.333 -12.333 84.666 -37 129.999
s-60.834 90.333 -108.501 135s-106.5 88.334 -176.5 131.001s-150.667 82 -242 118v152l665 432v-145l-539 -350c152 -70 274.833 -147.5 368.5 -232.5s156.167 -181.833 187.5 -290.5c22.667 -78.667 53.167 -138.667 91.5 -180s81.833 -62 130.5 -62h32
c23.333 0 41.166 -4 53.499 -12s18.5 -24.333 18.5 -49c0 -14.667 -1.5 -26.334 -4.5 -35.001s-7.5 -15.5 -13.5 -20.5s-13.5 -8.33301 -22.5 -10s-19.5 -2.5 -31.5 -2.5h-32c-33.333 0 -62.5 4.33301 -87.5 13s-46.833 20.334 -65.5 35.001s-34.834 31.834 -48.501 51.501
s-25.5 40.5 -35.5 62.5c-14 -34 -32.333 -61.667 -55 -83s-48.167 -37.833 -76.5 -49.5s-58.5 -19.5 -90.5 -23.5s-64 -6 -96 -6h-492z" />
    <glyph glyph-name="uniFB93" unicode="&#x6af;" horiz-adv-x="1923" arabic-form="final" 
d="M1363 129c62 0 109.003 13.335 141.003 40.002s48 67.334 48 122.001c0 41.333 -12.333 84.666 -37 129.999s-60.834 90.333 -108.501 135s-106.5 88.334 -176.5 131.001s-150.667 82 -242 118v152l665 432v-145l-539 -350c152 -70 274.833 -147.5 368.5 -232.5
s156.167 -181.833 187.5 -290.5c22.667 -78.667 53.167 -138.334 91.5 -179.001s81.833 -61 130.5 -61h32c23.333 0 41.166 -4.33301 53.499 -13s18.5 -25.334 18.5 -50.001c0 -14.667 -1.5 -26.334 -4.5 -35.001s-7.5 -15.5 -13.5 -20.5s-13.5 -8.33301 -22.5 -10
s-19.5 -2.5 -31.5 -2.5h-32c-33.333 -0 -62.5 4.33301 -87.5 13s-46.833 20.334 -65.5 35.001s-34.834 31.834 -48.501 51.501s-25.5 40.5 -35.5 62.5c-14 -34 -32.333 -61.667 -55 -83s-48.167 -37.833 -76.5 -49.5s-58.5 -19.5 -90.5 -23.5s-64 -6 -96 -6h-877
c-62.667 0 -119.167 4.5 -169.5 13.5s-93.333 24.667 -129 47s-63.167 52.166 -82.5 89.499s-29 84.333 -29 141v307h129v-244c0 -49.333 5.66699 -88.833 17 -118.5s31 -52.334 59 -68.001s65.833 -26 113.5 -31s107.5 -7.5 179.5 -7.5h815zM983.003 1067v125l667 422v-122
z" />
    <glyph glyph-name="uniFB94" unicode="&#x6af;" horiz-adv-x="941" arabic-form="initial" 
d="M0 0c-23.333 0 -41.168 4.32715 -53.501 12.9941s-18.5 25.334 -18.5 50.001c0 14.667 1.5 26.334 4.5 35.001s7.5 15.334 13.5 20.001s13.5 7.66699 22.5 9s19.5 2 31.5 2h504c30 0 57.5 2.5 82.5 7.5s46.5 13.833 64.5 26.5s31.833 29.334 41.5 50.001
s14.5 46.667 14.5 78c0 42.667 -12.833 87 -38.5 133s-62.834 91.333 -111.501 136s-107.834 87.834 -177.501 129.501s-148.5 80.167 -236.5 115.5v152l665 432v-145l-539 -350c114.667 -51.333 208.334 -104.333 281.001 -159s129.834 -108.5 171.501 -161.5
s70.334 -103.833 86.001 -152.5s23.5 -92.667 23.5 -132c0 -28 -3.33301 -58.667 -10 -92s-21.5 -64.666 -44.5 -93.999s-56.333 -53.833 -100 -73.5s-102.5 -29.5 -176.5 -29.5h-500zM141.998 1066.99v125l667 422v-122z" />
    <glyph glyph-name="uniFB95" unicode="&#x6af;" horiz-adv-x="1079" arabic-form="medial" 
d="M0 0c-23.333 0 -41.1641 4.32812 -53.4971 12.9951s-18.5 25.334 -18.5 50.001c0 14.667 1.5 26.334 4.5 35.001s7.5 15.334 13.5 20.001s13.5 7.66699 22.5 9s19.5 2 31.5 2h518c62 0 109 13.333 141 40s48 67.334 48 122.001c0 41.333 -12.333 84.666 -37 129.999
s-60.834 90.333 -108.501 135s-106.5 88.334 -176.5 131.001s-150.667 82 -242 118v152l665 432v-145l-539 -350c152 -70 274.833 -147.5 368.5 -232.5s156.167 -181.833 187.5 -290.5c22.667 -78.667 53.167 -138.667 91.5 -180s81.833 -62 130.5 -62h32
c23.333 0 41.166 -4 53.499 -12s18.5 -24.333 18.5 -49c0 -14.667 -1.5 -26.334 -4.5 -35.001s-7.5 -15.5 -13.5 -20.5s-13.5 -8.33301 -22.5 -10s-19.5 -2.5 -31.5 -2.5h-32c-33.333 0 -62.5 4.33301 -87.5 13s-46.833 20.334 -65.5 35.001s-34.834 31.834 -48.501 51.501
s-25.5 40.5 -35.5 62.5c-14 -34 -32.333 -61.667 -55 -83s-48.167 -37.833 -76.5 -49.5s-58.5 -19.5 -90.5 -23.5s-64 -6 -96 -6h-492zM143.002 1067v125l667 422v-122z" />
    <glyph glyph-name="uniFB9F" unicode="&#x6ba;" horiz-adv-x="1369" arabic-form="final" 
d="M1183 2c0 -89.333 -11.501 -164.83 -34.501 -226.497s-57.833 -111.667 -104.5 -150s-105.667 -66 -177 -83s-155.333 -25.5 -252 -25.5c-185.333 0 -325.833 38.167 -421.5 114.5s-143.5 194.5 -143.5 354.5v307h129v-273c0 -68.667 9.33301 -126.834 28 -174.501
s46.5 -86.167 83.5 -115.5s82.833 -50.666 137.5 -63.999s118.334 -20 191.001 -20c76 0 141.5 5.66699 196.5 17s100.167 30.666 135.5 57.999s61.333 64 78 110s25 103.667 25 173v656h129v-269c0 -40.667 2.66699 -77 8 -109s15 -59.167 29 -81.5s33 -39.5 57 -51.5
s54.667 -18 92 -18c23.333 0 41.166 -4.33301 53.499 -13s18.5 -25.334 18.5 -50.001c0 -14.667 -1.5 -26.334 -4.5 -35.001s-7.5 -15.5 -13.5 -20.5s-13.5 -8.33301 -22.5 -10s-19.5 -2.5 -31.5 -2.5c-48 0 -87.167 7.66699 -117.5 23s-53.166 38.333 -68.499 69v-90z" />
    <glyph glyph-name="uniFBA7" unicode="&#x6c1;" horiz-adv-x="654" arabic-form="final" 
d="M613 0c-27.333 0 -51.165 3.83203 -71.498 11.499s-38.333 17.334 -54 29.001s-29.334 24.834 -41.001 39.501s-22.167 29 -31.5 43c-13.333 20 -25.5 37.5 -36.5 52.5s-21.667 27.167 -32 36.5s-21 16.333 -32 21s-23.5 7 -37.5 7c-40 0 -70.833 -20 -92.5 -60
s-32.5 -95.333 -32.5 -166v-32.5c0 -10.333 0.666992 -21.166 2 -32.499h-100c-1.33301 11.333 -2.33301 22.666 -3 33.999s-1 23.666 -1 36.999c0 50.667 5.5 97.167 16.5 139.5s26.5 78.666 46.5 108.999s44.167 54 72.5 71s59.5 25.5 93.5 25.5
c36 0 69.833 -9.16699 101.5 -27.5s58.167 -45.5 79.5 -81.5c11.333 -19.333 22.5 -36.666 33.5 -51.999s22.833 -28.666 35.5 -39.999s26.5 -20 41.5 -26s32.5 -9 52.5 -9h31c23.333 0 41.166 -4 53.499 -12s18.5 -24.333 18.5 -49c0 -14.667 -1.5 -26.334 -4.5 -35.001
s-7.5 -15.5 -13.5 -20.5s-13.5 -8.33301 -22.5 -10s-19.5 -2.5 -31.5 -2.5h-41z" />
    <glyph glyph-name="uniFBA8" unicode="&#x6c1;" horiz-adv-x="621" arabic-form="initial" 
d="M336 0c-17.333 -28 -30.1699 -54.6699 -38.5029 -80.0029s-12.5 -50 -12.5 -74c0 -32 7.66699 -58 23 -78s39.666 -30 72.999 -30h13.5c5.66699 0 10.834 0.666992 15.501 2c-8.66699 -30 -23.167 -51.5 -43.5 -64.5s-40.833 -19.5 -61.5 -19.5
c-22 0 -41.167 3.66699 -57.5 11s-29.666 17.5 -39.999 30.5s-18.166 28.167 -23.499 45.5s-8 36 -8 56c0 32 6.33301 65.5 19 100.5s29.667 68.5 51 100.5h-246c-23.333 0 -41.166 4.33301 -53.499 13s-18.5 25.334 -18.5 50.001c0 14.667 1.5 26.334 4.5 35.001
s7.5 15.334 13.5 20.001s13.5 7.66699 22.5 9s19.5 2 31.5 2h352v649h129v-778h-145z" />
    <glyph glyph-name="uniFBA9" unicode="&#x6c1;" horiz-adv-x="944" arabic-form="medial" 
d="M0 0c-23.333 0 -41.166 4.33398 -53.499 13.001s-18.5 25.334 -18.5 50.001c0 14.667 1.5 26.334 4.5 35.001s7.5 15.334 13.5 20.001s13.5 7.66699 22.5 9s19.5 2 31.5 2h385c-28 -64.667 -49.333 -123 -64 -175s-22 -100 -22 -144c0 -17.333 1.66699 -36.833 5 -58.5
s9.83301 -43.334 19.5 -65.001s22.667 -41.834 39 -60.501s37.5 -33.334 63.5 -44.001c12 94 32 175.333 60 244s62.5 125.5 103.5 170.5s88.333 78.333 142 100s112.167 32.5 175.5 32.5h37c23.333 0 41.166 -4 53.499 -12s18.5 -24.333 18.5 -49
c0 -14.667 -1.5 -26.334 -4.5 -35.001s-7.5 -15.5 -13.5 -20.5s-13.5 -8.33301 -22.5 -10s-19.5 -2.5 -31.5 -2.5h-70c-56 0 -104.667 -11.5 -146 -34.5s-76.333 -58 -105 -105s-51.667 -106.5 -69 -178.5s-30 -157 -38 -255c-218.667 44.667 -328 164 -328 358
c0 8 0.166992 18.667 0.5 32s2 29.166 5 47.499s7.83301 38.833 14.5 61.5s16 47.334 28 74.001h-236z" />
    <glyph glyph-name="uniFBAB" unicode="&#x6be;" horiz-adv-x="1130" arabic-form="final" 
d="M427 129h118.999c59.333 0 109.333 11.333 150 34s73.5 50.667 98.5 84s42.833 69 53.5 107s16 72.333 16 103c0 38.667 -5.16699 72 -15.5 100s-24.166 51.167 -41.499 69.5s-37.833 31.833 -61.5 40.5s-48.5 13 -74.5 13c-81.333 0 -142.333 -32.667 -183 -98
s-61 -160.333 -61 -285v-168zM426.999 0v-80c0 -45.333 3.16699 -86.333 9.5 -123s18.166 -67.667 35.499 -93s41.333 -44.833 72 -58.5s70.334 -20.5 119.001 -20.5c68.667 0 119.667 16.167 153 48.5s50 76.833 50 133.5c0 14.667 -3.66699 33 -11 55
s-20.5 43.167 -39.5 63.5s-45 37.833 -78 52.5s-74.833 22 -125.5 22h-185zM223.999 0c-14.667 0 -26.501 -2.16406 -35.501 -6.49707s-16.167 -10.5 -21.5 -18.5s-9 -17.333 -11 -28s-3 -22.334 -3 -35.001c0 -7.33301 0.333008 -14.666 1 -21.999l2 -23h-103
c-9.33301 25.333 -15.5 49.666 -18.5 72.999s-4.5 43.333 -4.5 60c0 27.333 5 49.333 15 66s22.333 29.667 37 39s29.834 15.666 45.501 18.999s29.167 5 40.5 5h130v164c0 80 8.5 152 25.5 216s41.833 118.167 74.5 162.5s72.334 78.333 119.001 102s100 35.5 160 35.5
c56.667 0 105 -10.167 145 -30.5s72.5 -46.166 97.5 -77.499s43.167 -66 54.5 -104s17 -74.667 17 -110c0 -78 -13.833 -147.167 -41.5 -207.5s-66.167 -110.5 -115.5 -150.5h304c23.333 0 41.166 -4 53.499 -12s18.5 -24.333 18.5 -49c0 -14.667 -1.5 -26.334 -4.5 -35.001
s-7.5 -15.5 -13.5 -20.5s-13.5 -8.33301 -22.5 -10s-19.5 -2.5 -31.5 -2.5h-244c18.667 -18 34.167 -36.833 46.5 -56.5s22 -39.167 29 -58.5s11.833 -37.833 14.5 -55.5s4 -32.834 4 -45.501c0 -37.333 -7 -72.833 -21 -106.5s-34.5 -63.167 -61.5 -88.5
s-60.333 -45.333 -100 -60s-85.167 -22 -136.5 -22c-64 0 -119.333 7.83301 -166 23.5s-85.167 40.167 -115.5 73.5s-52.833 76.5 -67.5 129.5s-22 116.5 -22 190.5v76h-74z" />
    <glyph glyph-name="uniFBAC" unicode="&#x6be;" horiz-adv-x="1275" arabic-form="initial" 
d="M0 0c-23.333 0 -41.166 4.33301 -53.499 13s-18.5 25.334 -18.5 50.001c0 14.667 1.5 26.334 4.5 35.001s7.5 15.334 13.5 20.001s13.5 7.66699 22.5 9s19.5 2 31.5 2h278c-21.333 34 -38 73.333 -50 118s-18 88 -18 130c0 34 3.33301 67.833 10 101.5
s17.167 65.5 31.5 95.5s32.833 57.167 55.5 81.5s50.334 44.166 83.001 59.499c-12 1.33301 -23.333 2.66602 -34 3.99902s-21.334 2.33301 -32.001 3s-21.834 1.16699 -33.501 1.5s-24.5 0.5 -38.5 0.5v112c146 -1.33301 275.667 -13.833 389 -37.5
s208.833 -62.834 286.5 -117.501s136.667 -126.5 177 -215.5s60.5 -199.833 60.5 -332.5v-133h-1165zM324 375c0 -28 2.49902 -56.667 7.49902 -86s14.333 -55.833 28 -79.5s32.667 -43 57 -58s55.833 -22.5 94.5 -22.5c32.667 0 60.334 8.5 83.001 25.5s41 38.167 55 63.5
s24 52.5 30 81.5s9 55.5 9 79.5c0 35.333 -3.66699 69 -11 101s-18.5 60.333 -33.5 85s-33.833 44.167 -56.5 58.5s-49 21.5 -79 21.5c-28 0 -53.333 -6.5 -76 -19.5s-42 -31.333 -58 -55s-28.333 -52 -37 -85s-13 -69.833 -13 -110.5zM802.999 387
c0 -20 -1.33301 -41.3311 -4 -63.998s-6.66699 -45.334 -12 -68.001s-11.833 -44.834 -19.5 -66.501s-16.5 -41.5 -26.5 -59.5h295c0 80 -7.33301 149.667 -22 209s-36.5 110.5 -65.5 153.5s-64.833 78.667 -107.5 107s-91.667 51.5 -147 69.5
c18.667 -18 35 -38.167 49 -60.5s25.333 -45.833 34 -70.5s15.167 -49.667 19.5 -75s6.5 -50.333 6.5 -75z" />
    <glyph glyph-name="uniFBAD" unicode="&#x6be;" horiz-adv-x="1069" arabic-form="medial" 
d="M825 0c18.667 -18 34.166 -36.835 46.499 -56.502s22 -39.167 29 -58.5s11.833 -37.833 14.5 -55.5s4 -32.834 4 -45.501c0 -37.333 -7 -72.833 -21 -106.5s-34.5 -63.167 -61.5 -88.5s-60.333 -45.333 -100 -60s-85.167 -22 -136.5 -22
c-64 0 -119.333 7.83301 -166 23.5s-85.167 40.167 -115.5 73.5s-52.833 76.5 -67.5 129.5s-22 116.5 -22 190.5v76h-229c-23.333 0 -41.166 4.33301 -53.499 13s-18.5 25.334 -18.5 50.001c0 14.667 1.5 26.334 4.5 35.001s7.5 15.334 13.5 20.001s13.5 7.66699 22.5 9
s19.5 2 31.5 2h229v164c0 80 8.5 152 25.5 216s41.833 118.167 74.5 162.5s72.334 78.333 119.001 102s100 35.5 160 35.5c56.667 0 105 -10.167 145 -30.5s72.5 -46.166 97.5 -77.499s43.167 -66 54.5 -104s17 -74.667 17 -110c0 -78 -13.833 -147.167 -41.5 -207.5
s-66.167 -110.5 -115.5 -150.5h304c23.333 0 41.166 -4 53.499 -12s18.5 -24.333 18.5 -49c0 -14.667 -1.5 -26.334 -4.5 -35.001s-7.5 -15.5 -13.5 -20.5s-13.5 -8.33301 -22.5 -10s-19.5 -2.5 -31.5 -2.5h-244zM357.999 128.998h118.999c59.333 0 109.333 11.333 150 34
s73.5 50.667 98.5 84s42.833 69 53.5 107s16 72.333 16 103c0 38.667 -5.16699 72 -15.5 100s-24.166 51.167 -41.499 69.5s-37.833 31.833 -61.5 40.5s-48.5 13 -74.5 13c-81.333 0 -142.333 -32.667 -183 -98s-61 -160.333 -61 -285v-168zM357.998 -0.00195312v-80
c0 -45.333 3.16699 -86.333 9.5 -123s18.166 -67.667 35.499 -93s41.333 -44.833 72 -58.5s70.334 -20.5 119.001 -20.5c68.667 0 119.667 16.167 153 48.5s50 76.833 50 133.5c0 14.667 -3.66699 33 -11 55s-20.5 43.167 -39.5 63.5s-45 37.833 -78 52.5
s-74.833 22 -125.5 22h-185z" />
    <glyph glyph-name="uniFBAF" unicode="&#x6d2;" horiz-adv-x="943" arabic-form="final" 
d="M495 0c-67.333 0 -122.829 -4.49707 -166.496 -13.4971s-78 -21 -103 -36s-42.333 -32.833 -52 -53.5s-14.5 -42.334 -14.5 -65.001c0 -28 9.16699 -53.667 27.5 -77s49.333 -43.333 93 -60s101.667 -29.667 174 -39s162.5 -14 270.5 -14c40 0 80.833 0.666992 122.5 2
s86.5 4 134.5 8s100.167 9.83301 156.5 17.5s119.166 17.5 188.499 29.5v-121c-64.667 -10.667 -124.834 -19.834 -180.501 -27.501s-109 -14 -160 -19s-100.5 -8.66699 -148.5 -11s-96.333 -3.5 -145 -3.5c-94.667 0 -176.834 4 -246.501 12s-129 19.167 -178 33.5
s-88.833 31.333 -119.5 51s-54.834 41 -72.501 64s-29.667 47.167 -36 72.5s-9.5 50.666 -9.5 75.999c0 98.667 42.5 173.834 127.5 225.501s213.167 77.5 384.5 77.5h401c24 0 42 -4 54 -12s18 -24.333 18 -49c0 -14.667 -1.5 -26.334 -4.5 -35.001s-7.5 -15.5 -13.5 -20.5
s-13.5 -8.33301 -22.5 -10s-19.5 -2.5 -31.5 -2.5h-448z" />
    <glyph glyph-name="uniFBB1" unicode="&#x6d3;" horiz-adv-x="943" arabic-form="final" 
d="M495 0c-67.333 0 -122.829 -4.49707 -166.496 -13.4971s-78 -21 -103 -36s-42.333 -32.833 -52 -53.5s-14.5 -42.334 -14.5 -65.001c0 -28 9.16699 -53.667 27.5 -77s49.333 -43.333 93 -60s101.667 -29.667 174 -39s162.5 -14 270.5 -14c40 0 80.833 0.666992 122.5 2
s86.5 4 134.5 8s100.167 9.83301 156.5 17.5s119.166 17.5 188.499 29.5v-121c-64.667 -10.667 -124.834 -19.834 -180.501 -27.501s-109 -14 -160 -19s-100.5 -8.66699 -148.5 -11s-96.333 -3.5 -145 -3.5c-94.667 0 -176.834 4 -246.501 12s-129 19.167 -178 33.5
s-88.833 31.333 -119.5 51s-54.834 41 -72.501 64s-29.667 47.167 -36 72.5s-9.5 50.666 -9.5 75.999c0 98.667 42.5 173.834 127.5 225.501s213.167 77.5 384.5 77.5h401c24 0 42 -4 54 -12s18 -24.333 18 -49c0 -14.667 -1.5 -26.334 -4.5 -35.001s-7.5 -15.5 -13.5 -20.5
s-13.5 -8.33301 -22.5 -10s-19.5 -2.5 -31.5 -2.5h-448zM450.004 326.003h-350v76h98c-32.667 36.667 -49 77.667 -49 123c0 28.667 4.83301 54.167 14.5 76.5s22.834 41 39.501 56s35.834 26.333 57.501 34s44.5 11.5 68.5 11.5c15.333 0 30.166 -0.5 44.499 -1.5
s26.166 -3.16699 35.499 -6.5v-82c-15.333 4 -28.333 6.66699 -39 8s-21.667 2 -33 2c-22.667 0 -41.5 -3 -56.5 -9s-27 -13.833 -36 -23.5s-15.333 -20.667 -19 -33s-5.5 -24.5 -5.5 -36.5c0 -37.333 13 -66.5 39 -87.5s63 -31.5 111 -31.5h80v-76z" />
    <glyph glyph-name="uniFBE8" unicode="&#x649;" horiz-adv-x="621" arabic-form="initial" 
d="M0 0c-23.333 0 -41.167 4.33008 -53.5 12.9971s-18.5 25.334 -18.5 50.001c0 14.667 1.5 26.334 4.5 35.001s7.5 15.334 13.5 20.001s13.5 7.66699 22.5 9s19.5 2 31.5 2h352v649h129v-778h-481z" />
    <glyph glyph-name="uniFBE9" unicode="&#x649;" horiz-adv-x="669" arabic-form="medial" 
d="M0 0c-23.333 0 -41.166 4.33398 -53.499 13.001s-18.5 25.334 -18.5 50.001c0 14.667 1.5 26.334 4.5 35.001s7.5 15.334 13.5 20.001s13.5 7.66699 22.5 9s19.5 2 31.5 2h135c28.667 0 56.334 1 83.001 3s50.167 8.16699 70.5 18.5s36.666 26.666 48.999 48.999
s18.5 54.166 18.5 95.499v483h129v-389c0 -40.667 3.16699 -77 9.5 -109s16.666 -59.167 30.999 -81.5s33.166 -39.5 56.499 -51.5s52.333 -18 87 -18c23.333 0 41 -4 53 -12s18 -24.333 18 -49c0 -14.667 -1.5 -26.334 -4.5 -35.001s-7.5 -15.5 -13.5 -20.5
s-13.333 -8.33301 -22 -10s-19 -2.5 -31 -2.5c-24 0 -46.833 2 -68.5 6s-41.667 10.833 -60 20.5s-34.666 22.167 -48.999 37.5s-26.5 34.333 -36.5 57c-16.667 -24.667 -34.5 -44.834 -53.5 -60.501s-40.5 -28 -64.5 -37s-51 -15.167 -81 -18.5s-64 -5 -102 -5h-154z" />
    <glyph glyph-name="uniFBFD" unicode="&#x6cc;" horiz-adv-x="1500" arabic-form="final" 
d="M1344 0c34 -32 57.501 -64.3379 70.501 -97.0049s19.5 -61.667 19.5 -87c0 -40.667 -12 -79 -36 -115s-63 -67.667 -117 -95s-124.333 -49 -211 -65s-192.667 -24 -318 -24c-138.667 0 -253.334 12.5 -344.001 37.5s-162.5 59.5 -215.5 103.5s-90 95.833 -111 155.5
s-31.5 124.167 -31.5 193.5v307h129v-277c0 -67.333 10.833 -125.666 32.5 -174.999s55.834 -90 102.501 -122s106.5 -55.667 179.5 -71s160.833 -23 263.5 -23c76 0 148.167 3 216.5 9s128.166 16.333 179.499 31s92 33.834 122 57.501s45 53.167 45 88.5
c0 20.667 -6.16699 40 -18.5 58s-28.833 34.833 -49.5 50.5s-44.834 30.334 -72.501 44.001s-56.667 26.334 -87 38.001s-61.333 22.334 -93 32.001s-62.167 18.167 -91.5 25.5l-61 16v129c90.667 -25.333 176.834 -47.666 258.501 -66.999s157.834 -29 228.501 -29h164
c23.333 0 41.166 -4 53.499 -12s18.5 -24.333 18.5 -49c0 -14.667 -1.5 -26.334 -4.5 -35.001s-7.5 -15.5 -13.5 -20.5s-13.5 -8.33301 -22.5 -10s-19.5 -2.5 -31.5 -2.5h-154z" />
    <glyph glyph-name="uniFBFE" unicode="&#x6cc;" horiz-adv-x="621" arabic-form="initial" 
d="M0 0c-23.333 0 -41.167 4.33008 -53.5 12.9971s-18.5 25.334 -18.5 50.001c0 14.667 1.5 26.334 4.5 35.001s7.5 15.334 13.5 20.001s13.5 7.66699 22.5 9s19.5 2 31.5 2h352v649h129v-778h-481zM103.999 -276.003c0 24.667 8.66699 45.834 26 63.501
s38.666 26.5 63.999 26.5c24.667 0 45.834 -8.83301 63.501 -26.5s26.5 -38.834 26.5 -63.501c0 -25.333 -8.83301 -46.833 -26.5 -64.5s-38.834 -26.5 -63.501 -26.5c-25.333 0 -46.666 8.83301 -63.999 26.5s-26 39.167 -26 64.5zM381.999 -276.003
c0 24.667 8.83301 45.834 26.5 63.501s38.834 26.5 63.501 26.5s45.834 -8.83301 63.501 -26.5s26.5 -38.834 26.5 -63.501c0 -25.333 -8.83301 -46.833 -26.5 -64.5s-38.834 -26.5 -63.501 -26.5s-45.834 8.83301 -63.501 26.5s-26.5 39.167 -26.5 64.5z" />
    <glyph glyph-name="uniFBFF" unicode="&#x6cc;" horiz-adv-x="669" arabic-form="medial" 
d="M0 0c-23.333 0 -41.166 4.33398 -53.499 13.001s-18.5 25.334 -18.5 50.001c0 14.667 1.5 26.334 4.5 35.001s7.5 15.334 13.5 20.001s13.5 7.66699 22.5 9s19.5 2 31.5 2h135c28.667 0 56.334 1 83.001 3s50.167 8.16699 70.5 18.5s36.666 26.666 48.999 48.999
s18.5 54.166 18.5 95.499v483h129v-389c0 -40.667 3.16699 -77 9.5 -109s16.666 -59.167 30.999 -81.5s33.166 -39.5 56.499 -51.5s52.333 -18 87 -18c23.333 0 41 -4 53 -12s18 -24.333 18 -49c0 -14.667 -1.5 -26.334 -4.5 -35.001s-7.5 -15.5 -13.5 -20.5
s-13.333 -8.33301 -22 -10s-19 -2.5 -31 -2.5c-24 0 -46.833 2 -68.5 6s-41.667 10.833 -60 20.5s-34.666 22.167 -48.999 37.5s-26.5 34.333 -36.5 57c-16.667 -24.667 -34.5 -44.834 -53.5 -60.501s-40.5 -28 -64.5 -37s-51 -15.167 -81 -18.5s-64 -5 -102 -5h-154z
M185 -275.999c0 24.667 8.66699 45.834 26 63.501s38.666 26.5 63.999 26.5c24.667 0 45.834 -8.83301 63.501 -26.5s26.5 -38.834 26.5 -63.501c0 -25.333 -8.83301 -46.833 -26.5 -64.5s-38.834 -26.5 -63.501 -26.5c-25.333 0 -46.666 8.83301 -63.999 26.5
s-26 39.167 -26 64.5zM463 -275.999c0 24.667 8.83301 45.834 26.5 63.501s38.834 26.5 63.501 26.5s45.834 -8.83301 63.501 -26.5s26.5 -38.834 26.5 -63.501c0 -25.333 -8.83301 -46.833 -26.5 -64.5s-38.834 -26.5 -63.501 -26.5s-45.834 8.83301 -63.501 26.5
s-26.5 39.167 -26.5 64.5z" />
    <glyph glyph-name="uniFDF2" unicode="&#xfdf2;" horiz-adv-x="2753" arabic-form="isolated" 
d="M893 0c-33.333 0 -64.5039 2.83594 -93.5039 8.50293s-55.333 15.334 -79 29.001s-44.167 32 -61.5 55s-31 51.5 -41 85.5c-18 -2.66699 -36.833 -4.83398 -56.5 -6.50098s-39.167 -3 -58.5 -4s-37.666 -1.83301 -54.999 -2.5s-32.333 -1 -45 -1
c-62 0 -117.833 7 -167.5 21s-92.167 33.667 -127.5 59s-62.5 56.166 -81.5 92.499s-28.5 77.166 -28.5 122.499c0 67.333 17.333 126.833 52 178.5s80.5 94.834 137.5 129.501s122.167 60.834 195.5 78.501s149 26.5 227 26.5v123h129v-676c0 -34 2.16699 -63 6.5 -87
s12.833 -43.5 25.5 -58.5s30.334 -25.833 53.001 -32.5s52.334 -10 89.001 -10h154c28.667 0 56.334 1 83.001 3s50.167 8.16699 70.5 18.5s36.666 26.666 48.999 48.999s18.5 54.166 18.5 95.499v1163h129v-1069c0 -40.667 2.83301 -77 8.5 -109
s15.834 -59.167 30.501 -81.5s34 -39.5 58 -51.5s54.667 -18 92 -18h368v1331h129v-1462h-497c-24 0 -47.167 2 -69.5 6s-43 10.833 -62 20.5s-36 22.167 -51 37.5s-27.5 34.333 -37.5 57c-16 -24.667 -33.5 -44.834 -52.5 -60.501s-40.5 -28 -64.5 -37
s-51 -15.167 -81 -18.5s-64.333 -5 -103 -5h-192zM126.996 475.003c0 -27.333 5.16406 -52.833 15.4971 -76.5s27.666 -44 51.999 -61s56.5 -30.333 96.5 -40s89.667 -14.5 149 -14.5c8 0 18.5 0.333008 31.5 1s27.333 1.66699 43 3s31.834 3 48.501 5
s32.334 4.33301 47.001 7v461c-72 -2.66699 -137.667 -10.834 -197 -24.501s-110.166 -32.5 -152.499 -56.5s-75.166 -53.167 -98.499 -87.5s-35 -73.166 -35 -116.499zM2602.99 1462v-1462h-129v1462h129z" />
    <glyph glyph-name="uniFDFA" unicode="&#xfdfa;" horiz-adv-x="2165" arabic-form="isolated" 
d="M2083 895c0 -9.33301 -2.6748 -20.665 -8.00781 -33.998s-13.666 -28.666 -25 -45.999c-19.333 -31.333 -40.333 -52.333 -63 -63c-63.333 -28.667 -142.666 -43 -237.999 -43c-15.333 0 -31.166 0.333008 -47.499 1s-33.166 1.66699 -50.499 3
c-33.333 -64.667 -59.333 -97 -78 -97c-5.33301 0 -8 4.33301 -8 13c0 10 3.66699 23.167 11 39.5s18.666 35.166 33.999 56.499c-29.333 11.333 -52 21.166 -68 29.499s-26.333 16.166 -31 23.499c-53.333 -35.333 -87.333 -53 -102 -53c10 -191.333 27 -311.333 51 -360
s81.333 -76 172 -82l4 4c-28.667 22.667 -43 52 -43 88c0 45.333 22 97 66 155c34 44 75.667 66 125 66c39.333 0 75.333 -11.667 108 -35c33.333 -22 50 -43 50 -63c-35.333 12 -71 18 -107 18c-48.667 0 -93 -9.66699 -133 -29c-35.333 -18 -53 -36.333 -53 -55
c0 -19.333 17 -46 51 -80c17.333 -17.333 33.333 -30.666 48 -39.999s28.667 -15.666 42 -18.999c12.667 1.33301 30.5 5 53.5 11s51.5 14.667 85.5 26s62.5 21.166 85.5 29.499s40.167 15.5 51.5 21.5l-34 -76c-138 -72 -268.667 -108 -392 -108
c-132 0 -213 49.667 -243 149c-41.333 -88.667 -80.333 -133 -117 -133c-35.333 0 -81 30 -137 90c-44 -38 -99.333 -66.667 -166 -86s-146 -29 -238 -29c-28 0 -53.667 1 -77 3s-45.333 4.66699 -66 8c6 -43.333 12 -79 18 -107c13.333 -50.667 29.333 -84.667 48 -102
c58.667 -60 178.667 -90 360 -90c154.667 0 267.334 21.667 338.001 65c20 50.667 39 76 57 76c5.33301 0 8 -5.33301 8 -16c0 -20 -8 -50.333 -24 -91c8 -17.333 26.333 -26 55 -26c36.667 0 70 8 100 24c28.667 90.667 51.334 136 68.001 136c5.33301 0 8 -7.66699 8 -23
c0 -25.333 -6.66699 -54.666 -20 -87.999c42.667 -18 72.667 -27 90 -27c8.66699 0 14 2.33301 16 7c1.33301 2.66699 -4 29 -16 79l35 74c16 -49.333 24 -84.666 24 -105.999c0 -92 -30 -138 -90 -138c-30.667 0 -63.334 13 -98.001 39
c-21.333 -35.333 -61.666 -53 -120.999 -53c-65.333 0 -98 17.667 -98 53c-13.333 -9.33301 -30.833 -18 -52.5 -26s-47.834 -15.667 -78.501 -23c-35.333 -7.33301 -73.5 -12.833 -114.5 -16.5s-85.5 -5.5 -133.5 -5.5c-66.667 0 -124.167 4.66699 -172.5 14
s-88.5 23.666 -120.5 42.999c-80 46.667 -121 132.667 -123 258l-45 -66c-11.333 -17.333 -21.5 -30.166 -30.5 -38.499s-16.5 -13.166 -22.5 -14.499c16 -28 24 -56 24 -84c0 -35.333 -10.667 -64 -32 -86c-12 -10.667 -26.333 -16 -43 -16c-28 0 -69.667 15.667 -125 47
c-18.667 -42 -47.334 -74 -86.001 -96c-4.66699 -2.66699 -11.5 -4.66699 -20.5 -6s-18.167 -2.33301 -27.5 -3s-18.166 -1.33398 -26.499 -2.00098s-14.5 -2 -18.5 -4l-22 -8c-8 0 -12 3.33301 -12 10s16.333 17 49 31c20.667 8.66699 37.5 16 50.5 22
s22.833 11.667 29.5 17l69 53c-13.333 24 -20 51.333 -20 82s12.333 58.667 37 84c24 28.667 47 43 69 43c3.33301 0 7.66602 -1.33301 12.999 -4c12 -7.33301 23 -12.5 33 -15.5s18.667 -4.5 26 -4.5c24 0 48.667 15.667 74 47l47 86c-52 16 -89.667 34.333 -113 55
c-40.667 36.667 -67.334 94.667 -80.001 174h-4c-39.333 -68 -93.333 -102 -162 -102c-13.333 0 -26.5 1.33301 -39.5 4s-26.167 6.66699 -39.5 12c-22 9.33301 -33 17.666 -33 24.999c0 34.667 29.333 74 88 118c28 21.333 56.5 39.5 85.5 54.5s58.5 27.167 88.5 36.5
l-4 34l41 68c10 -148.667 24.333 -245 43 -289c18 -43.333 56.333 -74 115 -92l-27 270l39 88l35 -368c70.667 -8 135.334 -12 194.001 -12c71.333 0 137 6.5 197 19.5s115.333 33.5 166 61.5c18 52 31 78 39 78c5.33301 0 8 -6 8 -18c0 -6 -0.5 -13.167 -1.5 -21.5
s-3.16699 -18.166 -6.5 -29.499c50 -48 90 -72 120 -72c35.333 0 64 29.333 86 88l-26 330c-102 -4 -162 46.333 -180 151h-4c-5.33301 -20.667 -10.5 -38 -15.5 -52s-9.5 -25.333 -13.5 -34c-14.667 -34.667 -33 -55 -55 -61l4 -4c95.333 6 143 -20.667 143 -80
c0 -19.333 -4.16699 -37 -12.5 -53s-21.166 -29.667 -38.499 -41c-58.667 -40 -115 -70.167 -169 -90.5s-107 -30.5 -159 -30.5c-62.667 0 -113.167 15.833 -151.5 47.5s-57.5 76.5 -57.5 134.5c0 21.333 2.66699 43.333 8 66s13.666 46.334 24.999 71.001
c-38 10.667 -64 40 -78 88h-4c-20 -69.333 -57.667 -104 -113 -104c-66 0 -98 52.667 -96 158l-55 -50c-9.33301 -9.33301 -36 -14 -80 -14c-66.667 0 -100 12.333 -100 37c0 14.667 8.66699 36 26 64c19.333 30 36.333 48.333 51 55l156 76v20l35 74l8 -246
c2 -57.333 24 -86 66 -86c10 0 20.333 2 31 6s20.334 9.16699 29.001 15.5s16.167 13.666 22.5 21.999s10.166 16.5 11.499 24.5l-33 233l37 80l57 -330c13.333 -28.667 36 -43 68 -43c31.333 0 47 9 47 27c0 13.333 -2.66699 32.666 -8 57.999s-13.666 56.333 -24.999 93
c-7.33301 21.333 -14.166 43.166 -20.499 65.499s-13.166 44.833 -20.499 67.5l27 68c54.667 -170.667 82 -277.667 82 -321c0 -13.333 -1.66699 -27.666 -5 -42.999s-8.66602 -31.333 -15.999 -48c-14 -38 -31 -57 -51 -57c-6 0 -12 2 -18 6
c-5.33301 -14 -9.16602 -27.667 -11.499 -41s-3.5 -26.333 -3.5 -39c0 -102 62.333 -153 187 -153c96.667 0 193.667 32.667 291 98c2.66699 2.66699 4 4.66699 4 6c0 8.66699 -26 17 -78 25l-89.5 13.5c-20.333 3 -32.166 5.16699 -35.499 6.5c-16 12.667 -7 40 27 82
c80.667 34.667 124.334 71 131.001 109c1.33301 3.33301 2 7.33301 2 12v16c0 67.333 -3.5 140.166 -10.5 218.499s-17.167 163.166 -30.5 254.499l34 115c16.667 -145.333 31.5 -261.5 44.5 -348.5s24.167 -145.5 33.5 -175.5c25.333 -78 74.666 -123 147.999 -135l-10 196
l43 92l16 -286c19.333 7.33301 39.333 17 60 29s41.667 26.667 63 44l61 -43c27.333 -16 54 -26 80 -30c14.667 15.333 33 32.5 55 51.5s48 39.167 78 60.5c70 52 118 78 144 78c24 0 52 -9.33301 84 -28c35.333 -22 53 -44.667 53 -68zM2063.99 4.00098
c0 -68 -26.333 -141.666 -79 -220.999c-57.333 -87.333 -118.333 -131 -183 -131c-15.333 0 -32.833 2.66699 -52.5 8s-42.5 13.666 -68.5 24.999c-50 21.333 -75 37 -75 47c0 5.33301 3.33301 8 10 8c3.33301 0 9.5 -1 18.5 -3s21.167 -5.66699 36.5 -11
c32 -11.333 56 -17 72 -17c92.667 -2 188.334 70.333 287.001 217l-15 45c-24.667 -35.333 -50 -53 -76 -53c-9.33301 0 -18.333 2.5 -27 7.5s-16.334 11.5 -23.001 19.5s-12 17 -16 27s-6.33301 20 -7 30c-2 30.667 8 67.667 30 111c22.667 42 42 63 58 63
c17.333 0 39 -16.333 65 -49c30 -36 45 -77 45 -123zM1986.99 1309c-46.667 -16.667 -125.999 -51.667 -237.999 -105c-131.333 -63.333 -197 -105 -197 -125c0 -14.667 18 -31.667 54 -51l-19 -49c-44.667 14 -67 41.333 -67 82c0 42 17.667 72 53 90
c87.333 50 166.666 92.5 237.999 127.5s136 62.167 194 81.5zM974.993 915.002c-4 -90 -13 -139.667 -27 -149l-51 496l45 116zM1232.99 76.002l-53 -64l-99 72l-57 -74l-102 74l59 72l96 -72l56 68zM2024.99 860.002c0 10 -12 20.999 -36 32.999
c-23.333 12 -41.333 18 -54 18c-28.667 0 -69.667 -16.333 -123 -49c-21.333 -13.333 -39.833 -25.666 -55.5 -36.999s-29.167 -22 -40.5 -32c4 -1.33301 9.5 -2 16.5 -2h24.5c28 0 56 1.33301 84 4s56 6.66699 84 12c66.667 14 100 31.667 100 53zM1293.99 -247.999
c0 -15.333 -0.333008 -28 -1 -38s-1.66699 -17.667 -3 -23c-7.33301 -18 -24.333 -27 -51 -27c-13.333 0 -23 2.66699 -29 8c-19.333 -21.333 -39.666 -32 -60.999 -32c-6 0 -11.833 1.83301 -17.5 5.5s-11.167 7.5 -16.5 11.5s-10.166 7.83301 -14.499 11.5
s-7.83301 5.5 -10.5 5.5c-10.667 0 -36 -11.333 -76 -34c-38.667 -24.667 -86.667 -37 -144 -37c-60 0 -90 5.33301 -90 16c0 9.33301 22 14 66 14c47.333 0 78.666 1.66699 93.999 5c9.33301 2 20 5.5 32 10.5s25.333 12.167 40 21.5
c20.667 13.333 37.667 23.166 51 29.499s23.666 9.5 30.999 9.5c5.33301 0 11.5 -1.66699 18.5 -5s13.667 -7.16602 20 -11.499l17 -11.5c5 -3.33301 8.16699 -5 9.5 -5c20.667 0 33 11.667 37 35c2 18 9.66699 27 23 27c5.33301 0 8 -4 8 -12v-9.5
c0 -3 -0.666992 -6.16699 -2 -9.5c2 -6 9.33301 -10 22 -12c16.667 0 25 8 25 24c0 22 7.33301 33 22 33zM1668.99 1444l-12 -45l-400 -197l9 51zM345.993 539.001c-120 -46.667 -180 -82.333 -180 -107c0 -13.333 21 -20 63 -20c46 0 86.333 16.333 121 49zM663.993 1362
c0 -44 -14.3301 -66 -42.9971 -66c-9.33301 0 -17.5 1.5 -24.5 4.5s-13.167 7.16699 -18.5 12.5c-24.667 -20.667 -45.334 -31 -62.001 -31c-28.667 0 -43 18.333 -43 55c0 26 2 44.667 6 56l13 12c-2.66699 -50.667 8.66602 -76 33.999 -76c16.667 0 29.667 11 39 33l-4 47
l19 29l8 -62c2 -22 12 -33 30 -33c17.333 0 25 10.333 23 31l-6 45l14 21c5.33301 -13.333 9.16602 -26.333 11.499 -39s3.5 -25.667 3.5 -39zM386.996 997.002c-13.333 -6 -26.998 -11.8311 -40.998 -17.498s-28.333 -11.167 -43 -16.5
c-44 -20.667 -67.333 -37.334 -70 -50.001c-2 -14.667 15.333 -22 52 -22c19.333 0 37.666 2.16699 54.999 6.5s33.666 11.166 48.999 20.499zM437.998 -77.9961c-6 28 -22.334 51.333 -49.001 70c-24.667 18.667 -48 28 -70 28c-18.667 0 -28 -8 -28 -24
c0 -18.667 17.667 -37 53 -55c32.667 -20.667 59.334 -31 80.001 -31c11.333 0 16 4 14 12zM2005 20.0039c-8 44 -25.667 66 -53 66c-21.333 0 -35 -17 -41 -51c6 -24.667 27 -37 63 -37c18.667 0 29 7.33301 31 22z" />
    <glyph glyph-name="uniFE82" unicode="&#x622;" horiz-adv-x="464" arabic-form="final" 
d="M536 68c0 -14.667 -1.49609 -26.333 -4.49609 -35s-7.5 -15.5 -13.5 -20.5s-13.5 -8.33301 -22.5 -10s-19.5 -2.5 -31.5 -2.5h-41c-42.667 0 -81.334 4.5 -116.001 13.5s-64.334 24 -89.001 45s-43.834 49 -57.501 84s-20.5 78.167 -20.5 129.5v1190h129v-1143
c0 -34 2.33301 -63.167 7 -87.5s13.667 -44 27 -59s31.5 -26 54.5 -33s53.167 -10.5 90.5 -10.5h16c23.333 0 41.166 -4 53.499 -12s18.5 -24.333 18.5 -49zM-150.996 1692c28 23.333 55.834 39.334 83.501 48.001s53.167 13 76.5 13c12.667 0 27 -1.5 43 -4.5
s32.5 -7.16699 49.5 -12.5s34.333 -11.5 52 -18.5s34.5 -14.167 50.5 -21.5c36 -16.667 70.167 -30.5 102.5 -41.5s60.166 -16.5 83.499 -16.5c18 0 34 2.5 48 7.5s26.333 11.667 37 20s20 17.666 28 27.999s14.667 20.5 20 30.5l51 -24
c-19.333 -44 -43.833 -79.667 -73.5 -107s-66.5 -41 -110.5 -41c-36 0 -70.833 6.16699 -104.5 18.5s-66.5 26.166 -98.5 41.499c-34 15.333 -67.667 29 -101 41s-64.333 18 -93 18c-23.333 0 -43.833 -2.16699 -61.5 -6.5s-36.167 -13.166 -55.5 -26.499z" />
    <glyph glyph-name="uniFE84" unicode="&#x623;" horiz-adv-x="464" arabic-form="final" 
d="M536 68c0 -14.667 -1.49609 -26.333 -4.49609 -35s-7.5 -15.5 -13.5 -20.5s-13.5 -8.33301 -22.5 -10s-19.5 -2.5 -31.5 -2.5h-41c-42.667 0 -81.334 4.5 -116.001 13.5s-64.334 24 -89.001 45s-43.834 49 -57.501 84s-20.5 78.167 -20.5 129.5v1190h129v-1143
c0 -34 2.33301 -63.167 7 -87.5s13.667 -44 27 -59s31.5 -26 54.5 -33s53.167 -10.5 90.5 -10.5h16c23.333 0 41.166 -4 53.499 -12s18.5 -24.333 18.5 -49zM384.004 1564h-350v76h98c-32.667 36.667 -49 77.667 -49 123c0 28.667 4.83301 54.167 14.5 76.5
s22.834 41 39.501 56s35.834 26.333 57.501 34s44.5 11.5 68.5 11.5c15.333 0 30.166 -0.5 44.499 -1.5s26.166 -3.16699 35.499 -6.5v-82c-15.333 4 -28.333 6.66699 -39 8s-21.667 2 -33 2c-22.667 0 -41.5 -3 -56.5 -9s-27 -13.833 -36 -23.5s-15.333 -20.667 -19 -33
s-5.5 -24.5 -5.5 -36.5c0 -37.333 13 -66.5 39 -87.5s63 -31.5 111 -31.5h80v-76z" />
    <glyph glyph-name="uniFE86" unicode="&#x624;" horiz-adv-x="1046" arabic-form="final" 
d="M898 0c-5.33301 -89.333 -22.333 -164.665 -51 -225.998s-67.334 -111 -116.001 -149s-106.167 -65.5 -172.5 -82.5s-139.833 -25.5 -220.5 -25.5h-97v132h87c60 0 116.833 5.66699 170.5 17s100.667 30.5 141 57.5s72.333 63 96 108s35.5 101.167 35.5 168.5h-270
c-54 0 -104.333 7.16699 -151 21.5s-87 36.666 -121 66.999s-60.667 69 -80 116s-29 103.167 -29 168.5c0 56 8.83301 110.167 26.5 162.5s43.334 98.833 77.001 139.5s75 73.167 124 97.5s104.833 36.5 167.5 36.5c69.333 0 128.5 -12.667 177.5 -38
s88.833 -60.833 119.5 -106.5s53 -100.5 67 -164.5s21 -134.333 21 -211v-160h146c23.333 0 41 -4 53 -12s18 -24.333 18 -49c0 -14.667 -1.5 -26.334 -4.5 -35.001s-7.5 -15.5 -13.5 -20.5s-13.333 -8.33301 -22 -10s-19 -2.5 -31 -2.5h-148zM245 391.001
c0 -86.667 22.8301 -152 68.4971 -196s112.167 -66 199.5 -66h258v178c0 52.667 -4.66699 102.167 -14 148.5s-24.666 86.666 -45.999 120.999s-49.166 61.333 -83.499 81s-76.166 29.5 -125.499 29.5c-43.333 0 -81 -8.83301 -113 -26.5s-58.667 -40.5 -80 -68.5
s-37.333 -59.667 -48 -95s-16 -70.666 -16 -105.999zM654.997 1021h-350v76h98c-32.667 36.667 -49 77.667 -49 123c0 28.667 4.83301 54.167 14.5 76.5s22.834 41 39.501 56s35.834 26.333 57.501 34s44.5 11.5 68.5 11.5c15.333 0 30.166 -0.5 44.499 -1.5
s26.166 -3.16699 35.499 -6.5v-82c-15.333 4 -28.333 6.66699 -39 8s-21.667 2 -33 2c-22.667 0 -41.5 -3 -56.5 -9s-27 -13.833 -36 -23.5s-15.333 -20.667 -19 -33s-5.5 -24.5 -5.5 -36.5c0 -37.333 13 -66.5 39 -87.5s63 -31.5 111 -31.5h80v-76z" />
    <glyph glyph-name="uniFE88" unicode="&#x625;" horiz-adv-x="464" arabic-form="final" 
d="M536 68c0 -14.667 -1.49609 -26.333 -4.49609 -35s-7.5 -15.5 -13.5 -20.5s-13.5 -8.33301 -22.5 -10s-19.5 -2.5 -31.5 -2.5h-41c-42.667 0 -81.334 4.5 -116.001 13.5s-64.334 24 -89.001 45s-43.834 49 -57.501 84s-20.5 78.167 -20.5 129.5v1190h129v-1143
c0 -34 2.33301 -63.167 7 -87.5s13.667 -44 27 -59s31.5 -26 54.5 -33s53.167 -10.5 90.5 -10.5h16c23.333 0 41.166 -4 53.499 -12s18.5 -24.333 18.5 -49zM397.004 -554.999h-350v76h98c-32.667 36.667 -49 77.667 -49 123c0 28.667 4.83301 54 14.5 76
s22.834 40.5 39.501 55.5s35.834 26.5 57.501 34.5s44.5 12 68.5 12c15.333 0 30.166 -0.5 44.499 -1.5s26.166 -3.16699 35.499 -6.5v-82c-15.333 4 -28.333 6.66699 -39 8s-21.667 2 -33 2c-22.667 0 -41.5 -3 -56.5 -9s-27 -13.833 -36 -23.5s-15.333 -20.667 -19 -33
s-5.5 -24.5 -5.5 -36.5c0 -37.333 13 -66.5 39 -87.5s63 -31.5 111 -31.5h80v-76z" />
    <glyph glyph-name="uniFE8A" unicode="&#x626;" horiz-adv-x="1500" arabic-form="final" 
d="M1344 0c34 -32 57.501 -64.3379 70.501 -97.0049s19.5 -61.667 19.5 -87c0 -40.667 -12 -79 -36 -115s-63 -67.667 -117 -95s-124.333 -49 -211 -65s-192.667 -24 -318 -24c-138.667 0 -253.334 12.5 -344.001 37.5s-162.5 59.5 -215.5 103.5s-90 95.833 -111 155.5
s-31.5 124.167 -31.5 193.5v307h129v-277c0 -67.333 10.833 -125.666 32.5 -174.999s55.834 -90 102.501 -122s106.5 -55.667 179.5 -71s160.833 -23 263.5 -23c76 0 148.167 3 216.5 9s128.166 16.333 179.499 31s92 33.834 122 57.501s45 53.167 45 88.5
c0 20.667 -6.16699 40 -18.5 58s-28.833 34.833 -49.5 50.5s-44.834 30.334 -72.501 44.001s-56.667 26.334 -87 38.001s-61.333 22.334 -93 32.001s-62.167 18.167 -91.5 25.5l-61 16v129c90.667 -25.333 176.834 -47.666 258.501 -66.999s157.834 -29 228.501 -29h164
c23.333 0 41.166 -4 53.499 -12s18.5 -24.333 18.5 -49c0 -14.667 -1.5 -26.334 -4.5 -35.001s-7.5 -15.5 -13.5 -20.5s-13.5 -8.33301 -22.5 -10s-19.5 -2.5 -31.5 -2.5h-154zM429.001 485.995h-350v76h98c-32.667 36.667 -49 77.667 -49 123
c0 28.667 4.83301 54.167 14.5 76.5s22.834 41 39.501 56s35.834 26.333 57.501 34s44.5 11.5 68.5 11.5c15.333 0 30.166 -0.5 44.499 -1.5s26.166 -3.16699 35.499 -6.5v-82c-15.333 4 -28.333 6.66699 -39 8s-21.667 2 -33 2c-22.667 0 -41.5 -3 -56.5 -9
s-27 -13.833 -36 -23.5s-15.333 -20.667 -19 -33s-5.5 -24.5 -5.5 -36.5c0 -37.333 13 -66.5 39 -87.5s63 -31.5 111 -31.5h80v-76z" />
    <glyph glyph-name="uniFE8B" unicode="&#x626;" horiz-adv-x="621" arabic-form="initial" 
d="M0 0c-23.333 0 -41.167 4.33008 -53.5 12.9971s-18.5 25.334 -18.5 50.001c0 14.667 1.5 26.334 4.5 35.001s7.5 15.334 13.5 20.001s13.5 7.66699 22.5 9s19.5 2 31.5 2h352v649h129v-778h-481zM604.999 953.997l-406.004 0.00195312v78h127
c-45.333 43.333 -68 92.666 -68 147.999c0 34.667 5.5 65 16.5 91s26 47.833 45 65.5s41 30.834 66 39.501s51.5 13 79.5 13c15.333 0 31 -1 47 -3s29.667 -4.66699 41 -8v-80c-13.333 3.33301 -26.166 6 -38.499 8s-25.166 3 -38.499 3
c-27.333 0 -50.166 -4.16699 -68.499 -12.5s-33.166 -19 -44.499 -32s-19.333 -27.333 -24 -43s-7 -30.834 -7 -45.501c0 -48.667 16 -84.834 48 -108.501s76.667 -35.5 134 -35.5h91v-78z" />
    <glyph glyph-name="uniFE8C" unicode="&#x626;" horiz-adv-x="669" arabic-form="medial" 
d="M0 0c-23.333 0 -41.166 4.33398 -53.499 13.001s-18.5 25.334 -18.5 50.001c0 14.667 1.5 26.334 4.5 35.001s7.5 15.334 13.5 20.001s13.5 7.66699 22.5 9s19.5 2 31.5 2h135c28.667 0 56.334 1 83.001 3s50.167 8.16699 70.5 18.5s36.666 26.666 48.999 48.999
s18.5 54.166 18.5 95.499v483h129v-389c0 -40.667 3.16699 -77 9.5 -109s16.666 -59.167 30.999 -81.5s33.166 -39.5 56.499 -51.5s52.333 -18 87 -18c23.333 0 41 -4 53 -12s18 -24.333 18 -49c0 -14.667 -1.5 -26.334 -4.5 -35.001s-7.5 -15.5 -13.5 -20.5
s-13.333 -8.33301 -22 -10s-19 -2.5 -31 -2.5c-24 0 -46.833 2 -68.5 6s-41.667 10.833 -60 20.5s-34.666 22.167 -48.999 37.5s-26.5 34.333 -36.5 57c-16.667 -24.667 -34.5 -44.834 -53.5 -60.501s-40.5 -28 -64.5 -37s-51 -15.167 -81 -18.5s-64 -5 -102 -5h-154z
M605 954.001l-406.004 0.00195312v78h127c-45.333 43.333 -68 92.666 -68 147.999c0 34.667 5.5 65 16.5 91s26 47.833 45 65.5s41 30.834 66 39.501s51.5 13 79.5 13c15.333 0 31 -1 47 -3s29.667 -4.66699 41 -8v-80c-13.333 3.33301 -26.166 6 -38.499 8
s-25.166 3 -38.499 3c-27.333 0 -50.166 -4.16699 -68.499 -12.5s-33.166 -19 -44.499 -32s-19.333 -27.333 -24 -43s-7 -30.834 -7 -45.501c0 -48.667 16 -84.834 48 -108.501s76.667 -35.5 134 -35.5h91v-78z" />
    <glyph glyph-name="uniFE8E" unicode="&#x627;" horiz-adv-x="464" arabic-form="final" 
d="M536 68c0 -14.667 -1.49609 -26.333 -4.49609 -35s-7.5 -15.5 -13.5 -20.5s-13.5 -8.33301 -22.5 -10s-19.5 -2.5 -31.5 -2.5h-41c-42.667 0 -81.334 4.5 -116.001 13.5s-64.334 24 -89.001 45s-43.834 49 -57.501 84s-20.5 78.167 -20.5 129.5v1190h129v-1143
c0 -34 2.33301 -63.167 7 -87.5s13.667 -44 27 -59s31.5 -26 54.5 -33s53.167 -10.5 90.5 -10.5h16c23.333 0 41.166 -4 53.499 -12s18.5 -24.333 18.5 -49z" />
    <glyph glyph-name="uniFE90" unicode="&#x628;" horiz-adv-x="1864" arabic-form="final" 
d="M460 0c-62.667 0 -119.163 4.50684 -169.496 13.5068s-93.333 24.667 -129 47s-63.167 52.166 -82.5 89.499s-29 84.333 -29 141v307h129v-244c0 -49.333 5.66699 -88.833 17 -118.5s31 -52.334 59 -68.001s65.833 -26 113.5 -31s107.5 -7.5 179.5 -7.5h784
c28.667 0 56.334 1 83.001 3s50.167 8.16699 70.5 18.5s36.666 26.666 48.999 48.999s18.5 54.166 18.5 95.499v483h127v-387c0 -39.333 3 -75 9 -107s16.333 -59.333 31 -82s34.167 -40.167 58.5 -52.5s55.166 -18.5 92.499 -18.5c23.333 0 41 -4.33301 53 -13
s18 -25.334 18 -50.001c0 -14.667 -1.5 -26.334 -4.5 -35.001s-7.5 -15.5 -13.5 -20.5s-13.333 -8.33301 -22 -10s-19 -2.5 -31 -2.5c-24.667 0 -48.334 2 -71.001 6s-43.5 10.833 -62.5 20.5s-36 22.167 -51 37.5s-27.5 34.333 -37.5 57
c-16 -24.667 -33.5 -44.834 -52.5 -60.501s-40.333 -28 -64 -37s-50.334 -15.167 -80.001 -18.5s-63.834 -5 -102.501 -5h-890zM785.004 -279.993c0 25.333 8.83301 46.833 26.5 64.5s38.834 26.5 63.501 26.5s45.834 -8.83301 63.501 -26.5s26.5 -39.167 26.5 -64.5
c0 -24.667 -8.83301 -45.834 -26.5 -63.501s-38.834 -26.5 -63.501 -26.5s-45.834 8.83301 -63.501 26.5s-26.5 38.834 -26.5 63.501z" />
    <glyph glyph-name="uniFE91" unicode="&#x628;" horiz-adv-x="621" arabic-form="initial" 
d="M0 0c-23.333 0 -41.167 4.33008 -53.5 12.9971s-18.5 25.334 -18.5 50.001c0 14.667 1.5 26.334 4.5 35.001s7.5 15.334 13.5 20.001s13.5 7.66699 22.5 9s19.5 2 31.5 2h352v649h129v-778h-481zM319.999 -273.003c0 25.333 8.83301 46.833 26.5 64.5
s38.834 26.5 63.501 26.5s45.834 -8.83301 63.501 -26.5s26.5 -39.167 26.5 -64.5c0 -24.667 -8.83301 -45.834 -26.5 -63.501s-38.834 -26.5 -63.501 -26.5s-45.834 8.83301 -63.501 26.5s-26.5 38.834 -26.5 63.501z" />
    <glyph glyph-name="uniFE92" unicode="&#x628;" horiz-adv-x="669" arabic-form="medial" 
d="M0 0c-23.333 0 -41.166 4.33398 -53.499 13.001s-18.5 25.334 -18.5 50.001c0 14.667 1.5 26.334 4.5 35.001s7.5 15.334 13.5 20.001s13.5 7.66699 22.5 9s19.5 2 31.5 2h135c28.667 0 56.334 1 83.001 3s50.167 8.16699 70.5 18.5s36.666 26.666 48.999 48.999
s18.5 54.166 18.5 95.499v483h129v-389c0 -40.667 3.16699 -77 9.5 -109s16.666 -59.167 30.999 -81.5s33.166 -39.5 56.499 -51.5s52.333 -18 87 -18c23.333 0 41 -4 53 -12s18 -24.333 18 -49c0 -14.667 -1.5 -26.334 -4.5 -35.001s-7.5 -15.5 -13.5 -20.5
s-13.333 -8.33301 -22 -10s-19 -2.5 -31 -2.5c-24 0 -46.833 2 -68.5 6s-41.667 10.833 -60 20.5s-34.666 22.167 -48.999 37.5s-26.5 34.333 -36.5 57c-16.667 -24.667 -34.5 -44.834 -53.5 -60.501s-40.5 -28 -64.5 -37s-51 -15.167 -81 -18.5s-64 -5 -102 -5h-154z
M328 -272.999c0 25.333 8.83301 46.833 26.5 64.5s38.834 26.5 63.501 26.5s45.834 -8.83301 63.501 -26.5s26.5 -39.167 26.5 -64.5c0 -24.667 -8.83301 -45.834 -26.5 -63.501s-38.834 -26.5 -63.501 -26.5s-45.834 8.83301 -63.501 26.5s-26.5 38.834 -26.5 63.501z" />
    <glyph glyph-name="uniFE94" unicode="&#x629;" horiz-adv-x="925" arabic-form="final" 
d="M159 535c0 -74.667 22.501 -132.333 67.501 -173s111.167 -61 198.5 -61c31.333 0 63.333 3.33301 96 10s63 15.667 91 27v448h-166c-40.667 0 -78.5 -5 -113.5 -15s-65.333 -25.167 -91 -45.5s-45.834 -46.333 -60.501 -78s-22 -69.167 -22 -112.5zM401.001 168.001
c-24 0 -49.8359 1.83594 -77.5029 5.50293s-55.167 10.5 -82.5 20.5s-53.666 23.333 -78.999 40s-47.833 38.167 -67.5 64.5s-35.334 57.666 -47.001 93.999s-17.5 78.833 -17.5 127.5c0 73.333 12 135.166 36 185.499s55.833 91 95.5 122s85 53.333 136 67
s103.167 20.5 156.5 20.5h287v-587c0 -28.667 1.83301 -55.167 5.5 -79.5s10.834 -45.333 21.501 -63s25.667 -31.5 45 -41.5s44.333 -15 75 -15h37c28 0 47 -3.83301 57 -11.5s15 -24.167 15 -49.5s-4.66699 -43 -14 -53s-28.666 -15 -57.999 -15h-59
c-35.333 0 -67.666 4.66699 -96.999 14s-55 22.666 -77 39.999s-39.5 38.833 -52.5 64.5s-20.167 54.5 -21.5 86.5c-30 -11.333 -63.833 -20.333 -101.5 -27s-76.167 -10 -115.5 -10zM220.998 1317c0 24.667 8.66699 45.5 26 62.5s38.666 25.5 63.999 25.5
c24.667 0 45.834 -8.5 63.501 -25.5s26.5 -37.833 26.5 -62.5s-8.83301 -45.834 -26.5 -63.501s-38.834 -26.5 -63.501 -26.5c-25.333 0 -46.666 8.83301 -63.999 26.5s-26 38.834 -26 63.501zM498.998 1317c0 24.667 8.83301 45.5 26.5 62.5s38.834 25.5 63.501 25.5
s45.834 -8.5 63.501 -25.5s26.5 -37.833 26.5 -62.5s-8.83301 -45.834 -26.5 -63.501s-38.834 -26.5 -63.501 -26.5s-45.834 8.83301 -63.501 26.5s-26.5 38.834 -26.5 63.501z" />
    <glyph glyph-name="uniFE96" unicode="&#x62a;" horiz-adv-x="1864" arabic-form="final" 
d="M460 0c-62.667 0 -119.163 4.50684 -169.496 13.5068s-93.333 24.667 -129 47s-63.167 52.166 -82.5 89.499s-29 84.333 -29 141v307h129v-244c0 -49.333 5.66699 -88.833 17 -118.5s31 -52.334 59 -68.001s65.833 -26 113.5 -31s107.5 -7.5 179.5 -7.5h784
c28.667 0 56.334 1 83.001 3s50.167 8.16699 70.5 18.5s36.666 26.666 48.999 48.999s18.5 54.166 18.5 95.499v483h127v-387c0 -39.333 3 -75 9 -107s16.333 -59.333 31 -82s34.167 -40.167 58.5 -52.5s55.166 -18.5 92.499 -18.5c23.333 0 41 -4.33301 53 -13
s18 -25.334 18 -50.001c0 -14.667 -1.5 -26.334 -4.5 -35.001s-7.5 -15.5 -13.5 -20.5s-13.333 -8.33301 -22 -10s-19 -2.5 -31 -2.5c-24.667 0 -48.334 2 -71.001 6s-43.5 10.833 -62.5 20.5s-36 22.167 -51 37.5s-27.5 34.333 -37.5 57
c-16 -24.667 -33.5 -44.834 -52.5 -60.501s-40.333 -28 -64 -37s-50.334 -15.167 -80.001 -18.5s-63.834 -5 -102.501 -5h-890zM663.004 1039.01c0 24.667 8.66699 45.5 26 62.5s38.666 25.5 63.999 25.5c24.667 0 45.834 -8.5 63.501 -25.5s26.5 -37.833 26.5 -62.5
s-8.83301 -45.834 -26.5 -63.501s-38.834 -26.5 -63.501 -26.5c-25.333 0 -46.666 8.83301 -63.999 26.5s-26 38.834 -26 63.501zM941.004 1039.01c0 24.667 8.83301 45.5 26.5 62.5s38.834 25.5 63.501 25.5s45.834 -8.5 63.501 -25.5s26.5 -37.833 26.5 -62.5
s-8.83301 -45.834 -26.5 -63.501s-38.834 -26.5 -63.501 -26.5s-45.834 8.83301 -63.501 26.5s-26.5 38.834 -26.5 63.501z" />
    <glyph glyph-name="uniFE97" unicode="&#x62a;" horiz-adv-x="621" arabic-form="initial" 
d="M0 0c-23.333 0 -41.167 4.33008 -53.5 12.9971s-18.5 25.334 -18.5 50.001c0 14.667 1.5 26.334 4.5 35.001s7.5 15.334 13.5 20.001s13.5 7.66699 22.5 9s19.5 2 31.5 2h352v649h129v-778h-481zM157.999 1161c0 24.667 8.66699 45.5 26 62.5s38.666 25.5 63.999 25.5
c24.667 0 45.834 -8.5 63.501 -25.5s26.5 -37.833 26.5 -62.5s-8.83301 -45.834 -26.5 -63.501s-38.834 -26.5 -63.501 -26.5c-25.333 0 -46.666 8.83301 -63.999 26.5s-26 38.834 -26 63.501zM435.999 1161c0 24.667 8.83301 45.5 26.5 62.5s38.834 25.5 63.501 25.5
s45.834 -8.5 63.501 -25.5s26.5 -37.833 26.5 -62.5s-8.83301 -45.834 -26.5 -63.501s-38.834 -26.5 -63.501 -26.5s-45.834 8.83301 -63.501 26.5s-26.5 38.834 -26.5 63.501z" />
    <glyph glyph-name="uniFE98" unicode="&#x62a;" horiz-adv-x="669" arabic-form="medial" 
d="M0 0c-23.333 0 -41.166 4.33398 -53.499 13.001s-18.5 25.334 -18.5 50.001c0 14.667 1.5 26.334 4.5 35.001s7.5 15.334 13.5 20.001s13.5 7.66699 22.5 9s19.5 2 31.5 2h135c28.667 0 56.334 1 83.001 3s50.167 8.16699 70.5 18.5s36.666 26.666 48.999 48.999
s18.5 54.166 18.5 95.499v483h129v-389c0 -40.667 3.16699 -77 9.5 -109s16.666 -59.167 30.999 -81.5s33.166 -39.5 56.499 -51.5s52.333 -18 87 -18c23.333 0 41 -4 53 -12s18 -24.333 18 -49c0 -14.667 -1.5 -26.334 -4.5 -35.001s-7.5 -15.5 -13.5 -20.5
s-13.333 -8.33301 -22 -10s-19 -2.5 -31 -2.5c-24 0 -46.833 2 -68.5 6s-41.667 10.833 -60 20.5s-34.666 22.167 -48.999 37.5s-26.5 34.333 -36.5 57c-16.667 -24.667 -34.5 -44.834 -53.5 -60.501s-40.5 -28 -64.5 -37s-51 -15.167 -81 -18.5s-64 -5 -102 -5h-154z
M183 1161c0 24.667 8.66699 45.5 26 62.5s38.666 25.5 63.999 25.5c24.667 0 45.834 -8.5 63.501 -25.5s26.5 -37.833 26.5 -62.5s-8.83301 -45.834 -26.5 -63.501s-38.834 -26.5 -63.501 -26.5c-25.333 0 -46.666 8.83301 -63.999 26.5s-26 38.834 -26 63.501zM461 1161
c0 24.667 8.83301 45.5 26.5 62.5s38.834 25.5 63.501 25.5s45.834 -8.5 63.501 -25.5s26.5 -37.833 26.5 -62.5s-8.83301 -45.834 -26.5 -63.501s-38.834 -26.5 -63.501 -26.5s-45.834 8.83301 -63.501 26.5s-26.5 38.834 -26.5 63.501z" />
    <glyph glyph-name="uniFE9A" unicode="&#x62b;" horiz-adv-x="1864" arabic-form="final" 
d="M460 0c-62.667 0 -119.163 4.50684 -169.496 13.5068s-93.333 24.667 -129 47s-63.167 52.166 -82.5 89.499s-29 84.333 -29 141v307h129v-244c0 -49.333 5.66699 -88.833 17 -118.5s31 -52.334 59 -68.001s65.833 -26 113.5 -31s107.5 -7.5 179.5 -7.5h784
c28.667 0 56.334 1 83.001 3s50.167 8.16699 70.5 18.5s36.666 26.666 48.999 48.999s18.5 54.166 18.5 95.499v483h127v-387c0 -39.333 3 -75 9 -107s16.333 -59.333 31 -82s34.167 -40.167 58.5 -52.5s55.166 -18.5 92.499 -18.5c23.333 0 41 -4.33301 53 -13
s18 -25.334 18 -50.001c0 -14.667 -1.5 -26.334 -4.5 -35.001s-7.5 -15.5 -13.5 -20.5s-13.333 -8.33301 -22 -10s-19 -2.5 -31 -2.5c-24.667 0 -48.334 2 -71.001 6s-43.5 10.833 -62.5 20.5s-36 22.167 -51 37.5s-27.5 34.333 -37.5 57
c-16 -24.667 -33.5 -44.834 -52.5 -60.501s-40.333 -28 -64 -37s-50.334 -15.167 -80.001 -18.5s-63.834 -5 -102.501 -5h-890zM665.004 1039.01c0 24.667 8.66699 45.5 26 62.5s38.666 25.5 63.999 25.5c24.667 0 45.834 -8.5 63.501 -25.5s26.5 -37.833 26.5 -62.5
s-8.83301 -45.834 -26.5 -63.501s-38.834 -26.5 -63.501 -26.5c-25.333 0 -46.666 8.83301 -63.999 26.5s-26 38.834 -26 63.501zM943.004 1039.01c0 24.667 8.83301 45.5 26.5 62.5s38.834 25.5 63.501 25.5s45.834 -8.5 63.501 -25.5s26.5 -37.833 26.5 -62.5
s-8.83301 -45.834 -26.5 -63.501s-38.834 -26.5 -63.501 -26.5s-45.834 8.83301 -63.501 26.5s-26.5 38.834 -26.5 63.501zM808.004 1297.01c0 24.667 8.83301 45.499 26.5 62.499s38.834 25.5 63.501 25.5c12 0 23.667 -2.33301 35 -7s21.166 -11 29.499 -19
s15 -17.333 20 -28s7.5 -22 7.5 -34s-2.5 -23.5 -7.5 -34.5s-11.667 -20.667 -20 -29s-18.166 -14.833 -29.499 -19.5s-23 -7 -35 -7c-24.667 0 -45.834 8.83301 -63.501 26.5s-26.5 38.834 -26.5 63.501z" />
    <glyph glyph-name="uniFE9B" unicode="&#x62b;" horiz-adv-x="621" arabic-form="initial" 
d="M0 0c-23.333 0 -41.167 4.33008 -53.5 12.9971s-18.5 25.334 -18.5 50.001c0 14.667 1.5 26.334 4.5 35.001s7.5 15.334 13.5 20.001s13.5 7.66699 22.5 9s19.5 2 31.5 2h352v649h129v-778h-481zM159.999 1161c0 24.667 8.66699 45.5 26 62.5s38.666 25.5 63.999 25.5
c24.667 0 45.834 -8.5 63.501 -25.5s26.5 -37.833 26.5 -62.5s-8.83301 -45.834 -26.5 -63.501s-38.834 -26.5 -63.501 -26.5c-25.333 0 -46.666 8.83301 -63.999 26.5s-26 38.834 -26 63.501zM437.999 1161c0 24.667 8.83301 45.5 26.5 62.5s38.834 25.5 63.501 25.5
s45.834 -8.5 63.501 -25.5s26.5 -37.833 26.5 -62.5s-8.83301 -45.834 -26.5 -63.501s-38.834 -26.5 -63.501 -26.5s-45.834 8.83301 -63.501 26.5s-26.5 38.834 -26.5 63.501zM302.999 1419c0 24.667 8.83301 45.499 26.5 62.499s38.834 25.5 63.501 25.5
c12 0 23.667 -2.33301 35 -7s21.166 -11 29.499 -19s15 -17.333 20 -28s7.5 -22 7.5 -34s-2.5 -23.5 -7.5 -34.5s-11.667 -20.667 -20 -29s-18.166 -14.833 -29.499 -19.5s-23 -7 -35 -7c-24.667 0 -45.834 8.83301 -63.501 26.5s-26.5 38.834 -26.5 63.501z" />
    <glyph glyph-name="uniFE9C" unicode="&#x62b;" horiz-adv-x="669" arabic-form="medial" 
d="M0 0c-23.333 0 -41.166 4.33398 -53.499 13.001s-18.5 25.334 -18.5 50.001c0 14.667 1.5 26.334 4.5 35.001s7.5 15.334 13.5 20.001s13.5 7.66699 22.5 9s19.5 2 31.5 2h135c28.667 0 56.334 1 83.001 3s50.167 8.16699 70.5 18.5s36.666 26.666 48.999 48.999
s18.5 54.166 18.5 95.499v483h129v-389c0 -40.667 3.16699 -77 9.5 -109s16.666 -59.167 30.999 -81.5s33.166 -39.5 56.499 -51.5s52.333 -18 87 -18c23.333 0 41 -4 53 -12s18 -24.333 18 -49c0 -14.667 -1.5 -26.334 -4.5 -35.001s-7.5 -15.5 -13.5 -20.5
s-13.333 -8.33301 -22 -10s-19 -2.5 -31 -2.5c-24 0 -46.833 2 -68.5 6s-41.667 10.833 -60 20.5s-34.666 22.167 -48.999 37.5s-26.5 34.333 -36.5 57c-16.667 -24.667 -34.5 -44.834 -53.5 -60.501s-40.5 -28 -64.5 -37s-51 -15.167 -81 -18.5s-64 -5 -102 -5h-154z
M187 1161c0 24.667 8.66699 45.5 26 62.5s38.666 25.5 63.999 25.5c24.667 0 45.834 -8.5 63.501 -25.5s26.5 -37.833 26.5 -62.5s-8.83301 -45.834 -26.5 -63.501s-38.834 -26.5 -63.501 -26.5c-25.333 0 -46.666 8.83301 -63.999 26.5s-26 38.834 -26 63.501zM465 1161
c0 24.667 8.83301 45.5 26.5 62.5s38.834 25.5 63.501 25.5s45.834 -8.5 63.501 -25.5s26.5 -37.833 26.5 -62.5s-8.83301 -45.834 -26.5 -63.501s-38.834 -26.5 -63.501 -26.5s-45.834 8.83301 -63.501 26.5s-26.5 38.834 -26.5 63.501zM330 1419
c0 24.667 8.83301 45.499 26.5 62.499s38.834 25.5 63.501 25.5c12 0 23.667 -2.33301 35 -7s21.166 -11 29.499 -19s15 -17.333 20 -28s7.5 -22 7.5 -34s-2.5 -23.5 -7.5 -34.5s-11.667 -20.667 -20 -29s-18.166 -14.833 -29.499 -19.5s-23 -7 -35 -7
c-24.667 0 -45.834 8.83301 -63.501 26.5s-26.5 38.834 -26.5 63.501z" />
    <glyph glyph-name="uniFE9E" unicode="&#x62c;" horiz-adv-x="1315" arabic-form="final" 
d="M1318 0h-722.998c-31.333 0 -63.833 -1.33301 -97.5 -4s-66.667 -8 -99 -16s-63 -19.667 -92 -35s-54.5 -35.333 -76.5 -60s-39.333 -55.167 -52 -91.5s-19 -79.833 -19 -130.5c0 -61.333 12.667 -114.166 38 -158.499s59.5 -81 102.5 -110s92.833 -50.5 149.5 -64.5
s116.667 -21 180 -21c50 0 105.833 6.16699 167.5 18.5s129.167 35.5 202.5 69.5l50 -107c-38 -22.667 -78 -41.167 -120 -55.5s-82.167 -25.5 -120.5 -33.5s-73 -13.5 -104 -16.5s-54.833 -4.5 -71.5 -4.5c-88.667 0 -169.834 10 -243.501 30s-137.167 50 -190.5 90
s-94.833 89.667 -124.5 149s-44.5 128.666 -44.5 207.999c0 66.667 7.83301 124.5 23.5 173.5s37 91 64 126s58.833 63.667 95.5 86s76 39.833 118 52.5s85.667 21.5 131 26.5s90.333 7.5 135 7.5h480c0 100 -11.667 185 -35 255s-56.166 127 -98.499 171s-93 76 -152 96
s-124.167 30 -195.5 30c-37.333 0 -75.333 -2.66699 -114 -8s-74 -11.666 -106 -18.999v116c28.667 8 64.167 16.5 106.5 25.5s87.833 13.5 136.5 13.5c70.667 0 134.167 -8.16699 190.5 -24.5s106.333 -39.5 150 -69.5s81 -65.833 112 -107.5s56.5 -87.667 76.5 -138
s34.667 -104.333 44 -162s14 -117.167 14 -178.5h109c23.333 0 41 -4 53 -12s18 -24.333 18 -49c0 -14.667 -1.5 -26.334 -4.5 -35.001s-7.33301 -15.5 -13 -20.5s-12.834 -8.33301 -21.501 -10s-18.334 -2.5 -29.001 -2.5zM554.002 -368c0 25.333 8.83301 46.833 26.5 64.5
s38.834 26.5 63.501 26.5s45.834 -8.83301 63.501 -26.5s26.5 -39.167 26.5 -64.5c0 -24.667 -8.83301 -45.834 -26.5 -63.501s-38.834 -26.5 -63.501 -26.5s-45.834 8.83301 -63.501 26.5s-26.5 38.834 -26.5 63.501z" />
    <glyph glyph-name="uniFE9F" unicode="&#x62c;" horiz-adv-x="1109" arabic-form="initial" 
d="M0 0c-23.333 0 -41.1699 4.33008 -53.5029 12.9971s-18.5 25.334 -18.5 50.001c0 14.667 1.5 26.334 4.5 35.001s7.5 15.334 13.5 20.001s13.5 7.66699 22.5 9s19.5 2 31.5 2h870c0 100 -11.667 185 -35 255s-56 127 -98 171s-92.333 76 -151 96s-123.667 30 -195 30
c-37.333 0 -75.5 -2.66699 -114.5 -8s-74.5 -11.666 -106.5 -18.999v116c28.667 8 64.334 16.5 107.001 25.5s88.334 13.5 137.001 13.5c104.667 0 194.167 -18 268.5 -54s134.833 -84.833 181.5 -146.5s80.834 -133.334 102.501 -215.001s32.5 -168.5 32.5 -260.5v-133
h-999zM452.996 -275.003c0 25.333 8.83301 46.833 26.5 64.5s38.834 26.5 63.501 26.5s45.834 -8.83301 63.501 -26.5s26.5 -39.167 26.5 -64.5c0 -24.667 -8.83301 -45.834 -26.5 -63.501s-38.834 -26.5 -63.501 -26.5s-45.834 8.83301 -63.501 26.5
s-26.5 38.834 -26.5 63.501z" />
    <glyph glyph-name="uniFEA0" unicode="&#x62c;" horiz-adv-x="1110" arabic-form="medial" 
d="M0 0c-23.333 0 -41.168 4.33008 -53.501 12.9971s-18.5 25.334 -18.5 50.001c0 14.667 1.5 26.334 4.5 35.001s7.5 15.334 13.5 20.001s13.5 7.66699 22.5 9s19.5 2 31.5 2h870c0 100 -11.667 185 -35 255s-56.166 127 -98.499 171s-93 76 -152 96s-124.167 30 -195.5 30
c-37.333 0 -75.333 -2.66699 -114 -8s-74 -11.666 -106 -18.999v116c28.667 8 64.167 16.5 106.5 25.5s87.833 13.5 136.5 13.5c70.667 0 134.167 -8.16699 190.5 -24.5s106.333 -39.5 150 -69.5s81 -65.833 112 -107.5s56.5 -87.667 76.5 -138s34.667 -104.333 44 -162
s14 -117.167 14 -178.5h111c23.333 0 41 -4 53 -12s18 -24.333 18 -49c0 -14.667 -1.5 -26.334 -4.5 -35.001s-7.5 -15.5 -13.5 -20.5s-13.333 -8.33301 -22 -10s-19 -2.5 -31 -2.5h-1110zM452.998 -275.003c0 25.333 8.83301 46.833 26.5 64.5s38.834 26.5 63.501 26.5
s45.834 -8.83301 63.501 -26.5s26.5 -39.167 26.5 -64.5c0 -24.667 -8.83301 -45.834 -26.5 -63.501s-38.834 -26.5 -63.501 -26.5s-45.834 8.83301 -63.501 26.5s-26.5 38.834 -26.5 63.501z" />
    <glyph glyph-name="uniFEA2" unicode="&#x62d;" horiz-adv-x="1315" arabic-form="final" 
d="M1318 0h-722.998c-31.333 0 -63.833 -1.33301 -97.5 -4s-66.667 -8 -99 -16s-63 -19.667 -92 -35s-54.5 -35.333 -76.5 -60s-39.333 -55.167 -52 -91.5s-19 -79.833 -19 -130.5c0 -61.333 12.667 -114.166 38 -158.499s59.5 -81 102.5 -110s92.833 -50.5 149.5 -64.5
s116.667 -21 180 -21c50 0 105.833 6.16699 167.5 18.5s129.167 35.5 202.5 69.5l50 -107c-38 -22.667 -78 -41.167 -120 -55.5s-82.167 -25.5 -120.5 -33.5s-73 -13.5 -104 -16.5s-54.833 -4.5 -71.5 -4.5c-88.667 0 -169.834 10 -243.501 30s-137.167 50 -190.5 90
s-94.833 89.667 -124.5 149s-44.5 128.666 -44.5 207.999c0 66.667 7.83301 124.5 23.5 173.5s37 91 64 126s58.833 63.667 95.5 86s76 39.833 118 52.5s85.667 21.5 131 26.5s90.333 7.5 135 7.5h480c0 100 -11.667 185 -35 255s-56.166 127 -98.499 171s-93 76 -152 96
s-124.167 30 -195.5 30c-37.333 0 -75.333 -2.66699 -114 -8s-74 -11.666 -106 -18.999v116c28.667 8 64.167 16.5 106.5 25.5s87.833 13.5 136.5 13.5c70.667 0 134.167 -8.16699 190.5 -24.5s106.333 -39.5 150 -69.5s81 -65.833 112 -107.5s56.5 -87.667 76.5 -138
s34.667 -104.333 44 -162s14 -117.167 14 -178.5h109c23.333 0 41 -4 53 -12s18 -24.333 18 -49c0 -14.667 -1.5 -26.334 -4.5 -35.001s-7.33301 -15.5 -13 -20.5s-12.834 -8.33301 -21.501 -10s-18.334 -2.5 -29.001 -2.5z" />
    <glyph glyph-name="uniFEA3" unicode="&#x62d;" horiz-adv-x="1109" arabic-form="initial" 
d="M0 0c-23.333 0 -41.1699 4.33008 -53.5029 12.9971s-18.5 25.334 -18.5 50.001c0 14.667 1.5 26.334 4.5 35.001s7.5 15.334 13.5 20.001s13.5 7.66699 22.5 9s19.5 2 31.5 2h870c0 100 -11.667 185 -35 255s-56 127 -98 171s-92.333 76 -151 96s-123.667 30 -195 30
c-37.333 0 -75.5 -2.66699 -114.5 -8s-74.5 -11.666 -106.5 -18.999v116c28.667 8 64.334 16.5 107.001 25.5s88.334 13.5 137.001 13.5c104.667 0 194.167 -18 268.5 -54s134.833 -84.833 181.5 -146.5s80.834 -133.334 102.501 -215.001s32.5 -168.5 32.5 -260.5v-133
h-999z" />
    <glyph glyph-name="uniFEA4" unicode="&#x62d;" horiz-adv-x="1110" arabic-form="medial" 
d="M0 0c-23.333 0 -41.168 4.33008 -53.501 12.9971s-18.5 25.334 -18.5 50.001c0 14.667 1.5 26.334 4.5 35.001s7.5 15.334 13.5 20.001s13.5 7.66699 22.5 9s19.5 2 31.5 2h870c0 100 -11.667 185 -35 255s-56.166 127 -98.499 171s-93 76 -152 96s-124.167 30 -195.5 30
c-37.333 0 -75.333 -2.66699 -114 -8s-74 -11.666 -106 -18.999v116c28.667 8 64.167 16.5 106.5 25.5s87.833 13.5 136.5 13.5c70.667 0 134.167 -8.16699 190.5 -24.5s106.333 -39.5 150 -69.5s81 -65.833 112 -107.5s56.5 -87.667 76.5 -138s34.667 -104.333 44 -162
s14 -117.167 14 -178.5h111c23.333 0 41 -4 53 -12s18 -24.333 18 -49c0 -14.667 -1.5 -26.334 -4.5 -35.001s-7.5 -15.5 -13.5 -20.5s-13.333 -8.33301 -22 -10s-19 -2.5 -31 -2.5h-1110z" />
    <glyph glyph-name="uniFEA6" unicode="&#x62e;" horiz-adv-x="1315" arabic-form="final" 
d="M1318 0h-722.998c-31.333 0 -63.833 -1.33301 -97.5 -4s-66.667 -8 -99 -16s-63 -19.667 -92 -35s-54.5 -35.333 -76.5 -60s-39.333 -55.167 -52 -91.5s-19 -79.833 -19 -130.5c0 -61.333 12.667 -114.166 38 -158.499s59.5 -81 102.5 -110s92.833 -50.5 149.5 -64.5
s116.667 -21 180 -21c50 0 105.833 6.16699 167.5 18.5s129.167 35.5 202.5 69.5l50 -107c-38 -22.667 -78 -41.167 -120 -55.5s-82.167 -25.5 -120.5 -33.5s-73 -13.5 -104 -16.5s-54.833 -4.5 -71.5 -4.5c-88.667 0 -169.834 10 -243.501 30s-137.167 50 -190.5 90
s-94.833 89.667 -124.5 149s-44.5 128.666 -44.5 207.999c0 66.667 7.83301 124.5 23.5 173.5s37 91 64 126s58.833 63.667 95.5 86s76 39.833 118 52.5s85.667 21.5 131 26.5s90.333 7.5 135 7.5h480c0 100 -11.667 185 -35 255s-56.166 127 -98.499 171s-93 76 -152 96
s-124.167 30 -195.5 30c-37.333 0 -75.333 -2.66699 -114 -8s-74 -11.666 -106 -18.999v116c28.667 8 64.167 16.5 106.5 25.5s87.833 13.5 136.5 13.5c70.667 0 134.167 -8.16699 190.5 -24.5s106.333 -39.5 150 -69.5s81 -65.833 112 -107.5s56.5 -87.667 76.5 -138
s34.667 -104.333 44 -162s14 -117.167 14 -178.5h109c23.333 0 41 -4 53 -12s18 -24.333 18 -49c0 -14.667 -1.5 -26.334 -4.5 -35.001s-7.33301 -15.5 -13 -20.5s-12.834 -8.33301 -21.501 -10s-18.334 -2.5 -29.001 -2.5zM505.002 1160c0 24.667 8.5 45.499 25.5 62.499
s37.833 25.5 62.5 25.5c12 0 23.667 -2.33301 35 -7s21.166 -11 29.499 -19s15 -17.333 20 -28s7.5 -22 7.5 -34s-2.5 -23.5 -7.5 -34.5s-11.667 -20.667 -20 -29s-18.166 -14.833 -29.499 -19.5s-23 -7 -35 -7c-24.667 0 -45.5 8.83301 -62.5 26.5
s-25.5 38.834 -25.5 63.501z" />
    <glyph glyph-name="uniFEA7" unicode="&#x62e;" horiz-adv-x="1109" arabic-form="initial" 
d="M0 0c-23.333 0 -41.1699 4.33008 -53.5029 12.9971s-18.5 25.334 -18.5 50.001c0 14.667 1.5 26.334 4.5 35.001s7.5 15.334 13.5 20.001s13.5 7.66699 22.5 9s19.5 2 31.5 2h870c0 100 -11.667 185 -35 255s-56 127 -98 171s-92.333 76 -151 96s-123.667 30 -195 30
c-37.333 0 -75.5 -2.66699 -114.5 -8s-74.5 -11.666 -106.5 -18.999v116c28.667 8 64.334 16.5 107.001 25.5s88.334 13.5 137.001 13.5c104.667 0 194.167 -18 268.5 -54s134.833 -84.833 181.5 -146.5s80.834 -133.334 102.501 -215.001s32.5 -168.5 32.5 -260.5v-133
h-999zM335.996 1158c0 24.667 8.5 45.499 25.5 62.499s37.833 25.5 62.5 25.5c12 0 23.667 -2.33301 35 -7s21.166 -11 29.499 -19s15 -17.333 20 -28s7.5 -22 7.5 -34s-2.5 -23.5 -7.5 -34.5s-11.667 -20.667 -20 -29s-18.166 -14.833 -29.499 -19.5s-23 -7 -35 -7
c-24.667 0 -45.5 8.83301 -62.5 26.5s-25.5 38.834 -25.5 63.501z" />
    <glyph glyph-name="uniFEA8" unicode="&#x62e;" horiz-adv-x="1110" arabic-form="medial" 
d="M0 0c-23.333 0 -41.168 4.33008 -53.501 12.9971s-18.5 25.334 -18.5 50.001c0 14.667 1.5 26.334 4.5 35.001s7.5 15.334 13.5 20.001s13.5 7.66699 22.5 9s19.5 2 31.5 2h870c0 100 -11.667 185 -35 255s-56.166 127 -98.499 171s-93 76 -152 96s-124.167 30 -195.5 30
c-37.333 0 -75.333 -2.66699 -114 -8s-74 -11.666 -106 -18.999v116c28.667 8 64.167 16.5 106.5 25.5s87.833 13.5 136.5 13.5c70.667 0 134.167 -8.16699 190.5 -24.5s106.333 -39.5 150 -69.5s81 -65.833 112 -107.5s56.5 -87.667 76.5 -138s34.667 -104.333 44 -162
s14 -117.167 14 -178.5h111c23.333 0 41 -4 53 -12s18 -24.333 18 -49c0 -14.667 -1.5 -26.334 -4.5 -35.001s-7.5 -15.5 -13.5 -20.5s-13.333 -8.33301 -22 -10s-19 -2.5 -31 -2.5h-1110zM335.998 1158c0 24.667 8.5 45.499 25.5 62.499s37.833 25.5 62.5 25.5
c12 0 23.667 -2.33301 35 -7s21.166 -11 29.499 -19s15 -17.333 20 -28s7.5 -22 7.5 -34s-2.5 -23.5 -7.5 -34.5s-11.667 -20.667 -20 -29s-18.166 -14.833 -29.499 -19.5s-23 -7 -35 -7c-24.667 0 -45.5 8.83301 -62.5 26.5s-25.5 38.834 -25.5 63.501z" />
    <glyph glyph-name="uniFEAA" unicode="&#x62f;" horiz-adv-x="973" arabic-form="final" 
d="M965 0c-22 0 -42.668 4.16699 -62.001 12.5s-36.833 18.5 -52.5 30.5s-29.334 24.833 -41.001 38.5s-21.167 25.834 -28.5 36.501c-15.333 -28 -34 -49.833 -56 -65.5s-44.833 -27.5 -68.5 -35.5s-47.167 -12.833 -70.5 -14.5s-44 -2.5 -62 -2.5h-463v129h464
c14 0 29.333 0.666992 46 2s32.334 4.83301 47.001 10.5s27 14.167 37 25.5s15 27 15 47c0 17.333 -3.66699 36 -11 56s-17.5 41.5 -30.5 64.5s-28.167 47.667 -45.5 74l-56 83.5l-167 247l117 76l171 -268l54 -87.5l56 -93l56 -89.5c18.667 -28.667 36.834 -54 54.501 -76
s34.667 -39.5 51 -52.5s31.5 -19.5 45.5 -19.5h8c23.333 0 41 -4 53 -12s18 -24.333 18 -49c0 -14.667 -1.5 -26.334 -4.5 -35.001s-7.5 -15.5 -13.5 -20.5s-13.333 -8.33301 -22 -10s-19 -2.5 -31 -2.5h-8z" />
    <glyph glyph-name="uniFEAC" unicode="&#x630;" horiz-adv-x="973" arabic-form="final" 
d="M965 0c-22 0 -42.668 4.16699 -62.001 12.5s-36.833 18.5 -52.5 30.5s-29.334 24.833 -41.001 38.5s-21.167 25.834 -28.5 36.501c-15.333 -28 -34 -49.833 -56 -65.5s-44.833 -27.5 -68.5 -35.5s-47.167 -12.833 -70.5 -14.5s-44 -2.5 -62 -2.5h-463v129h464
c14 0 29.333 0.666992 46 2s32.334 4.83301 47.001 10.5s27 14.167 37 25.5s15 27 15 47c0 17.333 -3.66699 36 -11 56s-17.5 41.5 -30.5 64.5s-28.167 47.667 -45.5 74l-56 83.5l-167 247l117 76l171 -268l54 -87.5l56 -93l56 -89.5c18.667 -28.667 36.834 -54 54.501 -76
s34.667 -39.5 51 -52.5s31.5 -19.5 45.5 -19.5h8c23.333 0 41 -4 53 -12s18 -24.333 18 -49c0 -14.667 -1.5 -26.334 -4.5 -35.001s-7.5 -15.5 -13.5 -20.5s-13.333 -8.33301 -22 -10s-19 -2.5 -31 -2.5h-8zM310.999 1160c0 24.667 8.5 45.499 25.5 62.499
s37.833 25.5 62.5 25.5c12 0 23.667 -2.33301 35 -7s21.166 -11 29.499 -19s15 -17.333 20 -28s7.5 -22 7.5 -34s-2.5 -23.5 -7.5 -34.5s-11.667 -20.667 -20 -29s-18.166 -14.833 -29.499 -19.5s-23 -7 -35 -7c-24.667 0 -45.5 8.83301 -62.5 26.5
s-25.5 38.834 -25.5 63.501z" />
    <glyph glyph-name="uniFEAE" unicode="&#x631;" horiz-adv-x="642" arabic-form="final" 
d="M458 53c0 -94 -5.49707 -174.665 -16.4971 -241.998s-30.167 -122.833 -57.5 -166.5s-64.333 -75.834 -111 -96.501s-105.334 -31 -176.001 -31h-57v132h57c53.333 0 95.5 9.16699 126.5 27.5s54.5 45.833 70.5 82.5s26.167 82.167 30.5 136.5s6.5 117.5 6.5 189.5v693
h129v-387c0 -40.667 2.5 -77.167 7.5 -109.5s14.333 -59.833 28 -82.5s32.167 -40 55.5 -52s53.666 -18 90.999 -18c23.333 0 41.166 -4 53.499 -12s18.5 -24.333 18.5 -49c0 -14.667 -1.5 -26.334 -4.5 -35.001s-7.5 -15.5 -13.5 -20.5s-13.5 -8.33301 -22.5 -10
s-19.5 -2.5 -31.5 -2.5c-48 0 -86.833 7.16699 -116.5 21.5s-52.167 36.833 -67.5 67.5v-36z" />
    <glyph glyph-name="uniFEB0" unicode="&#x632;" horiz-adv-x="642" arabic-form="final" 
d="M458 53c0 -94 -5.49707 -174.665 -16.4971 -241.998s-30.167 -122.833 -57.5 -166.5s-64.333 -75.834 -111 -96.501s-105.334 -31 -176.001 -31h-57v132h57c53.333 0 95.5 9.16699 126.5 27.5s54.5 45.833 70.5 82.5s26.167 82.167 30.5 136.5s6.5 117.5 6.5 189.5v693
h129v-387c0 -40.667 2.5 -77.167 7.5 -109.5s14.333 -59.833 28 -82.5s32.167 -40 55.5 -52s53.666 -18 90.999 -18c23.333 0 41.166 -4 53.499 -12s18.5 -24.333 18.5 -49c0 -14.667 -1.5 -26.334 -4.5 -35.001s-7.5 -15.5 -13.5 -20.5s-13.5 -8.33301 -22.5 -10
s-19.5 -2.5 -31.5 -2.5c-48 0 -86.833 7.16699 -116.5 21.5s-52.167 36.833 -67.5 67.5v-36zM300.003 1161c0 24.667 8.5 45.499 25.5 62.499s37.833 25.5 62.5 25.5c12 0 23.667 -2.33301 35 -7s21.166 -11 29.499 -19s15 -17.333 20 -28s7.5 -22 7.5 -34
s-2.5 -23.5 -7.5 -34.5s-11.667 -20.667 -20 -29s-18.166 -14.833 -29.499 -19.5s-23 -7 -35 -7c-24.667 0 -45.5 8.83301 -62.5 26.5s-25.5 38.834 -25.5 63.501z" />
    <glyph glyph-name="uniFEB2" unicode="&#x633;" horiz-adv-x="2491" arabic-form="final" 
d="M1182 1c0 -89.333 -11.334 -164.827 -34.001 -226.494s-57.334 -111.5 -104.001 -149.5s-105.667 -65.5 -177 -82.5s-155.333 -25.5 -252 -25.5c-185.333 0 -325.833 38 -421.5 114s-143.5 194 -143.5 354v307h129v-273c0 -68.667 9.33301 -126.667 28 -174
s46.5 -85.833 83.5 -115.5s82.833 -51 137.5 -64s118.334 -19.5 191.001 -19.5c76 0 141.5 5.66699 196.5 17s100.167 30.666 135.5 57.999s61.333 63.833 78 109.5s25 103.167 25 172.5v668h128v-282c0 -39.333 2.33301 -75 7 -107s15.5 -59.333 32.5 -82
s41.667 -40.167 74 -52.5s76.5 -18.5 132.5 -18.5c35.333 0 66.333 1.66699 93 5s48.834 11.166 66.501 23.499s31 30.333 40 54s13.5 56.167 13.5 97.5v361h127v-281c0 -39.333 2.83301 -75 8.5 -107s16.334 -59.333 32.001 -82s37 -40.167 64 -52.5
s61.833 -18.5 104.5 -18.5c28.667 0 55.334 1.66699 80.001 5s46.167 11.166 64.5 23.499s32.666 30.333 43 54c10.333 23.667 15.5 56.167 15.5 97.5v469h127v-389c0 -39.333 3 -75 9 -107s16.167 -59.333 30.5 -82s33.166 -40.167 56.5 -52.5
c23.333 -12.333 52.666 -18.5 88 -18.5c23.333 0 41 -4 53 -12s18 -24.333 18 -49c0 -14.667 -1.5 -26.334 -4.5 -35.001s-7.5 -15.5 -13.5 -20.5s-13.333 -8.33301 -22 -10s-19 -2.5 -31 -2.5c-49.333 0 -91.833 8.5 -127.5 25.5s-64.834 48.167 -87.5 93.5
c-25.333 -42 -59.5 -72.667 -102.5 -92s-93.5 -29 -151.5 -29c-26.667 0 -53.834 1.66699 -81.501 5s-54 9.5 -79 18.5s-47.833 21.667 -68.5 38s-37 37.5 -49 63.5c-17.333 -26.667 -36.166 -48.167 -56.499 -64.5s-42.833 -28.833 -67.5 -37.5s-52 -14.334 -82 -17.001
s-63.333 -4 -100 -4c-30.667 0 -58.334 2 -83.001 6s-47.334 10.167 -68.001 18.5s-39.667 18.666 -57 30.999s-33.333 26.5 -48 42.5v-97z" />
    <glyph glyph-name="uniFEB3" unicode="&#x633;" horiz-adv-x="1692" arabic-form="initial" 
d="M0 0c-23.333 0 -41.167 4.33203 -53.5 12.999s-18.5 25.334 -18.5 50.001c0 14.667 1.5 26.334 4.5 35.001s7.5 15.334 13.5 20.001s13.5 7.66699 22.5 9s19.5 2 31.5 2h22c52.667 0 96.667 1.66699 132 5s63.833 11.166 85.5 23.499s37 30.333 46 54
s13.5 56.167 13.5 97.5v363h129v-283c0 -39.333 2.33301 -75 7 -107s15.5 -59.333 32.5 -82s41.833 -40.167 74.5 -52.5s76.667 -18.5 132 -18.5c35.333 0 66.166 1.66699 92.499 5s48.333 11.166 66 23.499s30.834 30.333 39.501 54s13 56.167 13 97.5v361h129v-281
c0 -39.333 2.83301 -75 8.5 -107s16.167 -59.333 31.5 -82s36.5 -40.167 63.5 -52.5s61.833 -18.5 104.5 -18.5h201v649h129v-778h-330c-48 0 -91.5 8.16699 -130.5 24.5s-72.5 46.5 -100.5 90.5c-19.333 -26 -40 -46.667 -62 -62s-46 -27 -72 -35s-54.333 -13 -85 -15
s-64 -3 -100 -3c-26.667 0 -54 1.66699 -82 5s-54.5 9.5 -79.5 18.5s-47.833 21.667 -68.5 38s-37 37.5 -49 63.5c-16.667 -23.333 -34.167 -42.833 -52.5 -58.5s-41.166 -28.5 -68.499 -38.5s-61.333 -17.167 -102 -21.5s-91.334 -6.5 -152.001 -6.5h-18z" />
    <glyph glyph-name="uniFEB4" unicode="&#x633;" horiz-adv-x="1736" arabic-form="medial" 
d="M1736 0c-49.333 0 -91.666 8.00195 -126.999 24.002s-64.666 45.667 -87.999 89c-28 -40 -63.167 -69.167 -105.5 -87.5s-92.5 -27.5 -150.5 -27.5c-26.667 0 -53.834 1.66699 -81.501 5s-54 9.5 -79 18.5s-47.833 21.667 -68.5 38s-37 37.5 -49 63.5
c-18 -26.667 -37.667 -48.167 -59 -64.5s-44.833 -28.833 -70.5 -37.5s-53.834 -14.334 -84.501 -17.001s-64.334 -4 -101.001 -4c-26.667 0 -54 1.66699 -82 5s-54.5 9.5 -79.5 18.5s-47.833 21.667 -68.5 38s-37 37.5 -49 63.5
c-16.667 -23.333 -34.167 -42.833 -52.5 -58.5s-41.166 -28.5 -68.499 -38.5s-61.333 -17.167 -102 -21.5s-91.334 -6.5 -152.001 -6.5h-18c-23.333 0 -41.166 4.33301 -53.499 13s-18.5 25.334 -18.5 50.001c0 14.667 1.5 26.334 4.5 35.001s7.5 15.334 13.5 20.001
s13.5 7.66699 22.5 9s19.5 2 31.5 2h22c52.667 0 96.667 1.66699 132 5s63.833 11.166 85.5 23.499s37 30.333 46 54s13.5 56.167 13.5 97.5v363h129v-283c0 -39.333 2.33301 -75 7 -107s15.5 -59.333 32.5 -82s41.833 -40.167 74.5 -52.5s76.667 -18.5 132 -18.5
c35.333 0 66.166 1.66699 92.499 5s48.333 11.166 66 23.499s30.834 30.333 39.501 54s13 56.167 13 97.5v361h129v-281c0 -39.333 2.83301 -75 8.5 -107s16 -59.333 31 -82s35.833 -40.167 62.5 -52.5s61.334 -18.5 104.001 -18.5c28.667 0 55.334 1.66699 80.001 5
s46.167 11.166 64.5 23.499s32.666 30.333 42.999 54s15.5 56.167 15.5 97.5v469h129v-389c0 -39.333 2.5 -75 7.5 -107s14.333 -59.333 28 -82s32.5 -40.167 56.5 -52.5s54.667 -18.5 92 -18.5c23.333 0 41.166 -4 53.499 -12s18.5 -24.333 18.5 -49
c0 -14.667 -1.5 -26.334 -4.5 -35.001s-7.5 -15.5 -13.5 -20.5s-13.5 -8.33301 -22.5 -10s-19.5 -2.5 -31.5 -2.5z" />
    <glyph glyph-name="uniFEB6" unicode="&#x634;" horiz-adv-x="2491" arabic-form="final" 
d="M1182 1c0 -89.333 -11.334 -164.827 -34.001 -226.494s-57.334 -111.5 -104.001 -149.5s-105.667 -65.5 -177 -82.5s-155.333 -25.5 -252 -25.5c-185.333 0 -325.833 38 -421.5 114s-143.5 194 -143.5 354v307h129v-273c0 -68.667 9.33301 -126.667 28 -174
s46.5 -85.833 83.5 -115.5s82.833 -51 137.5 -64s118.334 -19.5 191.001 -19.5c76 0 141.5 5.66699 196.5 17s100.167 30.666 135.5 57.999s61.333 63.833 78 109.5s25 103.167 25 172.5v668h128v-282c0 -39.333 2.33301 -75 7 -107s15.5 -59.333 32.5 -82
s41.667 -40.167 74 -52.5s76.5 -18.5 132.5 -18.5c35.333 0 66.333 1.66699 93 5s48.834 11.166 66.501 23.499s31 30.333 40 54s13.5 56.167 13.5 97.5v361h127v-281c0 -39.333 2.83301 -75 8.5 -107s16.334 -59.333 32.001 -82s37 -40.167 64 -52.5
s61.833 -18.5 104.5 -18.5c28.667 0 55.334 1.66699 80.001 5s46.167 11.166 64.5 23.499s32.666 30.333 43 54c10.333 23.667 15.5 56.167 15.5 97.5v469h127v-389c0 -39.333 3 -75 9 -107s16.167 -59.333 30.5 -82s33.166 -40.167 56.5 -52.5
c23.333 -12.333 52.666 -18.5 88 -18.5c23.333 0 41 -4 53 -12s18 -24.333 18 -49c0 -14.667 -1.5 -26.334 -4.5 -35.001s-7.5 -15.5 -13.5 -20.5s-13.333 -8.33301 -22 -10s-19 -2.5 -31 -2.5c-49.333 0 -91.833 8.5 -127.5 25.5s-64.834 48.167 -87.5 93.5
c-25.333 -42 -59.5 -72.667 -102.5 -92s-93.5 -29 -151.5 -29c-26.667 0 -53.834 1.66699 -81.501 5s-54 9.5 -79 18.5s-47.833 21.667 -68.5 38s-37 37.5 -49 63.5c-17.333 -26.667 -36.166 -48.167 -56.499 -64.5s-42.833 -28.833 -67.5 -37.5s-52 -14.334 -82 -17.001
s-63.333 -4 -100 -4c-30.667 0 -58.334 2 -83.001 6s-47.334 10.167 -68.001 18.5s-39.667 18.666 -57 30.999s-33.333 26.5 -48 42.5v-97zM1472 1161.01c0 24.667 8.66699 45.5 26 62.5s38.666 25.5 63.999 25.5c24.667 0 45.834 -8.5 63.501 -25.5
s26.5 -37.833 26.5 -62.5s-8.83301 -45.834 -26.5 -63.501s-38.834 -26.5 -63.501 -26.5c-25.333 0 -46.666 8.83301 -63.999 26.5s-26 38.834 -26 63.501zM1750 1161.01c0 24.667 8.83301 45.5 26.5 62.5s38.834 25.5 63.501 25.5s45.834 -8.5 63.501 -25.5
s26.5 -37.833 26.5 -62.5s-8.83301 -45.834 -26.5 -63.501s-38.834 -26.5 -63.501 -26.5s-45.834 8.83301 -63.501 26.5s-26.5 38.834 -26.5 63.501zM1615 1419.01c0 24.667 8.83301 45.499 26.5 62.499s38.834 25.5 63.501 25.5c12 0 23.667 -2.33301 35 -7
s21.166 -11 29.499 -19s15 -17.333 20 -28s7.5 -22 7.5 -34s-2.5 -23.5 -7.5 -34.5s-11.667 -20.667 -20 -29s-18.166 -14.833 -29.499 -19.5s-23 -7 -35 -7c-24.667 0 -45.834 8.83301 -63.501 26.5s-26.5 38.834 -26.5 63.501z" />
    <glyph glyph-name="uniFEB7" unicode="&#x634;" horiz-adv-x="1692" arabic-form="initial" 
d="M0 0c-23.333 0 -41.167 4.33203 -53.5 12.999s-18.5 25.334 -18.5 50.001c0 14.667 1.5 26.334 4.5 35.001s7.5 15.334 13.5 20.001s13.5 7.66699 22.5 9s19.5 2 31.5 2h22c52.667 0 96.667 1.66699 132 5s63.833 11.166 85.5 23.499s37 30.333 46 54
s13.5 56.167 13.5 97.5v363h129v-283c0 -39.333 2.33301 -75 7 -107s15.5 -59.333 32.5 -82s41.833 -40.167 74.5 -52.5s76.667 -18.5 132 -18.5c35.333 0 66.166 1.66699 92.499 5s48.333 11.166 66 23.499s30.834 30.333 39.501 54s13 56.167 13 97.5v361h129v-281
c0 -39.333 2.83301 -75 8.5 -107s16.167 -59.333 31.5 -82s36.5 -40.167 63.5 -52.5s61.833 -18.5 104.5 -18.5h201v649h129v-778h-330c-48 0 -91.5 8.16699 -130.5 24.5s-72.5 46.5 -100.5 90.5c-19.333 -26 -40 -46.667 -62 -62s-46 -27 -72 -35s-54.333 -13 -85 -15
s-64 -3 -100 -3c-26.667 0 -54 1.66699 -82 5s-54.5 9.5 -79.5 18.5s-47.833 21.667 -68.5 38s-37 37.5 -49 63.5c-16.667 -23.333 -34.167 -42.833 -52.5 -58.5s-41.166 -28.5 -68.499 -38.5s-61.333 -17.167 -102 -21.5s-91.334 -6.5 -152.001 -6.5h-18zM694.999 1161
c0 24.667 8.66699 45.5 26 62.5s38.666 25.5 63.999 25.5c24.667 0 45.834 -8.5 63.501 -25.5s26.5 -37.833 26.5 -62.5s-8.83301 -45.834 -26.5 -63.501s-38.834 -26.5 -63.501 -26.5c-25.333 0 -46.666 8.83301 -63.999 26.5s-26 38.834 -26 63.501zM972.999 1161
c0 24.667 8.83301 45.5 26.5 62.5s38.834 25.5 63.501 25.5s45.834 -8.5 63.501 -25.5s26.5 -37.833 26.5 -62.5s-8.83301 -45.834 -26.5 -63.501s-38.834 -26.5 -63.501 -26.5s-45.834 8.83301 -63.501 26.5s-26.5 38.834 -26.5 63.501zM837.999 1419
c0 24.667 8.83301 45.499 26.5 62.499s38.834 25.5 63.501 25.5c12 0 23.667 -2.33301 35 -7s21.166 -11 29.499 -19s15 -17.333 20 -28s7.5 -22 7.5 -34s-2.5 -23.5 -7.5 -34.5s-11.667 -20.667 -20 -29s-18.166 -14.833 -29.499 -19.5s-23 -7 -35 -7
c-24.667 0 -45.834 8.83301 -63.501 26.5s-26.5 38.834 -26.5 63.501z" />
    <glyph glyph-name="uniFEB8" unicode="&#x634;" horiz-adv-x="1736" arabic-form="medial" 
d="M1736 0c-49.333 0 -91.666 8.00195 -126.999 24.002s-64.666 45.667 -87.999 89c-28 -40 -63.167 -69.167 -105.5 -87.5s-92.5 -27.5 -150.5 -27.5c-26.667 0 -53.834 1.66699 -81.501 5s-54 9.5 -79 18.5s-47.833 21.667 -68.5 38s-37 37.5 -49 63.5
c-18 -26.667 -37.667 -48.167 -59 -64.5s-44.833 -28.833 -70.5 -37.5s-53.834 -14.334 -84.501 -17.001s-64.334 -4 -101.001 -4c-26.667 0 -54 1.66699 -82 5s-54.5 9.5 -79.5 18.5s-47.833 21.667 -68.5 38s-37 37.5 -49 63.5
c-16.667 -23.333 -34.167 -42.833 -52.5 -58.5s-41.166 -28.5 -68.499 -38.5s-61.333 -17.167 -102 -21.5s-91.334 -6.5 -152.001 -6.5h-18c-23.333 0 -41.166 4.33301 -53.499 13s-18.5 25.334 -18.5 50.001c0 14.667 1.5 26.334 4.5 35.001s7.5 15.334 13.5 20.001
s13.5 7.66699 22.5 9s19.5 2 31.5 2h22c52.667 0 96.667 1.66699 132 5s63.833 11.166 85.5 23.499s37 30.333 46 54s13.5 56.167 13.5 97.5v363h129v-283c0 -39.333 2.33301 -75 7 -107s15.5 -59.333 32.5 -82s41.833 -40.167 74.5 -52.5s76.667 -18.5 132 -18.5
c35.333 0 66.166 1.66699 92.499 5s48.333 11.166 66 23.499s30.834 30.333 39.501 54s13 56.167 13 97.5v361h129v-281c0 -39.333 2.83301 -75 8.5 -107s16 -59.333 31 -82s35.833 -40.167 62.5 -52.5s61.334 -18.5 104.001 -18.5c28.667 0 55.334 1.66699 80.001 5
s46.167 11.166 64.5 23.499s32.666 30.333 42.999 54s15.5 56.167 15.5 97.5v469h129v-389c0 -39.333 2.5 -75 7.5 -107s14.333 -59.333 28 -82s32.5 -40.167 56.5 -52.5s54.667 -18.5 92 -18.5c23.333 0 41.166 -4 53.499 -12s18.5 -24.333 18.5 -49
c0 -14.667 -1.5 -26.334 -4.5 -35.001s-7.5 -15.5 -13.5 -20.5s-13.5 -8.33301 -22.5 -10s-19.5 -2.5 -31.5 -2.5zM721 1161c0 24.667 8.66699 45.5 26 62.5s38.666 25.5 63.999 25.5c24.667 0 45.834 -8.5 63.501 -25.5s26.5 -37.833 26.5 -62.5
s-8.83301 -45.834 -26.5 -63.501s-38.834 -26.5 -63.501 -26.5c-25.333 0 -46.666 8.83301 -63.999 26.5s-26 38.834 -26 63.501zM999 1161c0 24.667 8.83301 45.5 26.5 62.5s38.834 25.5 63.501 25.5s45.834 -8.5 63.501 -25.5s26.5 -37.833 26.5 -62.5
s-8.83301 -45.834 -26.5 -63.501s-38.834 -26.5 -63.501 -26.5s-45.834 8.83301 -63.501 26.5s-26.5 38.834 -26.5 63.501zM864 1419c0 24.667 8.83301 45.499 26.5 62.499s38.834 25.5 63.501 25.5c12 0 23.667 -2.33301 35 -7s21.166 -11 29.499 -19s15 -17.333 20 -28
s7.5 -22 7.5 -34s-2.5 -23.5 -7.5 -34.5s-11.667 -20.667 -20 -29s-18.166 -14.833 -29.499 -19.5s-23 -7 -35 -7c-24.667 0 -45.834 8.83301 -63.501 26.5s-26.5 38.834 -26.5 63.501z" />
    <glyph glyph-name="uniFEBA" unicode="&#x635;" horiz-adv-x="2803" arabic-form="final" 
d="M2529 129l0.000976562 170c0 55.333 -5.83301 106.5 -17.5 153.5s-30.5 87.5 -56.5 121.5s-60 60.667 -102 80s-93.333 29 -154 29c-47.333 0 -92.833 -7.66699 -136.5 -23s-85.334 -36.333 -125.001 -63s-76.667 -57.834 -111 -93.501s-65.833 -74 -94.5 -115
s-54.167 -83.667 -76.5 -128s-40.5 -88.166 -54.5 -131.499h928zM1183 1c0 -89.333 -11.5 -164.831 -34.5 -226.498s-57.833 -111.5 -104.5 -149.5s-105.667 -65.5 -177 -82.5s-155.333 -25.5 -252 -25.5c-185.333 0 -325.833 38 -421.5 114s-143.5 194 -143.5 354v307h129
v-273c0 -68.667 9.33301 -126.667 28 -174s46.5 -85.833 83.5 -115.5s82.833 -51 137.5 -64s118.334 -19.5 191.001 -19.5c76 0 141.5 5.66699 196.5 17s100.167 30.666 135.5 57.999s61.333 63.833 78 109.5s25 103.167 25 172.5v668h129v-280
c0 -39.333 2.66699 -75.166 8 -107.499s17.333 -60 36 -83s45.667 -40.667 81 -53s82.666 -18.5 141.999 -18.5c20.667 54 45.334 108.5 74.001 163.5s61 107.667 97 158s75.833 97.333 119.5 141s90.834 81.667 141.501 114s104.834 57.666 162.501 75.999
s118.834 27.5 183.5 27.5c68 0 128.667 -10.5 182 -31.5s98.333 -51.5 135 -91.5s64.667 -89.167 84 -147.5s29 -124.5 29 -198.5v-211h145c23.333 0 41.166 -4 53.499 -12s18.5 -24.333 18.5 -49c0 -14.667 -1.5 -26.334 -4.5 -35.001s-7.5 -15.5 -13.5 -20.5
s-13.5 -8.33301 -22.5 -10s-19.5 -2.5 -31.5 -2.5h-1320c-40.667 0 -76.834 1 -108.501 3s-59.5 6.5 -83.5 13.5s-44.833 17.167 -62.5 30.5s-32.834 31 -45.501 53v-99z" />
    <glyph glyph-name="uniFEBB" unicode="&#x635;" horiz-adv-x="1893" arabic-form="initial" 
d="M1643 129l0.00195312 170c0 55.333 -5.83301 106.5 -17.5 153.5s-30.5 87.5 -56.5 121.5s-59.667 60.667 -101 80s-92 29 -152 29c-47.333 0 -93 -7.66699 -137 -23s-85.833 -36.333 -125.5 -63s-76.834 -57.834 -111.501 -93.501s-66.334 -74 -95.001 -115
s-54.167 -83.667 -76.5 -128s-40.5 -88.166 -54.5 -131.499h927zM0.00195312 0c-23.333 0 -41.1699 4.33301 -53.5029 13s-18.5 25.334 -18.5 50.001c0 14.667 1.5 26.334 4.5 35.001s7.5 15.334 13.5 20.001s13.5 7.66699 22.5 9s19.5 2 31.5 2h18
c40.667 0 75.834 1.66699 105.501 5s54.334 11.166 74.001 23.499s34.167 30.333 43.5 54s14 56.167 14 97.5v318h129v-238c0 -39.333 1.66699 -75 5 -107s11.5 -59.333 24.5 -82s32.167 -40.167 57.5 -52.5s59.666 -18.5 102.999 -18.5
c17.333 52.667 39.666 106.167 66.999 160.5s58.833 106.666 94.5 156.999s75.334 97.5 119.001 141.5s91 82.333 142 115s105.5 58.5 163.5 77.5s118.667 28.5 182 28.5c68 0 128.667 -10.5 182 -31.5s98.333 -51.5 135 -91.5s64.5 -89.167 83.5 -147.5
s28.5 -124.5 28.5 -198.5v-340h-1164c-69.333 0 -124.166 8.66699 -164.499 26s-70.166 49 -89.499 95c-12 -24.667 -28.5 -44.834 -49.5 -60.501s-45.833 -28 -74.5 -37s-61 -15.167 -97 -18.5s-75.333 -5 -118 -5h-14z" />
    <glyph glyph-name="uniFEBC" unicode="&#x635;" horiz-adv-x="1918" arabic-form="medial" 
d="M608 0c-69.333 0 -124.169 8.66699 -164.502 26s-70.166 49 -89.499 95c-13.333 -22 -30 -40.667 -50 -56s-44.167 -27.833 -72.5 -37.5s-61.166 -16.667 -98.499 -21s-80 -6.5 -128 -6.5h-5c-23.333 -0 -41.166 4.33301 -53.499 13s-18.5 25.334 -18.5 50.001
c0 14.667 1.5 26.334 4.5 35.001s7.5 15.334 13.5 20.001s13.5 7.66699 22.5 9s19.5 2 31.5 2h9c42 0 78.5 1.66699 109.5 5s56.667 11.166 77 23.499s35.5 30.333 45.5 54s15 56.167 15 97.5v318h129v-238c0 -39.333 1.66699 -75 5 -107s11.5 -59.333 24.5 -82
s32.167 -40.167 57.5 -52.5s59.666 -18.5 102.999 -18.5c17.333 52.667 39.666 106.167 66.999 160.5s58.833 106.666 94.5 156.999s75.334 97.5 119.001 141.5s91 82.333 142 115s105.5 58.5 163.5 77.5s118.667 28.5 182 28.5c68 0 128.667 -10.5 182 -31.5
s98.333 -51.5 135 -91.5s64.667 -89.167 84 -147.5s29 -124.5 29 -198.5v-211h145c23.333 0 41 -4 53 -12s18 -24.333 18 -49c0 -14.667 -1.5 -26.334 -4.5 -35.001s-7.5 -15.5 -13.5 -20.5s-13.333 -8.33301 -22 -10s-19 -2.5 -31 -2.5h-1310zM1644 129l0.00195312 170
c0 55.333 -5.83301 106.5 -17.5 153.5s-30.5 87.5 -56.5 121.5s-59.667 60.667 -101 80s-92 29 -152 29c-47.333 0 -93 -7.66699 -137 -23s-85.833 -36.333 -125.5 -63s-76.834 -57.834 -111.501 -93.501s-66.334 -74 -95.001 -115s-54.167 -83.667 -76.5 -128
s-40.5 -88.166 -54.5 -131.499h927z" />
    <glyph glyph-name="uniFEBE" unicode="&#x636;" horiz-adv-x="2803" arabic-form="final" 
d="M2529 129l0.000976562 170c0 55.333 -5.83301 106.5 -17.5 153.5s-30.5 87.5 -56.5 121.5s-60 60.667 -102 80s-93.333 29 -154 29c-47.333 0 -92.833 -7.66699 -136.5 -23s-85.334 -36.333 -125.001 -63s-76.667 -57.834 -111 -93.501s-65.833 -74 -94.5 -115
s-54.167 -83.667 -76.5 -128s-40.5 -88.166 -54.5 -131.499h928zM1183 1c0 -89.333 -11.5 -164.831 -34.5 -226.498s-57.833 -111.5 -104.5 -149.5s-105.667 -65.5 -177 -82.5s-155.333 -25.5 -252 -25.5c-185.333 0 -325.833 38 -421.5 114s-143.5 194 -143.5 354v307h129
v-273c0 -68.667 9.33301 -126.667 28 -174s46.5 -85.833 83.5 -115.5s82.833 -51 137.5 -64s118.334 -19.5 191.001 -19.5c76 0 141.5 5.66699 196.5 17s100.167 30.666 135.5 57.999s61.333 63.833 78 109.5s25 103.167 25 172.5v668h129v-280
c0 -39.333 2.66699 -75.166 8 -107.499s17.333 -60 36 -83s45.667 -40.667 81 -53s82.666 -18.5 141.999 -18.5c20.667 54 45.334 108.5 74.001 163.5s61 107.667 97 158s75.833 97.333 119.5 141s90.834 81.667 141.501 114s104.834 57.666 162.501 75.999
s118.834 27.5 183.5 27.5c68 0 128.667 -10.5 182 -31.5s98.333 -51.5 135 -91.5s64.667 -89.167 84 -147.5s29 -124.5 29 -198.5v-211h145c23.333 0 41.166 -4 53.499 -12s18.5 -24.333 18.5 -49c0 -14.667 -1.5 -26.334 -4.5 -35.001s-7.5 -15.5 -13.5 -20.5
s-13.5 -8.33301 -22.5 -10s-19.5 -2.5 -31.5 -2.5h-1320c-40.667 0 -76.834 1 -108.501 3s-59.5 6.5 -83.5 13.5s-44.833 17.167 -62.5 30.5s-32.834 31 -45.501 53v-99zM2058 1161c0 24.667 8.49902 45.499 25.499 62.499s37.833 25.5 62.5 25.5
c12 0 23.667 -2.33301 35 -7s21.166 -11 29.5 -19c8.33301 -8 15 -17.333 20 -28s7.5 -22 7.5 -34s-2.5 -23.5 -7.5 -34.5s-11.667 -20.667 -20 -29s-18.166 -14.833 -29.499 -19.5s-23 -7 -35 -7c-24.667 0 -45.5 8.83301 -62.5 26.5s-25.5 38.834 -25.5 63.501z" />
    <glyph glyph-name="uniFEBF" unicode="&#x636;" horiz-adv-x="1893" arabic-form="initial" 
d="M1643 129l0.00195312 170c0 55.333 -5.83301 106.5 -17.5 153.5s-30.5 87.5 -56.5 121.5s-59.667 60.667 -101 80s-92 29 -152 29c-47.333 0 -93 -7.66699 -137 -23s-85.833 -36.333 -125.5 -63s-76.834 -57.834 -111.501 -93.501s-66.334 -74 -95.001 -115
s-54.167 -83.667 -76.5 -128s-40.5 -88.166 -54.5 -131.499h927zM0.00195312 0c-23.333 0 -41.1699 4.33301 -53.5029 13s-18.5 25.334 -18.5 50.001c0 14.667 1.5 26.334 4.5 35.001s7.5 15.334 13.5 20.001s13.5 7.66699 22.5 9s19.5 2 31.5 2h18
c40.667 0 75.834 1.66699 105.501 5s54.334 11.166 74.001 23.499s34.167 30.333 43.5 54s14 56.167 14 97.5v318h129v-238c0 -39.333 1.66699 -75 5 -107s11.5 -59.333 24.5 -82s32.167 -40.167 57.5 -52.5s59.666 -18.5 102.999 -18.5
c17.333 52.667 39.666 106.167 66.999 160.5s58.833 106.666 94.5 156.999s75.334 97.5 119.001 141.5s91 82.333 142 115s105.5 58.5 163.5 77.5s118.667 28.5 182 28.5c68 0 128.667 -10.5 182 -31.5s98.333 -51.5 135 -91.5s64.5 -89.167 83.5 -147.5
s28.5 -124.5 28.5 -198.5v-340h-1164c-69.333 0 -124.166 8.66699 -164.499 26s-70.166 49 -89.499 95c-12 -24.667 -28.5 -44.834 -49.5 -60.501s-45.833 -28 -74.5 -37s-61 -15.167 -97 -18.5s-75.333 -5 -118 -5h-14zM1207 1161c0 24.667 8.5 45.499 25.5 62.499
s37.833 25.5 62.5 25.5c12 0 23.667 -2.33301 35 -7s21.166 -11 29.499 -19s15 -17.333 20 -28s7.5 -22 7.5 -34s-2.5 -23.5 -7.5 -34.5s-11.667 -20.667 -20 -29s-18.166 -14.833 -29.499 -19.5s-23 -7 -35 -7c-24.667 0 -45.5 8.83301 -62.5 26.5
s-25.5 38.834 -25.5 63.501z" />
    <glyph glyph-name="uniFEC0" unicode="&#x636;" horiz-adv-x="1918" arabic-form="medial" 
d="M608 0c-69.333 0 -124.169 8.66699 -164.502 26s-70.166 49 -89.499 95c-13.333 -22 -30 -40.667 -50 -56s-44.167 -27.833 -72.5 -37.5s-61.166 -16.667 -98.499 -21s-80 -6.5 -128 -6.5h-5c-23.333 -0 -41.166 4.33301 -53.499 13s-18.5 25.334 -18.5 50.001
c0 14.667 1.5 26.334 4.5 35.001s7.5 15.334 13.5 20.001s13.5 7.66699 22.5 9s19.5 2 31.5 2h9c42 0 78.5 1.66699 109.5 5s56.667 11.166 77 23.499s35.5 30.333 45.5 54s15 56.167 15 97.5v318h129v-238c0 -39.333 1.66699 -75 5 -107s11.5 -59.333 24.5 -82
s32.167 -40.167 57.5 -52.5s59.666 -18.5 102.999 -18.5c17.333 52.667 39.666 106.167 66.999 160.5s58.833 106.666 94.5 156.999s75.334 97.5 119.001 141.5s91 82.333 142 115s105.5 58.5 163.5 77.5s118.667 28.5 182 28.5c68 0 128.667 -10.5 182 -31.5
s98.333 -51.5 135 -91.5s64.667 -89.167 84 -147.5s29 -124.5 29 -198.5v-211h145c23.333 0 41 -4 53 -12s18 -24.333 18 -49c0 -14.667 -1.5 -26.334 -4.5 -35.001s-7.5 -15.5 -13.5 -20.5s-13.333 -8.33301 -22 -10s-19 -2.5 -31 -2.5h-1310zM1644 129l0.00195312 170
c0 55.333 -5.83301 106.5 -17.5 153.5s-30.5 87.5 -56.5 121.5s-59.667 60.667 -101 80s-92 29 -152 29c-47.333 0 -93 -7.66699 -137 -23s-85.833 -36.333 -125.5 -63s-76.834 -57.834 -111.501 -93.501s-66.334 -74 -95.001 -115s-54.167 -83.667 -76.5 -128
s-40.5 -88.166 -54.5 -131.499h927zM1204 1161c0 24.667 8.5 45.499 25.5 62.499s37.833 25.5 62.5 25.5c12 0 23.667 -2.33301 35 -7s21.166 -11 29.499 -19s15 -17.333 20 -28s7.5 -22 7.5 -34s-2.5 -23.5 -7.5 -34.5s-11.667 -20.667 -20 -29
s-18.166 -14.833 -29.499 -19.5s-23 -7 -35 -7c-24.667 0 -45.5 8.83301 -62.5 26.5s-25.5 38.834 -25.5 63.501z" />
    <glyph glyph-name="uniFEC2" unicode="&#x637;" horiz-adv-x="1617" arabic-form="final" 
d="M1050 809c66 0 125 -10.8311 177 -32.498s96 -52.834 132 -93.501s63.5 -90 82.5 -148s28.5 -123 28.5 -195v-211h147c23.333 0 41.166 -4 53.499 -12s18.5 -24.333 18.5 -49c0 -14.667 -1.5 -26.334 -4.5 -35.001s-7.5 -15.5 -13.5 -20.5s-13.5 -8.33301 -22.5 -10
s-19.5 -2.5 -31.5 -2.5h-1587v129h270v1333h129v-1075c38.667 66.667 81.334 126.167 128.001 178.5s96.167 96.5 148.5 132.5s107.5 63.5 165.5 82.5s117.667 28.5 179 28.5zM1341 129.002l0.000976562 169.999c0 52.667 -5.5 102.334 -16.5 149.001
s-29.333 87.334 -55 122.001s-59.5 62.167 -101.5 82.5s-94.333 30.5 -157 30.5c-46.667 0 -91.667 -8 -135 -24s-84.5 -37.833 -123.5 -65.5s-75.333 -59.834 -109 -96.501s-64.667 -75.5 -93 -116.5s-53.333 -83.167 -75 -126.5s-39.834 -85 -54.501 -125h920z" />
    <glyph glyph-name="uniFEC3" unicode="&#x637;" horiz-adv-x="1541" arabic-form="initial" 
d="M1290 129l0.00585938 169.999c0 52.667 -5.5 102.334 -16.5 149.001s-29.333 87.334 -55 122.001s-59.834 62.167 -102.501 82.5s-95.334 30.5 -158.001 30.5c-46.667 0 -91.334 -8 -134.001 -24s-83.334 -37.833 -122.001 -65.5s-74.834 -59.834 -108.501 -96.501
s-64.667 -75.5 -93 -116.5s-53.333 -83.167 -75 -126.5s-39.834 -85 -54.501 -125h919zM999.006 808.999c66 0 124.998 -10.835 176.998 -32.502s96 -52.834 132 -93.501s63.5 -90 82.5 -148s28.5 -123 28.5 -195v-340h-1419c-23.333 0 -41.166 4.33301 -53.499 13
s-18.5 25.334 -18.5 50.001c0 14.667 1.5 26.334 4.5 35.001s7.5 15.334 13.5 20.001s13.5 7.66699 22.5 9s19.5 2 31.5 2h250v1333h129v-1075c38.667 66.667 81.334 126.167 128.001 178.5s96.167 96.5 148.5 132.5s107.333 63.5 165 82.5s117.167 28.5 178.5 28.5z" />
    <glyph glyph-name="uniFEC4" unicode="&#x637;" horiz-adv-x="1564" arabic-form="medial" 
d="M999 809c66 0 124.999 -10.834 176.999 -32.501s96 -52.834 132 -93.501s63.5 -90 82.5 -148s28.5 -123 28.5 -195v-211h145c23.333 0 41.166 -4 53.499 -12s18.5 -24.333 18.5 -49c0 -14.667 -1.5 -26.334 -4.5 -35.001s-7.5 -15.5 -13.5 -20.5
s-13.5 -8.33301 -22.5 -10s-19.5 -2.5 -31.5 -2.5h-1564c-23.333 0 -41.166 4.33301 -53.499 13s-18.5 25.334 -18.5 50.001c0 14.667 1.5 26.334 4.5 35.001s7.5 15.334 13.5 20.001s13.5 7.66699 22.5 9s19.5 2 31.5 2h250v1333h129v-1075
c38.667 66.667 81.334 126.167 128.001 178.5s96.167 96.5 148.5 132.5s107.333 63.5 165 82.5s117.167 28.5 178.5 28.5zM1290 128.999l0.00585938 169.999c0 52.667 -5.5 102.334 -16.5 149.001s-29.333 87.334 -55 122.001s-59.834 62.167 -102.501 82.5
s-95.334 30.5 -158.001 30.5c-46.667 0 -91.334 -8 -134.001 -24s-83.334 -37.833 -122.001 -65.5s-74.834 -59.834 -108.501 -96.501s-64.667 -75.5 -93 -116.5s-53.333 -83.167 -75 -126.5s-39.834 -85 -54.501 -125h919z" />
    <glyph glyph-name="uniFEC6" unicode="&#x638;" horiz-adv-x="1617" arabic-form="final" 
d="M1050 809c66 0 125 -10.8311 177 -32.498s96 -52.834 132 -93.501s63.5 -90 82.5 -148s28.5 -123 28.5 -195v-211h147c23.333 0 41.166 -4 53.499 -12s18.5 -24.333 18.5 -49c0 -14.667 -1.5 -26.334 -4.5 -35.001s-7.5 -15.5 -13.5 -20.5s-13.5 -8.33301 -22.5 -10
s-19.5 -2.5 -31.5 -2.5h-1587v129h270v1333h129v-1075c38.667 66.667 81.334 126.167 128.001 178.5s96.167 96.5 148.5 132.5s107.5 63.5 165.5 82.5s117.667 28.5 179 28.5zM1341 129.002l0.000976562 169.999c0 52.667 -5.5 102.334 -16.5 149.001
s-29.333 87.334 -55 122.001s-59.5 62.167 -101.5 82.5s-94.333 30.5 -157 30.5c-46.667 0 -91.667 -8 -135 -24s-84.5 -37.833 -123.5 -65.5s-75.333 -59.834 -109 -96.501s-64.667 -75.5 -93 -116.5s-53.333 -83.167 -75 -126.5s-39.834 -85 -54.501 -125h920z
M940.001 1161c0 24.667 8.5 45.499 25.5 62.499s37.833 25.5 62.5 25.5c12 0 23.667 -2.33301 35 -7s21.166 -11 29.499 -19s15 -17.333 20 -28s7.5 -22 7.5 -34s-2.5 -23.5 -7.5 -34.5s-11.667 -20.667 -20 -29s-18.166 -14.833 -29.499 -19.5s-23 -7 -35 -7
c-24.667 0 -45.5 8.83301 -62.5 26.5s-25.5 38.834 -25.5 63.501z" />
    <glyph glyph-name="uniFEC7" unicode="&#x638;" horiz-adv-x="1541" arabic-form="initial" 
d="M1290 129l0.00585938 169.999c0 52.667 -5.5 102.334 -16.5 149.001s-29.333 87.334 -55 122.001s-59.834 62.167 -102.501 82.5s-95.334 30.5 -158.001 30.5c-46.667 0 -91.334 -8 -134.001 -24s-83.334 -37.833 -122.001 -65.5s-74.834 -59.834 -108.501 -96.501
s-64.667 -75.5 -93 -116.5s-53.333 -83.167 -75 -126.5s-39.834 -85 -54.501 -125h919zM999.006 808.999c66 0 124.998 -10.835 176.998 -32.502s96 -52.834 132 -93.501s63.5 -90 82.5 -148s28.5 -123 28.5 -195v-340h-1419c-23.333 0 -41.166 4.33301 -53.499 13
s-18.5 25.334 -18.5 50.001c0 14.667 1.5 26.334 4.5 35.001s7.5 15.334 13.5 20.001s13.5 7.66699 22.5 9s19.5 2 31.5 2h250v1333h129v-1075c38.667 66.667 81.334 126.167 128.001 178.5s96.167 96.5 148.5 132.5s107.333 63.5 165 82.5s117.167 28.5 178.5 28.5z
M887.004 1161c0 24.667 8.5 45.499 25.5 62.499s37.833 25.5 62.5 25.5c12 0 23.667 -2.33301 35 -7s21.166 -11 29.499 -19s15 -17.333 20 -28s7.5 -22 7.5 -34s-2.5 -23.5 -7.5 -34.5s-11.667 -20.667 -20 -29s-18.166 -14.833 -29.499 -19.5s-23 -7 -35 -7
c-24.667 0 -45.5 8.83301 -62.5 26.5s-25.5 38.834 -25.5 63.501z" />
    <glyph glyph-name="uniFEC8" unicode="&#x638;" horiz-adv-x="1564" arabic-form="medial" 
d="M999 809c66 0 124.999 -10.834 176.999 -32.501s96 -52.834 132 -93.501s63.5 -90 82.5 -148s28.5 -123 28.5 -195v-211h145c23.333 0 41.166 -4 53.499 -12s18.5 -24.333 18.5 -49c0 -14.667 -1.5 -26.334 -4.5 -35.001s-7.5 -15.5 -13.5 -20.5
s-13.5 -8.33301 -22.5 -10s-19.5 -2.5 -31.5 -2.5h-1564c-23.333 0 -41.166 4.33301 -53.499 13s-18.5 25.334 -18.5 50.001c0 14.667 1.5 26.334 4.5 35.001s7.5 15.334 13.5 20.001s13.5 7.66699 22.5 9s19.5 2 31.5 2h250v1333h129v-1075
c38.667 66.667 81.334 126.167 128.001 178.5s96.167 96.5 148.5 132.5s107.333 63.5 165 82.5s117.167 28.5 178.5 28.5zM1290 128.999l0.00585938 169.999c0 52.667 -5.5 102.334 -16.5 149.001s-29.333 87.334 -55 122.001s-59.834 62.167 -102.501 82.5
s-95.334 30.5 -158.001 30.5c-46.667 0 -91.334 -8 -134.001 -24s-83.334 -37.833 -122.001 -65.5s-74.834 -59.834 -108.501 -96.501s-64.667 -75.5 -93 -116.5s-53.333 -83.167 -75 -126.5s-39.834 -85 -54.501 -125h919zM877.005 1161c0 24.667 8.5 45.499 25.5 62.499
s37.833 25.5 62.5 25.5c12 0 23.667 -2.33301 35 -7s21.166 -11 29.499 -19s15 -17.333 20 -28s7.5 -22 7.5 -34s-2.5 -23.5 -7.5 -34.5s-11.667 -20.667 -20 -29s-18.166 -14.833 -29.499 -19.5s-23 -7 -35 -7c-24.667 0 -45.5 8.83301 -62.5 26.5
s-25.5 38.834 -25.5 63.501z" />
    <glyph glyph-name="uniFECA" unicode="&#x639;" horiz-adv-x="1130" arabic-form="final" 
d="M628 680c-30.667 0 -60.334 -3.49609 -89.001 -10.4961s-55.667 -16.833 -81 -29.5s-49.166 -27.334 -71.499 -44.001s-42.5 -34.334 -60.5 -53.001l269 -301c36 19.333 69.833 40.166 101.5 62.499s59.5 45.833 83.5 70.5s42.833 50.5 56.5 77.5s20.5 54.5 20.5 82.5
c0 20 -4.5 38.667 -13.5 56s-22.833 32.666 -41.5 45.999s-42.5 23.833 -71.5 31.5s-63.167 11.5 -102.5 11.5zM482 191.004l-140.002 160l-140 159c4 14 9 28.5 15 43.5s12.5 29.333 19.5 43s14.167 26.334 21.5 38.001s14 21.5 20 29.5c44 44 96.833 79.167 158.5 105.5
s128.834 39.5 201.501 39.5c59.333 0 110.833 -7 154.5 -21s79.667 -32.5 108 -55.5s49.333 -49.167 63 -78.5s20.5 -59 20.5 -89c0 -40.667 -6.83301 -79.667 -20.5 -117s-33 -73 -58 -107s-55.667 -66.167 -92 -96.5s-76.833 -58.5 -121.5 -84.5
c25.333 -12.667 52 -21 80 -25s60 -6 96 -6h264c23.333 0 41.166 -4 53.499 -12s18.5 -24.333 18.5 -49c0 -14.667 -1.5 -26.334 -4.5 -35.001s-7.5 -15.5 -13.5 -20.5s-13.5 -8.33301 -22.5 -10s-19.5 -2.5 -31.5 -2.5h-324c-20.667 0 -40.5 1.33301 -59.5 4
s-38.167 7.66699 -57.5 15s-39 17.333 -59 30s-41 29 -63 49c-51.333 -25.333 -101.666 -51.5 -150.999 -78.5s-93.166 -57.5 -131.499 -91.5s-69.166 -72.5 -92.499 -115.5s-35 -92.833 -35 -149.5c0 -61.333 12.667 -114.166 38 -158.499s59.5 -81 102.5 -110
s92.833 -50.5 149.5 -64.5s116.667 -21 180 -21c50 0 105.833 6.16699 167.5 18.5s129.167 35.5 202.5 69.5l50 -107c-38 -22.667 -78 -41.167 -120 -55.5s-82.167 -25.5 -120.5 -33.5s-73 -13.5 -104 -16.5s-54.833 -4.5 -71.5 -4.5c-88.667 0 -169.834 10 -243.501 30
s-137.167 50 -190.5 90s-94.833 89.667 -124.5 149s-44.5 128.666 -44.5 207.999c0 116.667 38.5 219 115.5 307s189.167 163.667 336.5 227z" />
    <glyph glyph-name="uniFECB" unicode="&#x639;" horiz-adv-x="979" arabic-form="initial" 
d="M0 0c-23.333 0 -41.168 4.3291 -53.501 12.9961s-18.5 25.334 -18.5 50.001c0 14.667 1.5 26.334 4.5 35.001s7.5 15.334 13.5 20.001s13.5 7.66699 22.5 9s19.5 2 31.5 2h297c-34 36 -61 78.5 -81 127.5s-30 98.833 -30 149.5c0 69.333 13.333 129.333 40 180
s61.167 92.5 103.5 125.5s90 57.5 143 73.5s105.833 24 158.5 24c42 0 78.5 -2.16699 109.5 -6.5s56.5 -9.5 76.5 -15.5v-131c-23.333 6 -49.166 11.333 -77.499 16s-62.5 7 -102.5 7c-49.333 0 -93.666 -6.66699 -132.999 -20s-72.833 -32 -100.5 -56
s-48.834 -53 -63.501 -87s-22 -71.667 -22 -113c0 -40 6.83301 -76.833 20.5 -110.5s33.5 -62.667 59.5 -87s57.833 -43.166 95.5 -56.499s80.167 -20 127.5 -20h288v-129h-909z" />
    <glyph glyph-name="uniFECC" unicode="&#x639;" horiz-adv-x="1083" arabic-form="medial" 
d="M644 160c24.667 -11.333 51.1641 -19.3369 79.4971 -24.0039s59.5 -7 93.5 -7h266c23.333 0 41.166 -4 53.499 -12s18.5 -24.333 18.5 -49c0 -14.667 -1.5 -26.334 -4.5 -35.001s-7.5 -15.5 -13.5 -20.5s-13.5 -8.33301 -22.5 -10s-19.5 -2.5 -31.5 -2.5h-323
c-20 0 -39.5 1.16699 -58.5 3.5s-37.833 6.83301 -56.5 13.5s-37.5 15.834 -56.5 27.501s-38.5 26.834 -58.5 45.501c-66.667 -28.667 -137 -50.834 -211 -66.501s-150.333 -23.5 -229 -23.5h-90c-23.333 0 -41.166 4.33301 -53.499 13s-18.5 25.334 -18.5 50.001
c0 14.667 1.5 26.334 4.5 35.001s7.5 15.334 13.5 20.001s13.5 7.66699 22.5 9s19.5 2 31.5 2h80c60.667 0 120.334 5 179.001 15s116.334 24.667 173.001 44l-138 162.5l-140 159.5c4 14 9 28.5 15 43.5s12.5 29.333 19.5 43s14.167 26.334 21.5 38.001s14 21.5 20 29.5
c44 44 96.833 79.167 158.5 105.5s128.834 39.5 201.501 39.5c59.333 0 110.833 -7 154.5 -21s79.667 -32.5 108 -55.5s49.333 -49.167 63 -78.5s20.5 -59 20.5 -89c0 -40.667 -6.83301 -79.667 -20.5 -117s-33 -73 -58 -107s-55.667 -66.167 -92 -96.5
s-76.833 -58.5 -121.5 -84.5zM579.997 679.996c-30.667 0 -60.334 -3.49609 -89.001 -10.4961s-55.667 -16.833 -81 -29.5s-49.166 -27.334 -71.499 -44.001s-42.5 -34.334 -60.5 -53.001l269 -301c36 19.333 69.833 40.166 101.5 62.499s59.5 45.833 83.5 70.5
s42.833 50.5 56.5 77.5s20.5 54.5 20.5 82.5c0 20 -4.5 38.667 -13.5 56s-22.833 32.666 -41.5 45.999s-42.5 23.833 -71.5 31.5s-63.167 11.5 -102.5 11.5z" />
    <glyph glyph-name="uniFECE" unicode="&#x63a;" horiz-adv-x="1130" arabic-form="final" 
d="M628 680c-30.667 0 -60.334 -3.49609 -89.001 -10.4961s-55.667 -16.833 -81 -29.5s-49.166 -27.334 -71.499 -44.001s-42.5 -34.334 -60.5 -53.001l269 -301c36 19.333 69.833 40.166 101.5 62.499s59.5 45.833 83.5 70.5s42.833 50.5 56.5 77.5s20.5 54.5 20.5 82.5
c0 20 -4.5 38.667 -13.5 56s-22.833 32.666 -41.5 45.999s-42.5 23.833 -71.5 31.5s-63.167 11.5 -102.5 11.5zM482 191.004l-140.002 160l-140 159c4 14 9 28.5 15 43.5s12.5 29.333 19.5 43s14.167 26.334 21.5 38.001s14 21.5 20 29.5c44 44 96.833 79.167 158.5 105.5
s128.834 39.5 201.501 39.5c59.333 0 110.833 -7 154.5 -21s79.667 -32.5 108 -55.5s49.333 -49.167 63 -78.5s20.5 -59 20.5 -89c0 -40.667 -6.83301 -79.667 -20.5 -117s-33 -73 -58 -107s-55.667 -66.167 -92 -96.5s-76.833 -58.5 -121.5 -84.5
c25.333 -12.667 52 -21 80 -25s60 -6 96 -6h264c23.333 0 41.166 -4 53.499 -12s18.5 -24.333 18.5 -49c0 -14.667 -1.5 -26.334 -4.5 -35.001s-7.5 -15.5 -13.5 -20.5s-13.5 -8.33301 -22.5 -10s-19.5 -2.5 -31.5 -2.5h-324c-20.667 0 -40.5 1.33301 -59.5 4
s-38.167 7.66699 -57.5 15s-39 17.333 -59 30s-41 29 -63 49c-51.333 -25.333 -101.666 -51.5 -150.999 -78.5s-93.166 -57.5 -131.499 -91.5s-69.166 -72.5 -92.499 -115.5s-35 -92.833 -35 -149.5c0 -61.333 12.667 -114.166 38 -158.499s59.5 -81 102.5 -110
s92.833 -50.5 149.5 -64.5s116.667 -21 180 -21c50 0 105.833 6.16699 167.5 18.5s129.167 35.5 202.5 69.5l50 -107c-38 -22.667 -78 -41.167 -120 -55.5s-82.167 -25.5 -120.5 -33.5s-73 -13.5 -104 -16.5s-54.833 -4.5 -71.5 -4.5c-88.667 0 -169.834 10 -243.501 30
s-137.167 50 -190.5 90s-94.833 89.667 -124.5 149s-44.5 128.666 -44.5 207.999c0 116.667 38.5 219 115.5 307s189.167 163.667 336.5 227zM531.998 1161c0 24.667 8.5 45.499 25.5 62.499s37.833 25.5 62.5 25.5c12 0 23.667 -2.33301 35 -7s21.166 -11 29.499 -19
s15 -17.333 20 -28s7.5 -22 7.5 -34s-2.5 -23.5 -7.5 -34.5s-11.667 -20.667 -20 -29s-18.166 -14.833 -29.499 -19.5s-23 -7 -35 -7c-24.667 0 -45.5 8.83301 -62.5 26.5s-25.5 38.834 -25.5 63.501z" />
    <glyph glyph-name="uniFECF" unicode="&#x63a;" horiz-adv-x="979" arabic-form="initial" 
d="M0 0c-23.333 0 -41.168 4.3291 -53.501 12.9961s-18.5 25.334 -18.5 50.001c0 14.667 1.5 26.334 4.5 35.001s7.5 15.334 13.5 20.001s13.5 7.66699 22.5 9s19.5 2 31.5 2h297c-34 36 -61 78.5 -81 127.5s-30 98.833 -30 149.5c0 69.333 13.333 129.333 40 180
s61.167 92.5 103.5 125.5s90 57.5 143 73.5s105.833 24 158.5 24c42 0 78.5 -2.16699 109.5 -6.5s56.5 -9.5 76.5 -15.5v-131c-23.333 6 -49.166 11.333 -77.499 16s-62.5 7 -102.5 7c-49.333 0 -93.666 -6.66699 -132.999 -20s-72.833 -32 -100.5 -56
s-48.834 -53 -63.501 -87s-22 -71.667 -22 -113c0 -40 6.83301 -76.833 20.5 -110.5s33.5 -62.667 59.5 -87s57.833 -43.166 95.5 -56.499s80.167 -20 127.5 -20h288v-129h-909zM497.998 1161c0 24.667 8.5 45.499 25.5 62.499s37.833 25.5 62.5 25.5
c12 0 23.667 -2.33301 35 -7s21.166 -11 29.499 -19s15 -17.333 20 -28s7.5 -22 7.5 -34s-2.5 -23.5 -7.5 -34.5s-11.667 -20.667 -20 -29s-18.166 -14.833 -29.499 -19.5s-23 -7 -35 -7c-24.667 0 -45.5 8.83301 -62.5 26.5s-25.5 38.834 -25.5 63.501z" />
    <glyph glyph-name="uniFED0" unicode="&#x63a;" horiz-adv-x="1083" arabic-form="medial" 
d="M644 160c24.667 -11.333 51.1641 -19.3369 79.4971 -24.0039s59.5 -7 93.5 -7h266c23.333 0 41.166 -4 53.499 -12s18.5 -24.333 18.5 -49c0 -14.667 -1.5 -26.334 -4.5 -35.001s-7.5 -15.5 -13.5 -20.5s-13.5 -8.33301 -22.5 -10s-19.5 -2.5 -31.5 -2.5h-323
c-20 0 -39.5 1.16699 -58.5 3.5s-37.833 6.83301 -56.5 13.5s-37.5 15.834 -56.5 27.501s-38.5 26.834 -58.5 45.501c-66.667 -28.667 -137 -50.834 -211 -66.501s-150.333 -23.5 -229 -23.5h-90c-23.333 0 -41.166 4.33301 -53.499 13s-18.5 25.334 -18.5 50.001
c0 14.667 1.5 26.334 4.5 35.001s7.5 15.334 13.5 20.001s13.5 7.66699 22.5 9s19.5 2 31.5 2h80c60.667 0 120.334 5 179.001 15s116.334 24.667 173.001 44l-138 162.5l-140 159.5c4 14 9 28.5 15 43.5s12.5 29.333 19.5 43s14.167 26.334 21.5 38.001s14 21.5 20 29.5
c44 44 96.833 79.167 158.5 105.5s128.834 39.5 201.501 39.5c59.333 0 110.833 -7 154.5 -21s79.667 -32.5 108 -55.5s49.333 -49.167 63 -78.5s20.5 -59 20.5 -89c0 -40.667 -6.83301 -79.667 -20.5 -117s-33 -73 -58 -107s-55.667 -66.167 -92 -96.5
s-76.833 -58.5 -121.5 -84.5zM579.997 679.996c-30.667 0 -60.334 -3.49609 -89.001 -10.4961s-55.667 -16.833 -81 -29.5s-49.166 -27.334 -71.499 -44.001s-42.5 -34.334 -60.5 -53.001l269 -301c36 19.333 69.833 40.166 101.5 62.499s59.5 45.833 83.5 70.5
s42.833 50.5 56.5 77.5s20.5 54.5 20.5 82.5c0 20 -4.5 38.667 -13.5 56s-22.833 32.666 -41.5 45.999s-42.5 23.833 -71.5 31.5s-63.167 11.5 -102.5 11.5zM489.997 1161c0 24.667 8.5 45.499 25.5 62.499s37.833 25.5 62.5 25.5c12 0 23.667 -2.33301 35 -7
s21.166 -11 29.499 -19s15 -17.333 20 -28s7.5 -22 7.5 -34s-2.5 -23.5 -7.5 -34.5s-11.667 -20.667 -20 -29s-18.166 -14.833 -29.499 -19.5s-23 -7 -35 -7c-24.667 0 -45.5 8.83301 -62.5 26.5s-25.5 38.834 -25.5 63.501z" />
    <glyph glyph-name="uniFED2" unicode="&#x641;" horiz-adv-x="2168" arabic-form="final" 
d="M1376 398c0 -45.333 7.33301 -84.834 22 -118.501s35 -61.667 61 -84s56.5 -39 91.5 -50s73.167 -16.5 114.5 -16.5h230v240c0 36.667 -3.66699 73.5 -11 110.5s-20.5 70.333 -39.5 100s-44.667 53.834 -77 72.501s-73.833 28 -124.5 28c-44 0 -82.5 -7.5 -115.5 -22.5
s-60.833 -35.333 -83.5 -61s-39.667 -55.667 -51 -90s-17 -70.5 -17 -108.5zM460 -0.000976562c-62.667 0 -119.168 4.50195 -169.501 13.502s-93.333 24.667 -129 47s-63.167 52.166 -82.5 89.499s-29 84.333 -29 141v307h129v-244c0 -49.333 5.66699 -88.833 17 -118.5
s31 -52.334 59 -68.001s65.833 -26 113.5 -31s107.5 -7.5 179.5 -7.5h794c-16 16 -30 34.5 -42 55.5s-21.833 42.833 -29.5 65.5s-13.334 45 -17.001 67s-5.5 42.667 -5.5 62c0 53.333 8.33301 105.666 25 156.999s41.667 97.333 75 138s75 73.334 125 98.001
s108.667 37 176 37c49.333 0 92.833 -6.16699 130.5 -18.5s70.334 -29.166 98.001 -50.499s50.834 -46.333 69.501 -75s33.667 -59 45 -91s19.5 -65.167 24.5 -99.5s7.5 -67.5 7.5 -99.5v-246h144c23.333 0 41 -4 53 -12s18 -24.333 18 -49
c0 -14.667 -1.5 -26.334 -4.5 -35.001s-7.5 -15.5 -13.5 -20.5s-13.333 -8.33301 -22 -10s-19 -2.5 -31 -2.5h-1708zM1535 1161c0 24.667 8.5 45.499 25.5 62.499s37.833 25.5 62.5 25.5c12 0 23.667 -2.33301 35 -7s21.166 -11 29.499 -19s15 -17.333 20 -28
s7.5 -22 7.5 -34s-2.5 -23.5 -7.5 -34.5s-11.667 -20.667 -20 -29s-18.166 -14.833 -29.499 -19.5s-23 -7 -35 -7c-24.667 0 -45.5 8.83301 -62.5 26.5s-25.5 38.834 -25.5 63.501z" />
    <glyph glyph-name="uniFED3" unicode="&#x641;" horiz-adv-x="1089" arabic-form="initial" 
d="M319 398c0 -45.333 7.33301 -84.833 22 -118.5s35 -61.667 61 -84s56.5 -39 91.5 -50s73.167 -16.5 114.5 -16.5h230v240c0 36.667 -3.66699 73.5 -11 110.5s-20.5 70.333 -39.5 100s-44.667 53.834 -77 72.501s-73.833 28 -124.5 28c-41.333 0 -78.5 -7 -111.5 -21
s-61 -33.5 -84 -58.5s-40.667 -54.833 -53 -89.5s-18.5 -72.334 -18.5 -113.001zM0 0c-23.333 0 -41.167 4.32812 -53.5 12.9951s-18.5 25.334 -18.5 50.001c0 14.667 1.5 26.334 4.5 35.001s7.5 15.334 13.5 20.001s13.5 7.66699 22.5 9s19.5 2 31.5 2h285
c-14.667 14.667 -27.834 32 -39.501 52s-21.5 41.333 -29.5 64s-14.167 46.167 -18.5 70.5s-6.5 48.833 -6.5 73.5c0 54.667 9 107.334 27 158.001s44 95.5 78 134.5s75.5 70 124.5 93s104.5 34.5 166.5 34.5c50.667 0 95.334 -6.16699 134.001 -18.5
s72.167 -29.166 100.5 -50.499s51.833 -46.333 70.5 -75s33.5 -59 44.5 -91s18.833 -65.167 23.5 -99.5s7 -67.5 7 -99.5v-375h-967zM501.999 1161c0 24.667 8.5 45.499 25.5 62.499s37.833 25.5 62.5 25.5c12 0 23.667 -2.33301 35 -7s21.166 -11 29.499 -19
s15 -17.333 20 -28s7.5 -22 7.5 -34s-2.5 -23.5 -7.5 -34.5s-11.667 -20.667 -20 -29s-18.166 -14.833 -29.499 -19.5s-23 -7 -35 -7c-24.667 0 -45.5 8.83301 -62.5 26.5s-25.5 38.834 -25.5 63.501z" />
    <glyph glyph-name="uniFED4" unicode="&#x641;" horiz-adv-x="1112" arabic-form="medial" 
d="M0 0c-23.333 0 -41.168 4.33008 -53.501 12.9971s-18.5 25.334 -18.5 50.001c0 14.667 1.5 26.334 4.5 35.001s7.5 15.334 13.5 20.001s13.5 7.66699 22.5 9s19.5 2 31.5 2h285c-16 16 -30 34.5 -42 55.5s-21.833 42.833 -29.5 65.5s-13.334 45 -17.001 67
s-5.5 42.667 -5.5 62c0 53.333 8.33301 105.666 25 156.999s41.667 97.333 75 138s75 73.334 125 98.001s108.667 37 176 37c49.333 0 92.833 -6.16699 130.5 -18.5s70.334 -29.166 98.001 -50.499s50.834 -46.333 69.501 -75s33.667 -59 45 -91s19.5 -65.167 24.5 -99.5
s7.5 -67.5 7.5 -99.5v-246h145c23.333 0 41 -4 53 -12s18 -24.333 18 -49c0 -14.667 -1.5 -26.334 -4.5 -35.001s-7.5 -15.5 -13.5 -20.5s-13.333 -8.33301 -22 -10s-19 -2.5 -31 -2.5h-1112zM318.998 397.997c0 -45.333 7.33301 -84.834 22 -118.501s35 -61.667 61 -84
s56.5 -39 91.5 -50s73.167 -16.5 114.5 -16.5h230v240c0 36.667 -3.66699 73.5 -11 110.5s-20.5 70.333 -39.5 100s-44.667 53.834 -77 72.501s-73.833 28 -124.5 28c-44 0 -82.5 -7.5 -115.5 -22.5s-60.833 -35.333 -83.5 -61s-39.667 -55.667 -51 -90
s-17 -70.5 -17 -108.5zM497.998 1161c0 24.667 8.5 45.499 25.5 62.499s37.833 25.5 62.5 25.5c12 0 23.667 -2.33301 35 -7s21.166 -11 29.499 -19s15 -17.333 20 -28s7.5 -22 7.5 -34s-2.5 -23.5 -7.5 -34.5s-11.667 -20.667 -20 -29s-18.166 -14.833 -29.499 -19.5
s-23 -7 -35 -7c-24.667 0 -45.5 8.83301 -62.5 26.5s-25.5 38.834 -25.5 63.501z" />
    <glyph glyph-name="uniFED6" unicode="&#x642;" horiz-adv-x="1573" arabic-form="final" 
d="M1029 0c-54 0 -104.338 7.16797 -151.005 21.501s-87 36.666 -121 66.999s-60.667 69 -80 116s-29 103.167 -29 168.5c0 56 8.83301 110.167 26.5 162.5s43.334 98.833 77.001 139.5s75 73.167 124 97.5s104.833 36.5 167.5 36.5c69.333 0 128.5 -12.667 177.5 -38
s88.833 -60.833 119.5 -106.5s53 -100.5 67 -164.5s21 -134.333 21 -211v-160h145c23.333 0 41 -4 53 -12s18 -24.333 18 -49c0 -14.667 -1.5 -26.334 -4.5 -35.001s-7.5 -15.5 -13.5 -20.5s-13.333 -8.33301 -22 -10s-19 -2.5 -31 -2.5h-147
c-8 -86.667 -29.333 -160.5 -64 -221.5s-81.167 -110.833 -139.5 -149.5s-127.666 -67 -207.999 -85s-170.5 -27 -270.5 -27c-129.333 0 -238.166 11.833 -326.499 35.5s-159.666 57.834 -213.999 102.501s-93.5 99.334 -117.5 164.001s-36 138 -36 220v254h129v-232
c0 -76 11.333 -140.333 34 -193s57.334 -95.334 104.001 -128.001s105.5 -56.167 176.5 -70.5s154.5 -21.5 250.5 -21.5c72 0 141.333 5.83301 208 17.5s125.667 31 177 58s92.5 63 123.5 108s46.5 101.167 46.5 168.5h-270zM772.995 391.001
c0 -86.667 22.8301 -152 68.4971 -196s112.167 -66 199.5 -66h258v178c0 52.667 -4.66699 102.167 -14 148.5s-24.666 86.666 -45.999 120.999s-49.166 61.333 -83.499 81s-76.166 29.5 -125.499 29.5c-43.333 0 -81 -8.83301 -113 -26.5s-58.667 -40.5 -80 -68.5
s-37.333 -59.667 -48 -95s-16 -70.666 -16 -105.999zM817.992 1161c0 24.667 8.66699 45.5 26 62.5s38.666 25.5 63.999 25.5c24.667 0 45.834 -8.5 63.501 -25.5s26.5 -37.833 26.5 -62.5s-8.83301 -45.834 -26.5 -63.501s-38.834 -26.5 -63.501 -26.5
c-25.333 0 -46.666 8.83301 -63.999 26.5s-26 38.834 -26 63.501zM1095.99 1161c0 24.667 8.83301 45.5 26.5 62.5s38.834 25.5 63.501 25.5s45.834 -8.5 63.501 -25.5s26.5 -37.833 26.5 -62.5s-8.83301 -45.834 -26.5 -63.501s-38.834 -26.5 -63.501 -26.5
s-45.834 8.83301 -63.501 26.5s-26.5 38.834 -26.5 63.501z" />
    <glyph glyph-name="uniFED7" unicode="&#x642;" horiz-adv-x="1098" arabic-form="initial" 
d="M396 1161c0 24.667 8.66699 45.5 26 62.5s38.666 25.5 63.999 25.5c24.667 0 45.834 -8.5 63.501 -25.5s26.5 -37.833 26.5 -62.5s-8.83301 -45.834 -26.5 -63.501s-38.834 -26.5 -63.501 -26.5c-25.333 0 -46.666 8.83301 -63.999 26.5s-26 38.834 -26 63.501zM674 1161
c0 24.667 8.83301 45.5 26.5 62.5s38.834 25.5 63.501 25.5s45.834 -8.5 63.501 -25.5s26.5 -37.833 26.5 -62.5s-8.83301 -45.834 -26.5 -63.501s-38.834 -26.5 -63.501 -26.5s-45.834 8.83301 -63.501 26.5s-26.5 38.834 -26.5 63.501zM344 398
c0 -45.333 7.33301 -84.833 22 -118.5s35 -61.667 61 -84s56.5 -39 91.5 -50s73.167 -16.5 114.5 -16.5h230v240c0 36.667 -3.66699 73.5 -11 110.5s-20.5 70.333 -39.5 100s-44.667 53.834 -77 72.501s-73.833 28 -124.5 28c-41.333 0 -78.5 -7 -111.5 -21
s-61 -33.5 -84 -58.5s-40.667 -54.833 -53 -89.5s-18.5 -72.334 -18.5 -113.001zM25 0c-23.333 0 -41.167 4.32812 -53.5 12.9951s-18.5 25.334 -18.5 50.001c0 14.667 1.5 26.334 4.5 35.001s7.5 15.334 13.5 20.001s13.5 7.66699 22.5 9s19.5 2 31.5 2h285
c-14.667 14.667 -27.834 32 -39.501 52s-21.5 41.333 -29.5 64s-14.167 46.167 -18.5 70.5s-6.5 48.833 -6.5 73.5c0 54.667 9 107.334 27 158.001s44 95.5 78 134.5s75.5 70 124.5 93s104.5 34.5 166.5 34.5c50.667 0 95.334 -6.16699 134.001 -18.5
s72.167 -29.166 100.5 -50.499s51.833 -46.333 70.5 -75s33.5 -59 44.5 -91s18.833 -65.167 23.5 -99.5s7 -67.5 7 -99.5v-375h-967z" />
    <glyph glyph-name="uniFED8" unicode="&#x642;" horiz-adv-x="1112" arabic-form="medial" 
d="M0 0c-23.333 0 -41.168 4.33008 -53.501 12.9971s-18.5 25.334 -18.5 50.001c0 14.667 1.5 26.334 4.5 35.001s7.5 15.334 13.5 20.001s13.5 7.66699 22.5 9s19.5 2 31.5 2h285c-16 16 -30 34.5 -42 55.5s-21.833 42.833 -29.5 65.5s-13.334 45 -17.001 67
s-5.5 42.667 -5.5 62c0 53.333 8.33301 105.666 25 156.999s41.667 97.333 75 138s75 73.334 125 98.001s108.667 37 176 37c49.333 0 92.833 -6.16699 130.5 -18.5s70.334 -29.166 98.001 -50.499s50.834 -46.333 69.501 -75s33.667 -59 45 -91s19.5 -65.167 24.5 -99.5
s7.5 -67.5 7.5 -99.5v-246h145c23.333 0 41 -4 53 -12s18 -24.333 18 -49c0 -14.667 -1.5 -26.334 -4.5 -35.001s-7.5 -15.5 -13.5 -20.5s-13.333 -8.33301 -22 -10s-19 -2.5 -31 -2.5h-1112zM318.998 397.997c0 -45.333 7.33301 -84.834 22 -118.501s35 -61.667 61 -84
s56.5 -39 91.5 -50s73.167 -16.5 114.5 -16.5h230v240c0 36.667 -3.66699 73.5 -11 110.5s-20.5 70.333 -39.5 100s-44.667 53.834 -77 72.501s-73.833 28 -124.5 28c-44 0 -82.5 -7.5 -115.5 -22.5s-60.833 -35.333 -83.5 -61s-39.667 -55.667 -51 -90
s-17 -70.5 -17 -108.5zM368.998 1161c0 24.667 8.66699 45.5 26 62.5s38.666 25.5 63.999 25.5c24.667 0 45.834 -8.5 63.501 -25.5s26.5 -37.833 26.5 -62.5s-8.83301 -45.834 -26.5 -63.501s-38.834 -26.5 -63.501 -26.5c-25.333 0 -46.666 8.83301 -63.999 26.5
s-26 38.834 -26 63.501zM646.998 1161c0 24.667 8.83301 45.5 26.5 62.5s38.834 25.5 63.501 25.5s45.834 -8.5 63.501 -25.5s26.5 -37.833 26.5 -62.5s-8.83301 -45.834 -26.5 -63.501s-38.834 -26.5 -63.501 -26.5s-45.834 8.83301 -63.501 26.5
s-26.5 38.834 -26.5 63.501z" />
    <glyph glyph-name="uniFEDA" unicode="&#x643;" horiz-adv-x="1864" arabic-form="final" 
d="M1330 129c28.667 0 56.334 1.00391 83.001 3.00391s50.167 8.5 70.5 19.5s36.666 27.667 48.999 50s18.5 54.166 18.5 95.499v1165h129v-1071c0 -39.333 3.16699 -75.166 9.5 -107.499s16.666 -60 30.999 -83s33.166 -40.667 56.499 -53s52.333 -18.5 87 -18.5
c23.333 0 41 -4 53 -12s18 -24.333 18 -49c0 -14.667 -1.5 -26.334 -4.5 -35.001s-7.5 -15.5 -13.5 -20.5s-13.333 -8.33301 -22 -10s-19 -2.5 -31 -2.5c-49.333 0 -92.666 8.83301 -129.999 26.5s-65.666 49.167 -84.999 94.5c-16 -24.667 -33.5 -44.834 -52.5 -60.501
s-40.5 -28 -64.5 -37s-51 -15.167 -81 -18.5s-64.333 -5 -103 -5h-888c-62.667 0 -119.167 4.5 -169.5 13.5s-93.333 24.667 -129 47s-63.167 52.166 -82.5 89.499s-29 84.333 -29 141v307h129v-244c0 -49.333 5.66699 -88.833 17 -118.5s31 -52.334 59 -68.001
s65.833 -26 113.5 -31s107.5 -7.5 179.5 -7.5h782zM1115 621.004h-349.999v75h98c-32.667 36.667 -49 77.667 -49 123c0 28.667 4.83301 54.167 14.5 76.5s22.834 41 39.501 56s35.834 26.333 57.501 34s44.5 11.5 68.5 11.5c15.333 0 30.166 -0.5 44.499 -1.5
s26.166 -3.16699 35.499 -6.5v-82c-15.333 4 -28.333 6.83301 -39 8.5s-21.667 2.5 -33 2.5c-22.667 0 -41.334 -3 -56.001 -9s-26.5 -13.833 -35.5 -23.5s-15.333 -20.167 -19 -31.5s-5.5 -22.333 -5.5 -33c0 -17.333 3.33301 -33.5 10 -48.5s16.167 -28.167 28.5 -39.5
s27.833 -20.333 46.5 -27s40 -10 64 -10h80v-75z" />
    </font>
</defs>
</svg>
